<?xml version="1.0" standalone="no"?>
<!DOCTYPE svg PUBLIC "-//W3C//DTD SVG 1.1//EN" "http://www.w3.org/Graphics/SVG/1.1/DTD/svg11.dtd" >
<svg xmlns="http://www.w3.org/2000/svg" xmlns:xlink="http://www.w3.org/1999/xlink" version="1.1">
<metadata></metadata>
<defs>
<font id="bw_glenn_sans_demothin" horiz-adv-x="1218" >
<font-face units-per-em="2048" ascent="1597" descent="-451" />
<missing-glyph horiz-adv-x="540" />
<glyph unicode="&#xfb01;" horiz-adv-x="1128" d="M45 1016v53h191v293q0 115 71 185.5t185 70.5q108 0 182 -39l10 -57q-68 43 -176 43q-95 0 -153 -58t-58 -153v-285h377v-53h-377v-1016h-61v1016h-191zM883 1337v260h65v-260h-65zM885 0v1069h61v-1069h-61z" />
<glyph unicode="&#xfb02;" horiz-adv-x="1128" d="M45 1016v53h191v293q0 115 71 185.5t185 70.5q108 0 182 -39l10 -57q-68 43 -176 43q-95 0 -153 -58t-58 -153v-285h377v-53h-377v-1016h-61v1016h-191zM885 0v1597h61v-1597h-61z" />
<glyph horiz-adv-x="0" />
<glyph horiz-adv-x="682" />
<glyph unicode="&#xd;" horiz-adv-x="540" />
<glyph unicode=" "  horiz-adv-x="540" />
<glyph unicode="&#x09;" horiz-adv-x="540" />
<glyph unicode="&#xa0;" horiz-adv-x="540" />
<glyph unicode="!" horiz-adv-x="473" d="M182 0v117h109v-117h-109zM201 1516h71l-6 -1207h-59z" />
<glyph unicode="&#x22;" horiz-adv-x="581" d="M147 1151v446h66v-446h-66zM367 1151v446h65v-446h-65z" />
<glyph unicode="#" d="M80 389l8 55h217l68 385h-217l8 54h217l70 397h61l-70 -397h412l70 397h61l-70 -397h218l-9 -54h-217l-67 -385h217l-8 -55h-220l-67 -389h-62l68 389h-410l-67 -389h-62l68 389h-217zM367 444h411l68 385h-412z" />
<glyph unicode="$" d="M109 123q89 -37 211.5 -61t238.5 -25v717l-115 37q-71 22 -126 50.5t-100.5 70.5t-70 102t-24.5 135q0 165 119.5 269.5t316.5 115.5v166h64v-164q109 -1 222 -21.5t195 -52.5v-59q-68 33 -182 54t-235 22v-678l118 -37q65 -19 115 -40.5t100.5 -54.5t83.5 -72.5 t53.5 -97t20.5 -126.5q0 -170 -134 -278t-357 -115v-164h-64v164q-132 3 -251.5 25t-188.5 58zM190 1155q0 -224 279 -307l90 -29v658q-168 -9 -268.5 -96.5t-100.5 -225.5zM623 39q192 9 308 98.5t116 229.5q0 71 -25 127t-72.5 94.5t-100.5 64.5t-126 49l-100 31v-694z " />
<glyph unicode="%" horiz-adv-x="1794" d="M135 1120q0 184 86.5 296t229.5 112q140 0 226.5 -112t86.5 -296q0 -182 -86.5 -293.5t-226.5 -111.5q-143 0 -229.5 111t-86.5 294zM197 1120q0 -160 69.5 -257t184.5 -97q111 0 180 97.5t69 256.5q0 160 -69 258.5t-180 98.5q-115 0 -184.5 -97.5t-69.5 -259.5zM465 6 l811 1530l53 -27l-811 -1529zM1032 395q0 183 87 294.5t229 111.5q140 0 226.5 -111.5t86.5 -294.5q0 -184 -86.5 -295.5t-226.5 -111.5q-143 0 -229.5 111.5t-86.5 295.5zM1094 395q0 -161 69.5 -258.5t184.5 -97.5q111 0 180 98t69 258q0 159 -69 257t-180 98 q-115 0 -184.5 -97.5t-69.5 -257.5z" />
<glyph unicode="&#x26;" horiz-adv-x="1470" d="M109 406q0 65 20.5 120.5t51.5 96t81.5 78.5t97 63.5t111.5 54.5q-100 92 -161.5 201t-61.5 194q0 145 108.5 233.5t286.5 88.5q174 0 283.5 -89t109.5 -233q0 -52 -16 -97t-46.5 -81t-67.5 -65t-87.5 -55.5t-96.5 -47.5t-105 -45q-26 -11 -39 -16l516 -457 q43 87 68.5 199.5t25.5 218.5h67q0 -124 -29 -248t-81 -215l311 -274l-45 -51l-303 270q-85 -122 -226 -196t-290 -74q-218 0 -350.5 117t-132.5 309zM178 408q0 -167 114.5 -269t303.5 -102q133 0 260.5 70t204.5 186l-545 487q-61 -27 -105 -50.5t-91 -58t-76 -71 t-47.5 -86t-18.5 -106.5zM319 1214q0 -76 59 -176.5t157 -191.5q181 76 235 105q150 82 185 186q12 36 12 77q0 120 -89.5 192.5t-236.5 72.5q-145 0 -233.5 -72.5t-88.5 -192.5z" />
<glyph unicode="'" horiz-adv-x="360" d="M147 1151v446h66v-446h-66z" />
<glyph unicode="(" horiz-adv-x="520" d="M121 614q0 550 272 1065h58q-39 -82 -57.5 -122.5t-63.5 -161.5t-69.5 -221.5t-46 -253.5t-21.5 -306t21.5 -306t46 -253.5t69.5 -221.5t63.5 -161.5t57.5 -122.5h-58q-272 515 -272 1065z" />
<glyph unicode=")" horiz-adv-x="516" d="M68 -451q31 66 38.5 82t44 100.5t52 134.5t45 149t43 181.5t25.5 194.5t12 223t-12 223t-25.5 194.5t-43 181.5t-45 149t-52 134.5t-44 100.5t-38.5 82h55q272 -515 272 -1065t-272 -1065h-55z" />
<glyph unicode="*" horiz-adv-x="763" d="M113 1298l18 56l229 -82l-8 244h58l-7 -244l230 82l16 -56l-229 -69l145 -191l-45 -34l-137 196l-139 -196l-45 34l145 191z" />
<glyph unicode="+" d="M139 678v57h436v428h68v-428h436v-57h-436v-430h-68v430h-436z" />
<glyph unicode="," horiz-adv-x="421" d="M104 -264q56 0 90.5 72.5t34.5 191.5h-67v129h123v-125q0 -138 -48 -222.5t-126 -84.5z" />
<glyph unicode="-" horiz-adv-x="866" d="M158 557v53h551v-53h-551z" />
<glyph unicode="." horiz-adv-x="419" d="M150 0v129h120v-129h-120z" />
<glyph unicode="/" horiz-adv-x="735" d="M76 -451l520 2132h63l-520 -2132h-63z" />
<glyph unicode="0" d="M90 758q0 350 143.5 564t376.5 214t375.5 -214t142.5 -564t-142.5 -564t-375.5 -214t-376.5 214t-143.5 564zM164 758q0 -324 122.5 -522.5t323.5 -198.5q132 0 233 89.5t156.5 253.5t55.5 378t-55.5 378t-156.5 253.5t-233 89.5q-201 0 -323.5 -198.5t-122.5 -522.5z " />
<glyph unicode="1" d="M135 0v57h535v1401h-434l8 58h495v-1459h375v-57h-979z" />
<glyph unicode="2" d="M115 0v47l493 492l12 12q51 51 79 80.5t76.5 84t76 97.5t57.5 99t44 114t14 117q0 155 -105 245.5t-280 90.5q-104 0 -223.5 -37.5t-208.5 -98.5v58q84 61 203.5 98t230.5 37q205 0 329.5 -105t124.5 -282q0 -56 -13.5 -113t-32.5 -104t-53.5 -101.5t-62.5 -92.5 t-74.5 -90t-75 -81t-77.5 -78l-438 -432h891l-8 -57h-979z" />
<glyph unicode="3" d="M115 55v58q81 -32 197 -54t227 -22q221 0 356 103t135 270q0 163 -133 262.5t-350 99.5h-115l-24 47l567 639h-846v58h940v-48l-580 -643h70q245 0 395 -114t150 -301q0 -194 -153.5 -312t-405.5 -118q-116 0 -234 21.5t-196 53.5z" />
<glyph unicode="4" d="M41 408v63l766 1045h98v-1051h260v-57h-260v-408h-69v408h-795zM109 465h729v995z" />
<glyph unicode="5" d="M127 57v58q76 -35 194.5 -56.5t237.5 -21.5q218 0 350.5 106.5t132.5 280.5q0 171 -124 276t-328 105q-178 0 -375 -49l-47 10l53 750h805l-8 -58h-733l-43 -641q190 43 360 43q231 0 372.5 -120.5t141.5 -315.5q0 -199 -152.5 -321.5t-398.5 -122.5q-124 0 -243.5 21 t-194.5 56z" />
<glyph unicode="6" d="M117 518q0 303 90.5 534.5t255.5 357.5t381 126q93 0 188 -31l8 -57q-91 31 -186 31q-263 0 -438.5 -209t-216.5 -565q56 113 171 176t269 63q220 0 353.5 -132t133.5 -349t-138 -350t-365 -133q-228 0 -367 146.5t-139 391.5zM188 504q0 -210 120 -338.5t315 -128.5 q193 0 312.5 117.5t119.5 308.5q0 192 -119 310t-313 118q-195 0 -315 -107t-120 -280z" />
<glyph unicode="7" d="M111 1458v58h993v-48l-598 -1468h-76l596 1458h-915z" />
<glyph unicode="8" d="M86 399q0 153 95.5 261t260.5 145q-139 37 -218 129.5t-79 222.5q0 170 128 274.5t337 104.5t337 -104t128 -273q0 -131 -78.5 -224t-216.5 -130q164 -37 259.5 -144.5t95.5 -259.5q0 -189 -144.5 -305t-380.5 -116t-380 115t-144 304zM158 406q0 -166 124 -267.5 t328 -101.5q203 0 328 101.5t125 267.5t-125 268t-328 102q-204 0 -328 -102t-124 -268zM219 1153q0 -145 107 -233.5t284 -88.5t284 88.5t107 233.5q0 147 -107 236.5t-284 89.5t-284 -89.5t-107 -236.5z" />
<glyph unicode="9" d="M104 1063q0 212 136 342.5t358 130.5q223 0 359.5 -144.5t136.5 -383.5q0 -306 -89 -539.5t-252 -361t-376 -127.5q-97 0 -189 30l-8 58q91 -31 187 -31q260 0 433.5 213t211.5 575q-55 -110 -167 -171.5t-263 -61.5q-215 0 -346.5 129.5t-131.5 341.5zM176 1063 q0 -187 116.5 -302.5t305.5 -115.5q190 0 307 104t117 273q0 205 -116.5 331t-307.5 126q-189 0 -305.5 -115t-116.5 -301z" />
<glyph unicode=":" horiz-adv-x="438" d="M160 0v129h121v-129h-121zM160 940v129h121v-129h-121z" />
<glyph unicode=";" horiz-adv-x="526" d="M160 -264q56 0 90.5 72.5t34.5 191.5h-68v129h123v-125q0 -138 -48 -222.5t-126 -84.5zM217 940v129h121v-129h-121z" />
<glyph unicode="&#x3c;" d="M121 700v33l903 422v-65l-809 -373l809 -373v-65z" />
<glyph unicode="=" d="M139 432v57h940v-57h-940zM139 922v57h940v-57h-940z" />
<glyph unicode="&#x3e;" d="M195 279v65l809 373l-809 373v65l903 -422v-33z" />
<glyph unicode="?" horiz-adv-x="1024" d="M63 1364v57q88 52 209 83.5t228 31.5q195 0 313.5 -105t118.5 -282q0 -69 -15.5 -129.5t-38 -105.5t-64 -92.5t-78.5 -80t-95 -79.5q-81 -64 -130.5 -161.5t-49.5 -191.5h-55q0 106 51 211.5t137 175.5q54 45 85.5 73t71 72.5t60.5 85t36 96.5t15 120q0 155 -100 245.5 t-266 90.5q-100 0 -219 -31.5t-214 -83.5zM381 0v117h106v-117h-106z" />
<glyph unicode="@" horiz-adv-x="1937" d="M117 528q0 301 107.5 531.5t303.5 356.5t451 126q247 0 435 -111.5t291 -315t103 -470.5q0 -251 -87.5 -403t-233.5 -152q-91 0 -151 65t-72 173q-41 -113 -130 -177.5t-206 -64.5q-169 0 -272 121.5t-103 320.5q0 201 103 324t272 123q114 0 202 -64.5t130 -175.5v25 l2 198h57v-585q0 -103 46.5 -165.5t121.5 -62.5q115 0 185.5 135.5t70.5 358.5q0 252 -95 444.5t-268.5 298t-400.5 105.5q-236 0 -416.5 -119t-279.5 -337.5t-99 -504.5q0 -210 57.5 -385.5t161 -298.5t251.5 -191.5t325 -68.5q124 0 265.5 22.5t250.5 59.5v-55 q-110 -36 -251 -58t-261 -22q-257 0 -453.5 124t-304.5 351t-108 524zM618 528q0 -175 88.5 -282t233.5 -107t232.5 107t87.5 282q0 177 -87.5 285.5t-232.5 108.5t-233.5 -108.5t-88.5 -285.5z" />
<glyph unicode="A" horiz-adv-x="1337" d="M29 0l598 1516h84l598 -1516h-72l-172 444h-791l-172 -444h-73zM297 502h745l-372 956z" />
<glyph unicode="B" horiz-adv-x="1343" d="M217 0v1516h539q183 0 295 -103t112 -272q0 -133 -69.5 -227t-190.5 -130q147 -28 232.5 -128t85.5 -248q0 -183 -114.5 -295.5t-303.5 -112.5h-586zM285 57h503q163 0 263 95.5t100 250.5t-100 251t-263 96h-503v-693zM285 807h460q157 0 253 90t96 236t-99 235.5 t-262 89.5h-448v-651z" />
<glyph unicode="C" horiz-adv-x="1269" d="M129 760q0 230 75.5 406.5t213.5 273t317 96.5q116 0 236 -32t200 -83v-61q-82 54 -200 86.5t-232 32.5q-241 0 -388.5 -197t-147.5 -520q0 -326 147.5 -525.5t388.5 -199.5q121 0 245.5 35t207.5 92v-60q-81 -56 -207 -90t-250 -34q-181 0 -318.5 96.5t-212.5 274 t-75 409.5z" />
<glyph unicode="D" horiz-adv-x="1376" d="M217 0v1516h352q306 0 493 -210t187 -554q0 -338 -187 -545t-493 -207h-352zM285 57h268q281 0 454 191.5t173 503.5q0 210 -78 370.5t-220.5 248t-328.5 87.5h-268v-1401z" />
<glyph unicode="E" horiz-adv-x="1212" d="M217 0v1516h879l-9 -58h-802v-653h749v-57h-749v-691h829v-57h-897z" />
<glyph unicode="F" horiz-adv-x="1124" d="M217 0v1516h848l-8 -58h-772v-676h706v-57h-706v-725h-68z" />
<glyph unicode="G" horiz-adv-x="1398" d="M127 760q0 230 81 406.5t228.5 273t339.5 96.5q118 0 240.5 -32t204.5 -83v-61q-83 54 -205.5 86.5t-239.5 32.5q-258 0 -416.5 -197.5t-158.5 -519.5q0 -326 152.5 -525.5t402.5 -199.5q232 0 430 80v643h67v-678q-88 -46 -225 -74t-272 -28q-283 0 -456 214.5 t-173 565.5z" />
<glyph unicode="H" horiz-adv-x="1449" d="M217 0v1516h68v-719h880v719h68v-1516h-68v739h-880v-739h-68z" />
<glyph unicode="I" horiz-adv-x="499" d="M217 0v1516h68v-1516h-68z" />
<glyph unicode="J" horiz-adv-x="870" d="M72 102q97 -65 235 -65q131 0 212 84.5t81 220.5v1116h-500v58h568v-1182q0 -160 -97 -257t-256 -97q-142 0 -239 63z" />
<glyph unicode="K" horiz-adv-x="1251" d="M217 0v1516h68v-1516h-68zM344 778l784 738h84l-784 -736l799 -780h-88z" />
<glyph unicode="L" horiz-adv-x="1046" d="M217 0v1516h68v-1459h729l-10 -57h-787z" />
<glyph unicode="M" horiz-adv-x="1832" d="M217 0v1516h78l623 -1217l622 1217h78v-1516h-68v1401l-608 -1192h-49l-610 1192l2 -1401h-68z" />
<glyph unicode="N" horiz-adv-x="1460" d="M217 0v1516h53l908 -1387l-2 1387h67v-1516h-53l-907 1386l2 -1386h-68z" />
<glyph unicode="O" horiz-adv-x="1503" d="M127 758q0 350 172 564t453 214q282 0 453 -213.5t171 -564.5t-171 -564.5t-453 -213.5q-281 0 -453 214t-172 564zM201 758q0 -214 68.5 -378t194 -253.5t288.5 -89.5q249 0 401 198.5t152 522.5t-152 522.5t-401 198.5q-163 0 -288.5 -89.5t-194 -253.5t-68.5 -378z " />
<glyph unicode="P" horiz-adv-x="1288" d="M217 0v1516h541q201 0 323.5 -122.5t122.5 -320.5q0 -201 -122 -323.5t-320 -122.5h-477v-627h-68zM285 684h458q175 0 283.5 106.5t108.5 280.5q0 173 -108.5 280t-283.5 107h-458v-774z" />
<glyph unicode="Q" horiz-adv-x="1464" d="M127 768q0 228 75.5 402.5t213.5 270t317 95.5q271 0 436.5 -209.5t165.5 -552.5q0 -272 -107.5 -462.5t-295.5 -260.5l444 6l-10 -57h-641q-177 0 -313 95.5t-210.5 270t-74.5 402.5zM201 768q0 -320 146.5 -515.5t385.5 -195.5t386 196t147 515t-147 515t-386 196 t-385.5 -195.5t-146.5 -515.5z" />
<glyph unicode="R" horiz-adv-x="1372" d="M217 0v1516h539q202 0 324 -117.5t122 -311.5q0 -146 -71.5 -251t-198.5 -148l358 -688h-76l-348 670q-60 -11 -106 -11h-475v-659h-68zM285 717h471q169 0 273 101.5t104 268.5t-108 269t-282 102h-458v-741z" />
<glyph unicode="S" horiz-adv-x="1198" d="M94 147q90 -50 219.5 -80t253.5 -30q210 0 338.5 91t128.5 239q0 67 -22 121t-64.5 92t-92 64.5t-114.5 47.5l-270 88q-76 24 -132 53t-106 71.5t-76 104.5t-26 140q0 175 127 281t334 106q113 0 233.5 -28.5t208.5 -75.5v-64q-71 51 -194 81t-252 30q-173 0 -279 -89.5 t-106 -234.5q0 -66 22 -118t64 -88.5t92 -61t117 -45.5l268 -84q76 -24 133 -54t106 -74.5t75 -109.5t26 -147q0 -177 -146 -285t-387 -108q-131 0 -259.5 28.5t-207.5 75.5z" />
<glyph unicode="T" horiz-adv-x="1105" d="M35 1458v58h1036v-58h-483v-1458h-70v1458h-483z" />
<glyph unicode="U" horiz-adv-x="1425" d="M201 512v1004h67v-998q0 -216 122.5 -348.5t322.5 -132.5t322 132t122 349v998h68v-1004q0 -239 -141 -385.5t-371 -146.5t-371 146.5t-141 385.5z" />
<glyph unicode="V" horiz-adv-x="1300" d="M31 1516h73l547 -1442l545 1442h74l-588 -1516h-64z" />
<glyph unicode="W" horiz-adv-x="1980" d="M35 1516h74l448 -1424l399 1424h68l399 -1424l449 1424h74l-490 -1516h-67l-400 1401l-401 -1401h-66z" />
<glyph unicode="X" horiz-adv-x="1163" d="M35 0l506 778l-463 738h78l426 -682l424 682h77l-462 -738l507 -778h-77l-471 727l-469 -727h-76z" />
<glyph unicode="Y" horiz-adv-x="1185" d="M41 1516h78l475 -797l471 797h80l-518 -863v-653h-66v653z" />
<glyph unicode="Z" horiz-adv-x="1142" d="M74 0v47l884 1411h-874v58h960v-48l-886 -1411h925l-10 -57h-999z" />
<glyph unicode="[" horiz-adv-x="628" d="M205 -451v2130h377v-57h-310v-2015h310v-58h-377z" />
<glyph unicode="\" horiz-adv-x="735" d="M76 1681h63l520 -2132h-63z" />
<glyph unicode="]" horiz-adv-x="628" d="M45 -393h311v2015h-311v57h379v-2130h-379v58z" />
<glyph unicode="^" horiz-adv-x="831" d="M113 680l268 594h70l266 -594h-68l-233 518l-236 -518h-67z" />
<glyph unicode="_" horiz-adv-x="1142" d="M72 0h999v-53h-999v53z" />
<glyph unicode="`" horiz-adv-x="585" d="M16 1597h84l234 -331h-64z" />
<glyph unicode="a" horiz-adv-x="1067" d="M86 274q0 155 100 235.5t291 80.5h359v115q0 163 -83.5 246t-246.5 83q-186 0 -336 -69v55q149 70 346 70q187 0 284 -93.5t97 -275.5v-721h-57l-4 299q-49 -147 -170.5 -233t-274.5 -86q-305 0 -305 294zM152 279q0 -123 65 -185.5t191 -62.5q75 0 150 31.5t137.5 88 t101.5 147t39 198.5v45h-351q-163 0 -248 -67t-85 -195z" />
<glyph unicode="b" horiz-adv-x="1226" d="M178 0v1597h62v-819q45 145 149.5 228.5t269.5 83.5q204 0 328.5 -153.5t124.5 -404.5q0 -249 -124.5 -400.5t-328.5 -151.5q-166 0 -270 83t-149 228l-4 -291h-58zM240 535q0 -226 110 -363t293 -137q181 0 291 136t110 361q0 226 -110.5 364t-290.5 138 q-183 0 -293 -137t-110 -362z" />
<glyph unicode="c" horiz-adv-x="970" d="M115 537q0 248 126.5 400.5t333.5 152.5q77 0 160 -19.5t139 -50.5v-59q-59 32 -141.5 52.5t-157.5 20.5q-177 0 -285 -137.5t-108 -361.5q0 -225 114 -362.5t300 -137.5q79 0 161 23.5t138 62.5v-58q-56 -38 -141 -60.5t-168 -22.5q-211 0 -341 153t-130 404z" />
<glyph unicode="d" horiz-adv-x="1226" d="M115 532q0 251 124 404.5t328 153.5q165 0 270 -83.5t150 -228.5v819h62v-1597h-56l-6 293q-45 -146 -149.5 -229.5t-270.5 -83.5q-204 0 -328 151.5t-124 400.5zM182 532q0 -225 110.5 -361t291.5 -136q183 0 293 137t110 363q0 225 -110 362t-293 137q-180 0 -291 -138 t-111 -364z" />
<glyph unicode="e" horiz-adv-x="1081" d="M117 555q0 240 125 387.5t329 147.5q184 0 297 -146t113 -383v-24h-799q5 -248 115 -376t319 -128q178 0 324 78l-10 -60q-139 -71 -322 -71q-241 0 -366 146t-125 429zM182 586h733q-1 202 -97 325t-251 123q-167 0 -272 -122.5t-113 -325.5z" />
<glyph unicode="f" horiz-adv-x="702" d="M45 1016v53h191v293q0 115 71 185.5t185 70.5q108 0 182 -39l10 -57q-68 43 -176 43q-95 0 -153 -58t-58 -153v-285h377v-53h-377v-1016h-61v1016h-191z" />
<glyph unicode="g" horiz-adv-x="1150" d="M82 -156q0 74 42.5 129t115.5 80q-56 19 -86.5 62.5t-30.5 103.5q0 63 38 122t103 97q-96 104 -96 260q0 177 117.5 284.5t310.5 107.5q148 0 252 -66l176 176l47 -43l-172 -170q127 -111 127 -289q0 -173 -118.5 -280t-311.5 -107q-180 0 -295 92q-53 -33 -84 -79.5 t-31 -98.5q0 -60 39.5 -96.5t104.5 -36.5h528q121 0 196.5 -67.5t75.5 -176.5q0 -144 -144.5 -231.5t-381.5 -87.5q-234 0 -378 87t-144 228zM145 -152q0 -121 126.5 -193.5t334.5 -72.5q206 0 332.5 73t126.5 193q0 85 -58.5 138t-152.5 53h-498q-94 0 -152.5 -53 t-58.5 -138zM233 698q0 -152 100 -245t263 -93t264 93t101 245t-101 246t-264 94t-263 -94t-100 -246z" />
<glyph unicode="h" horiz-adv-x="1181" d="M178 0v1597h62v-792q45 134 151 209.5t275 75.5q171 0 259.5 -105.5t88.5 -308.5v-676h-62v657q0 186 -77 281.5t-228 95.5q-183 0 -295 -115t-112 -305v-614h-62z" />
<glyph unicode="i" horiz-adv-x="425" d="M180 1337v260h66v-260h-66zM182 0v1069h62v-1069h-62z" />
<glyph unicode="j" horiz-adv-x="434" d="M-139 -387q60 -31 137 -31q88 0 142.5 58t54.5 153v1276h61v-1286q0 -115 -67 -184.5t-177 -69.5q-83 0 -143 31zM193 1337v260h65v-260h-65z" />
<glyph unicode="k" horiz-adv-x="960" d="M178 0v1597h62v-1597h-62zM299 573l530 496h78l-534 -496l559 -573h-80z" />
<glyph unicode="l" horiz-adv-x="425" d="M182 0v1597h62v-1597h-62z" />
<glyph unicode="m" horiz-adv-x="1873" d="M178 0v1069h58l4 -262q41 134 142 208.5t263 74.5q136 0 217 -72t103 -211q43 132 146 207.5t267 75.5q161 0 244.5 -101t83.5 -293v-696h-61v678q0 175 -72.5 265.5t-212.5 90.5q-174 0 -280.5 -115t-106.5 -305v-614h-62v678q0 175 -72.5 265.5t-211.5 90.5 q-174 0 -280.5 -115t-106.5 -305v-614h-62z" />
<glyph unicode="n" horiz-adv-x="1181" d="M178 0v1069h58l4 -266q43 135 150 211t276 76q171 0 259.5 -105.5t88.5 -308.5v-676h-62v657q0 186 -77 281.5t-228 95.5q-183 0 -295 -115t-112 -305v-614h-62z" />
<glyph unicode="o" horiz-adv-x="1167" d="M115 535q0 249 129 402t340 153q212 0 340.5 -152.5t128.5 -402.5q0 -251 -128.5 -403t-340.5 -152q-211 0 -340 152.5t-129 402.5zM182 535q0 -225 111 -362.5t291 -137.5q182 0 292.5 137t110.5 363q0 224 -111 361.5t-292 137.5q-180 0 -291 -137.5t-111 -361.5z" />
<glyph unicode="p" horiz-adv-x="1226" d="M178 -451v1520h58l4 -293q45 146 149 230t270 84q204 0 328.5 -153.5t124.5 -404.5q0 -249 -124.5 -400.5t-328.5 -151.5q-165 0 -269.5 82.5t-149.5 226.5v-740h-62zM240 535q0 -226 110 -363t293 -137q181 0 291 136t110 361q0 226 -110.5 364t-290.5 138 q-183 0 -293 -137t-110 -362z" />
<glyph unicode="q" horiz-adv-x="1226" d="M115 532q0 251 124 404.5t328 153.5q166 0 270.5 -84t149.5 -230l4 293h58v-1520h-62v740q-45 -144 -150 -226.5t-270 -82.5q-204 0 -328 151.5t-124 400.5zM182 532q0 -225 110.5 -361t291.5 -136q183 0 293 137t110 363q0 225 -110 362t-293 137q-180 0 -291 -138 t-111 -364z" />
<glyph unicode="r" horiz-adv-x="804" d="M178 0v1069h58l4 -330q46 165 162 258t303 93h71v-70h-84q-203 0 -327.5 -133.5t-124.5 -351.5v-535h-62z" />
<glyph unicode="s" horiz-adv-x="952" d="M92 92q73 -27 176.5 -44t198.5 -17q151 0 242.5 62.5t91.5 166.5q0 47 -17 84t-50.5 63.5t-70.5 44t-88 33.5l-198 58q-119 35 -187.5 98.5t-68.5 175.5q0 123 97 198t255 75q141 0 311 -64v-55q-71 29 -154 47t-149 18q-133 0 -214 -59t-81 -156q0 -89 55 -140.5 t154 -78.5l199 -57q61 -18 105 -38.5t84.5 -53t61.5 -80t21 -109.5q0 -128 -108.5 -206t-284.5 -78q-101 0 -203.5 16.5t-167.5 42.5z" />
<glyph unicode="t" horiz-adv-x="708" d="M43 1016v53h193l8 297h53v-297h375v-53h-375v-817q0 -74 48.5 -119t127.5 -45q127 0 213 39l-8 -56q-84 -38 -219 -38q-100 0 -161.5 57t-61.5 151v828h-193z" />
<glyph unicode="u" horiz-adv-x="1161" d="M168 393v676h61v-657q0 -377 295 -377q179 0 288.5 115t109.5 305v614h61v-1069h-57l-4 266q-43 -136 -146.5 -211t-269.5 -75q-167 0 -252.5 104.5t-85.5 308.5z" />
<glyph unicode="v" horiz-adv-x="980" d="M53 1069h70l366 -995l371 995h68l-406 -1069h-63z" />
<glyph unicode="w" horiz-adv-x="1568" d="M55 1069h70l315 -995l312 995h63l313 -995l316 995h69l-350 -1069h-65l-314 983l-315 -983h-63z" />
<glyph unicode="x" horiz-adv-x="978" d="M43 0l410 549l-390 520h74l352 -477l355 477h71l-389 -520l410 -549h-72l-372 506l-375 -506h-74z" />
<glyph unicode="y" horiz-adv-x="980" d="M57 1069h70l367 -997l370 997h68l-578 -1520h-65l172 451z" />
<glyph unicode="z" horiz-adv-x="980" d="M76 0v45l725 971h-715v53h795v-45l-723 -971h757l-8 -53h-831z" />
<glyph unicode="{" horiz-adv-x="690" d="M70 586v57h18q72 0 117 57.5t45 149.5v614q0 107 65.5 171.5t173.5 64.5q61 0 148 -25l10 -57q-87 24 -145 24q-83 0 -134 -51.5t-51 -136.5v-610q0 -88 -37 -151.5t-98 -78.5q61 -15 98 -78t37 -151v-610q0 -85 51 -137t134 -52q54 0 145 25l-10 -57q-87 -25 -148 -25 q-108 0 -173.5 64t-65.5 171v615q0 92 -45 149.5t-117 57.5h-18z" />
<glyph unicode="|" horiz-adv-x="477" d="M205 -451v2048h67v-2048h-67z" />
<glyph unicode="}" horiz-adv-x="690" d="M43 -389q91 -25 145 -25q83 0 134 52t51 137v610q0 88 37.5 151t97.5 78q-60 15 -97.5 78.5t-37.5 151.5v610q0 85 -51 136.5t-134 51.5q-58 0 -145 -24l10 57q87 25 148 25q108 0 173.5 -64.5t65.5 -171.5v-614q0 -92 45 -149.5t117 -57.5h19v-57h-19q-72 0 -117 -57.5 t-45 -149.5v-615q0 -107 -65.5 -171t-173.5 -64q-61 0 -148 25z" />
<glyph unicode="~" d="M133 580q0 129 66.5 206.5t175.5 77.5q57 0 111 -24.5t97 -60t84.5 -70.5t90.5 -59.5t98 -24.5q86 0 138.5 60.5t52.5 158.5h49q0 -129 -67.5 -207t-176.5 -78q-57 0 -111 24.5t-97 60t-84.5 71t-90.5 60t-98 24.5q-86 0 -138.5 -60.5t-52.5 -158.5h-47z" />
<glyph unicode="&#xa1;" horiz-adv-x="440" d="M168 950v119h106v-119h-106zM186 -451l7 1211h57l6 -1211h-70z" />
<glyph unicode="&#xa2;" d="M117 639q0 235 140.5 386.5t373.5 164.5v166h59v-164q101 -1 206.5 -22t180.5 -52v-55q-76 31 -182.5 52t-204.5 22v-1000h8q105 0 214.5 23.5t185.5 62.5v-55q-74 -39 -186 -62.5t-222 -23.5v-164h-59v166q-233 17 -373.5 167.5t-140.5 387.5zM182 637q0 -208 122 -342 t327 -154v994q-203 -15 -326 -150.5t-123 -347.5z" />
<glyph unicode="&#xa3;" d="M123 694v58h201q-7 44 -31 96t-47.5 91.5t-42.5 96.5t-19 113q0 175 129.5 281t341.5 106q111 0 231.5 -26t205.5 -70v-58q-91 44 -208 70.5t-222 26.5q-183 0 -295.5 -92.5t-112.5 -243.5q0 -48 19.5 -101.5t43.5 -94t47.5 -94.5t30.5 -101h541v-58h-537 q-3 -160 -57 -332t-143 -305h901l-8 -57h-967v47q90 137 146 314t57 333h-205z" />
<glyph unicode="&#xa4;" d="M209 305l100 107q-100 117 -100 293q0 175 98 290l-98 107l43 41l96 -109q105 88 262 88q151 0 260 -88l99 109l41 -43l-99 -107q97 -118 97 -288q0 -175 -97 -289l99 -109l-41 -43l-99 111q-107 -90 -260 -90t-262 88l-96 -109zM266 705q0 -166 95 -267.5t249 -101.5 q152 0 246 101.5t94 267.5q0 164 -94 265t-246 101q-154 0 -249 -101t-95 -265z" />
<glyph unicode="&#xa5;" d="M150 1516h75l383 -799l381 799h78l-414 -838h324v-55h-336v-248h336v-56h-336v-319h-66v319h-333v56h333v248h-333v55h321z" />
<glyph unicode="&#xa6;" horiz-adv-x="489" d="M211 369h68v-820h-68v820zM211 778v819h68v-819h-68z" />
<glyph unicode="&#xa7;" horiz-adv-x="1251" d="M94 692q0 89 40.5 164t113.5 127q-113 95 -113 248q0 175 138.5 281t365.5 106q103 0 214.5 -20t190.5 -54v-61q-68 34 -182 56t-229 22q-190 0 -307 -89.5t-117 -234.5q0 -75 32.5 -133t87.5 -94t126 -64t149.5 -50t157 -45t149.5 -55.5t126 -75.5t87.5 -110.5 t32.5 -154.5q0 -179 -153 -291q112 -94 112 -248q0 -175 -138.5 -281t-365.5 -106q-103 0 -214.5 20t-190.5 54v61q68 -34 182 -56t229 -22q190 0 307 89.5t117 234.5q0 75 -32.5 133t-87.5 94t-126 64t-149.5 50t-157 45t-149.5 55.5t-126 75.5t-87.5 110.5t-32.5 154.5z M168 698q0 -84 39.5 -148t101.5 -101t148 -69.5t167 -53t172.5 -53.5t151.5 -70q65 43 100 106.5t35 139.5q0 64 -22.5 116t-60.5 87.5t-91.5 65t-111.5 49t-125.5 40.5t-129 38.5t-126 43t-111.5 53.5q-137 -92 -137 -244z" />
<glyph unicode="&#xa8;" horiz-adv-x="714" d="M164 1337v260h65v-260h-65zM485 1337v260h66v-260h-66z" />
<glyph unicode="&#xa9;" horiz-adv-x="1755" d="M123 758q0 351 207 564.5t549 213.5q224 0 395 -96.5t264.5 -273.5t93.5 -408t-93.5 -408t-264.5 -273.5t-395 -96.5q-342 0 -549 213.5t-207 564.5zM186 758q0 -326 190 -525.5t503 -199.5q311 0 500.5 199.5t189.5 525.5t-189.5 525.5t-500.5 199.5q-313 0 -503 -199.5 t-190 -525.5zM494 745q0 193 115.5 312t303.5 119q68 0 139.5 -20t118.5 -52v-57q-51 32 -121.5 51.5t-136.5 19.5q-158 0 -255 -103t-97 -272t103 -272.5t270 -103.5q67 0 137.5 23.5t120.5 62.5v-58q-49 -38 -122.5 -61t-143.5 -23q-194 0 -313 119t-119 315z" />
<glyph unicode="&#xaa;" horiz-adv-x="833" d="M162 1049q0 92 55.5 141t159.5 49h225v61q0 191 -203 191q-102 0 -186 -41v45q80 41 199 41q120 0 181.5 -56.5t61.5 -166.5v-432h-49l-4 170q-29 -85 -99 -134t-159 -49q-182 0 -182 181zM182 647v47h473v-47h-473zM217 1051q0 -142 145 -142q92 0 166 73t74 194v22 h-217q-82 0 -125 -37.5t-43 -109.5z" />
<glyph unicode="&#xab;" horiz-adv-x="974" d="M100 553l314 453h73l-315 -453l315 -453h-73zM479 553l316 453h73l-315 -453l315 -453h-73z" />
<glyph unicode="&#xac;" d="M150 778v58h940v-344h-68v286h-872z" />
<glyph unicode="&#xad;" horiz-adv-x="866" d="M158 557v53h551v-53h-551z" />
<glyph unicode="&#xae;" horiz-adv-x="1007" d="M117 1298q0 182 106.5 293t280.5 111t280.5 -111t106.5 -293t-106.5 -292.5t-280.5 -110.5t-280.5 110.5t-106.5 292.5zM164 1298q0 -166 93 -266t247 -100t248 100.5t94 265.5q0 166 -94 266.5t-248 100.5t-247 -100.5t-93 -266.5zM360 1073v455h168q65 0 103.5 -37 t38.5 -98q0 -45 -27 -79t-70 -46l95 -195h-50l-92 189h-123v-189h-43zM403 1296h123q43 0 71 27t28 70q0 44 -28 71t-73 27h-121v-195z" />
<glyph unicode="&#xaf;" horiz-adv-x="798" d="M139 1356v53h523v-53h-523z" />
<glyph unicode="&#xb0;" horiz-adv-x="673" d="M111 1382q0 106 63 171t164 65t162 -65t61 -171t-61 -170.5t-162 -64.5t-164 64.5t-63 170.5zM172 1382q0 -85 45.5 -135.5t120.5 -50.5q73 0 118.5 51t45.5 135t-46 136.5t-118 52.5q-75 0 -120.5 -52t-45.5 -137z" />
<glyph unicode="&#xb1;" d="M139 786v58h436v330h68v-330h436v-58h-436v-329h-68v329h-436zM158 221v58h903v-58h-903z" />
<glyph unicode="&#xb2;" horiz-adv-x="731" d="M68 819v41l294 295q37 37 55.5 56.5t52.5 60t51 71.5t31.5 73.5t14.5 82.5q0 89 -56.5 140t-150.5 51q-64 0 -142 -20.5t-142 -53.5v47q61 35 140.5 56.5t148.5 21.5q119 0 190.5 -63.5t71.5 -170.5q0 -56 -19 -110.5t-57 -106.5t-70.5 -88.5t-83.5 -85.5l-252 -248h521 l-7 -49h-591z" />
<glyph unicode="&#xb3;" horiz-adv-x="731" d="M66 852v51q110 -45 251 -45q127 0 205 57.5t78 151.5q0 92 -75.5 149.5t-198.5 57.5h-70l-18 37l321 366h-485v52h567v-39l-334 -373h31q147 0 235.5 -68t88.5 -182q0 -117 -92.5 -188.5t-245.5 -71.5q-152 0 -258 45z" />
<glyph unicode="&#xb4;" horiz-adv-x="585" d="M258 1266l234 331h83l-253 -331h-64z" />
<glyph unicode="&#xb6;" horiz-adv-x="1140" d="M63 1198q0 143 79.5 230.5t209.5 87.5h717v-58h-201v-1909h-63v1909h-316v-1909h-63v1325h-98q-120 0 -192.5 89t-72.5 235z" />
<glyph unicode="&#xb7;" horiz-adv-x="438" d="M160 588v129h121v-129h-121z" />
<glyph unicode="&#xb8;" horiz-adv-x="493" d="M47 -397q79 -31 166 -31q82 0 131 37t49 98q0 58 -48 93.5t-126 35.5h-45l-14 33l127 147l49 -16l-111 -125h8q99 0 159.5 -46.5t60.5 -121.5q0 -80 -64.5 -129t-169.5 -49q-96 0 -172 31v43z" />
<glyph unicode="&#xb9;" horiz-adv-x="731" d="M78 819v49h313v809h-252l6 52h306v-861h219v-49h-592z" />
<glyph unicode="&#xba;" horiz-adv-x="903" d="M166 1204q0 149 79 240.5t208 91.5t206.5 -91t77.5 -241q0 -152 -77.5 -244t-206.5 -92t-208 92t-79 244zM186 647v47h531v-47h-531zM221 1204q0 -130 64 -209.5t168 -79.5q103 0 165 79t62 210q0 129 -62 208t-165 79q-104 0 -168 -79t-64 -208z" />
<glyph unicode="&#xbb;" horiz-adv-x="974" d="M106 100l316 453l-316 453h74l316 -453l-316 -453h-74zM487 100l316 453l-316 453h74l316 -453l-316 -453h-74z" />
<glyph unicode="&#xbc;" horiz-adv-x="1794" d="M84 606v49h313v809h-252l7 52h305v-861h219v-49h-592zM467 6l811 1530l53 -27l-811 -1529zM1085 238v53l433 618h81v-622h160v-49h-160v-238h-59v238h-455zM1143 287h397v567z" />
<glyph unicode="&#xbd;" horiz-adv-x="1794" d="M84 606v49h313v809h-252l7 52h305v-861h219v-49h-592zM467 6l811 1530l53 -27l-811 -1529zM1130 0v41l295 295q37 37 55.5 56.5t52.5 60t51 71.5t31.5 73.5t14.5 82.5q0 89 -56.5 139.5t-150.5 50.5q-64 0 -142.5 -20t-141.5 -53v47q62 35 140.5 56.5t147.5 21.5 q119 0 191 -63.5t72 -170.5q0 -56 -19 -110.5t-57 -106.5t-70.5 -88.5t-83.5 -85.5l-252 -248h521l-7 -49h-592z" />
<glyph unicode="&#xbe;" horiz-adv-x="1794" d="M61 639v51q110 -45 252 -45q127 0 205 57.5t78 151.5q0 92 -75.5 149.5t-198.5 57.5h-70l-19 37l322 366h-485v52h567v-39l-334 -373h31q146 0 234.5 -68t88.5 -182q0 -117 -92.5 -188.5t-245.5 -71.5q-152 0 -258 45zM467 6l811 1530l53 -27l-811 -1529zM1085 238v53 l433 618h81v-622h160v-49h-160v-238h-59v238h-455zM1143 287h397v567z" />
<glyph unicode="&#xbf;" horiz-adv-x="1007" d="M84 -84q0 70 15 130t38 105t64 92t78.5 80.5t95.5 79.5q81 64 130.5 162.5t49.5 194.5h55q0 -107 -52 -213.5t-138 -177.5q-68 -56 -106 -92.5t-80 -92t-61 -119.5t-19 -143q0 -155 100 -245.5t266 -90.5q100 0 218.5 31.5t213.5 83.5v-57q-88 -52 -208.5 -83.5 t-227.5 -31.5q-195 0 -313.5 105t-118.5 282zM528 950v119h107v-119h-107z" />
<glyph unicode="&#xc0;" horiz-adv-x="1337" d="M29 0l598 1516h84l598 -1516h-72l-172 444h-791l-172 -444h-73zM297 502h745l-372 956zM391 1921h84l234 -272h-64z" />
<glyph unicode="&#xc1;" horiz-adv-x="1337" d="M29 0l598 1516h84l598 -1516h-72l-172 444h-791l-172 -444h-73zM297 502h745l-372 956zM631 1649l233 272h84l-254 -272h-63z" />
<glyph unicode="&#xc2;" horiz-adv-x="1337" d="M29 0l598 1516h84l598 -1516h-72l-172 444h-791l-172 -444h-73zM297 502h745l-372 956zM401 1649l236 272h68l233 -272h-64l-204 239l-203 -239h-66z" />
<glyph unicode="&#xc3;" horiz-adv-x="1337" d="M29 0l598 1516h84l598 -1516h-72l-172 444h-791l-172 -444h-73zM297 502h745l-372 956zM354 1673q0 91 47 148t119 57q36 0 69.5 -17.5t60 -42t52.5 -49t55.5 -42t59.5 -17.5q47 0 80 41t33 107h49q0 -92 -47.5 -148.5t-118.5 -56.5q-43 0 -85.5 26t-71.5 57t-66.5 57 t-71.5 26q-47 0 -81 -41t-34 -105h-49z" />
<glyph unicode="&#xc4;" horiz-adv-x="1337" d="M29 0l598 1516h84l598 -1516h-72l-172 444h-791l-172 -444h-73zM297 502h745l-372 956zM475 1649v260h66v-260h-66zM797 1649v260h65v-260h-65z" />
<glyph unicode="&#xc5;" horiz-adv-x="1337" d="M29 0l598 1516h84l598 -1516h-72l-172 444h-791l-172 -444h-73zM297 502h745l-372 956zM473 1821q0 83 54.5 134.5t142.5 51.5q86 0 140 -51.5t54 -134.5t-54 -135t-140 -52q-88 0 -142.5 52t-54.5 135zM528 1821q0 -63 39.5 -101.5t102.5 -38.5t101 38.5t38 101.5 t-38 101t-101 38t-102.5 -38t-39.5 -101z" />
<glyph unicode="&#xc6;" horiz-adv-x="1849" d="M0 0l811 1516h922l-9 -58h-802v-653h749v-57h-749v-691h829v-57h-897v444h-543l-237 -444h-74zM342 502h512v954z" />
<glyph unicode="&#xc7;" horiz-adv-x="1269" d="M129 760q0 230 75.5 406.5t213.5 273t317 96.5q116 0 236 -32t200 -83v-61q-82 54 -200 86.5t-232 32.5q-241 0 -388.5 -197t-147.5 -520q0 -326 147.5 -525.5t388.5 -199.5q121 0 245.5 35t207.5 92v-60q-70 -49 -177 -81.5t-218 -40.5l-95 -107h9q99 0 159 -46.5 t60 -121.5q0 -80 -64.5 -129t-169.5 -49q-96 0 -172 31v43q79 -31 166 -31q82 0 131 37t49 98q0 58 -48 93.5t-126 35.5h-45l-14 33l96 111q-181 1 -318 98t-211.5 274t-74.5 408z" />
<glyph unicode="&#xc8;" horiz-adv-x="1212" d="M217 0v1516h879l-9 -58h-802v-653h749v-57h-749v-691h829v-57h-897zM362 1921h84l234 -272h-64z" />
<glyph unicode="&#xc9;" horiz-adv-x="1212" d="M217 0v1516h879l-9 -58h-802v-653h749v-57h-749v-691h829v-57h-897zM602 1649l234 272h84l-254 -272h-64z" />
<glyph unicode="&#xca;" horiz-adv-x="1212" d="M217 0v1516h879l-9 -58h-802v-653h749v-57h-749v-691h829v-57h-897zM373 1649l235 272h68l233 -272h-63l-205 239l-203 -239h-65z" />
<glyph unicode="&#xcb;" horiz-adv-x="1212" d="M217 0v1516h879l-9 -58h-802v-653h749v-57h-749v-691h829v-57h-897zM446 1649v260h66v-260h-66zM768 1649v260h66v-260h-66z" />
<glyph unicode="&#xcc;" horiz-adv-x="499" d="M-27 1921h84l234 -272h-64zM217 0v1516h68v-1516h-68z" />
<glyph unicode="&#xcd;" horiz-adv-x="499" d="M213 1649l233 272h84l-254 -272h-63zM217 0v1516h68v-1516h-68z" />
<glyph unicode="&#xce;" horiz-adv-x="499" d="M-16 1649l235 272h68l233 -272h-63l-205 239l-203 -239h-65zM217 0v1516h68v-1516h-68z" />
<glyph unicode="&#xcf;" horiz-adv-x="499" d="M57 1649v260h66v-260h-66zM217 0v1516h68v-1516h-68zM379 1649v260h65v-260h-65z" />
<glyph unicode="&#xd0;" horiz-adv-x="1376" d="M55 737v51h162v728h352q306 0 493 -210t187 -554q0 -338 -187 -545t-493 -207h-352v737h-162zM285 57h268q281 0 454 191.5t173 503.5q0 210 -78 370.5t-220.5 248t-328.5 87.5h-268v-670h411v-51h-411v-680z" />
<glyph unicode="&#xd1;" horiz-adv-x="1460" d="M217 0v1516h53l908 -1387l-2 1387h67v-1516h-53l-907 1386l2 -1386h-68zM395 1673q0 91 47.5 148t118.5 57q36 0 69.5 -17.5t60 -42t52.5 -49t55.5 -42t59.5 -17.5q47 0 80 41t33 107h49q0 -92 -47.5 -148.5t-118.5 -56.5q-43 0 -85.5 26t-71.5 57t-66.5 57t-71.5 26 q-47 0 -81 -41t-34 -105h-49z" />
<glyph unicode="&#xd2;" horiz-adv-x="1503" d="M127 758q0 350 172 564t453 214q282 0 453 -213.5t171 -564.5t-171 -564.5t-453 -213.5q-281 0 -453 214t-172 564zM201 758q0 -214 68.5 -378t194 -253.5t288.5 -89.5q249 0 401 198.5t152 522.5t-152 522.5t-401 198.5q-163 0 -288.5 -89.5t-194 -253.5t-68.5 -378z M473 1921h84l234 -272h-64z" />
<glyph unicode="&#xd3;" horiz-adv-x="1503" d="M127 758q0 350 172 564t453 214q282 0 453 -213.5t171 -564.5t-171 -564.5t-453 -213.5q-281 0 -453 214t-172 564zM201 758q0 -214 68.5 -378t194 -253.5t288.5 -89.5q249 0 401 198.5t152 522.5t-152 522.5t-401 198.5q-163 0 -288.5 -89.5t-194 -253.5t-68.5 -378z M713 1649l233 272h84l-254 -272h-63z" />
<glyph unicode="&#xd4;" horiz-adv-x="1503" d="M127 758q0 350 172 564t453 214q282 0 453 -213.5t171 -564.5t-171 -564.5t-453 -213.5q-281 0 -453 214t-172 564zM201 758q0 -214 68.5 -378t194 -253.5t288.5 -89.5q249 0 401 198.5t152 522.5t-152 522.5t-401 198.5q-163 0 -288.5 -89.5t-194 -253.5t-68.5 -378z M483 1649l236 272h67l234 -272h-64l-204 239l-203 -239h-66z" />
<glyph unicode="&#xd5;" horiz-adv-x="1503" d="M127 758q0 350 172 564t453 214q282 0 453 -213.5t171 -564.5t-171 -564.5t-453 -213.5q-281 0 -453 214t-172 564zM201 758q0 -214 68.5 -378t194 -253.5t288.5 -89.5q249 0 401 198.5t152 522.5t-152 522.5t-401 198.5q-163 0 -288.5 -89.5t-194 -253.5t-68.5 -378z M436 1673q0 91 47 148t119 57q36 0 69.5 -17.5t60 -42t52.5 -49t55.5 -42t59.5 -17.5q47 0 80 41t33 107h49q0 -92 -47.5 -148.5t-118.5 -56.5q-43 0 -85.5 26t-71.5 57t-66.5 57t-71.5 26q-47 0 -81 -41t-34 -105h-49z" />
<glyph unicode="&#xd6;" horiz-adv-x="1503" d="M127 758q0 350 172 564t453 214q282 0 453 -213.5t171 -564.5t-171 -564.5t-453 -213.5q-281 0 -453 214t-172 564zM201 758q0 -214 68.5 -378t194 -253.5t288.5 -89.5q249 0 401 198.5t152 522.5t-152 522.5t-401 198.5q-163 0 -288.5 -89.5t-194 -253.5t-68.5 -378z M557 1649v260h66v-260h-66zM879 1649v260h65v-260h-65z" />
<glyph unicode="&#xd7;" d="M186 322l385 385l-385 385l41 38l385 -382l381 380l41 -38l-383 -383l383 -383l-41 -39l-381 383l-385 -385z" />
<glyph unicode="&#xd8;" horiz-adv-x="1519" d="M106 20l175 209q-146 211 -146 529q0 350 172 564t453 214q269 0 440 -199l166 199l45 -41l-172 -207q145 -210 145 -530q0 -351 -171 -564.5t-453 -213.5q-271 0 -443 200l-167 -200zM209 758q0 -279 117 -473l831 999q-150 195 -397 195q-163 0 -288.5 -89.5 t-194 -253.5t-68.5 -378zM362 233q151 -196 398 -196q249 0 401 198.5t152 522.5q0 282 -119 475z" />
<glyph unicode="&#xd9;" horiz-adv-x="1425" d="M201 512v1004h67v-998q0 -216 122.5 -348.5t322.5 -132.5t322 132t122 349v998h68v-1004q0 -239 -141 -385.5t-371 -146.5t-371 146.5t-141 385.5zM434 1921h84l234 -272h-64z" />
<glyph unicode="&#xda;" horiz-adv-x="1425" d="M201 512v1004h67v-998q0 -216 122.5 -348.5t322.5 -132.5t322 132t122 349v998h68v-1004q0 -239 -141 -385.5t-371 -146.5t-371 146.5t-141 385.5zM674 1649l233 272h84l-254 -272h-63z" />
<glyph unicode="&#xdb;" horiz-adv-x="1425" d="M201 512v1004h67v-998q0 -216 122.5 -348.5t322.5 -132.5t322 132t122 349v998h68v-1004q0 -239 -141 -385.5t-371 -146.5t-371 146.5t-141 385.5zM444 1649l236 272h68l233 -272h-63l-205 239l-203 -239h-66z" />
<glyph unicode="&#xdc;" horiz-adv-x="1425" d="M201 512v1004h67v-998q0 -216 122.5 -348.5t322.5 -132.5t322 132t122 349v998h68v-1004q0 -239 -141 -385.5t-371 -146.5t-371 146.5t-141 385.5zM518 1649v260h66v-260h-66zM840 1649v260h65v-260h-65z" />
<glyph unicode="&#xdd;" horiz-adv-x="1185" d="M41 1516h78l475 -797l471 797h80l-518 -863v-653h-66v653zM557 1649l234 272h83l-253 -272h-64z" />
<glyph unicode="&#xde;" horiz-adv-x="1316" d="M217 0v1516h68v-285h473q201 0 323.5 -121.5t122.5 -321.5q0 -201 -122 -323.5t-320 -122.5h-477v-342h-68zM285 399h458q175 0 283.5 107t108.5 280t-108.5 280.5t-283.5 107.5h-458v-775z" />
<glyph unicode="&#xdf;" horiz-adv-x="1202" d="M178 0v1270q0 157 103 252.5t270 95.5q169 0 271 -95.5t102 -252.5q0 -122 -55.5 -209t-153.5 -121q173 -34 275 -161t102 -314q0 -218 -132.5 -351.5t-347.5 -133.5q-70 0 -135 22l-10 53q56 -20 133 -20q191 0 307.5 120t116.5 318q0 197 -117.5 317.5t-310.5 120.5v52 q119 0 190.5 82.5t71.5 218.5q0 135 -84.5 218t-222.5 83q-139 0 -225 -83t-86 -218v-1264h-62z" />
<glyph unicode="&#xe0;" horiz-adv-x="1067" d="M86 274q0 155 100 235.5t291 80.5h359v115q0 163 -83.5 246t-246.5 83q-186 0 -336 -69v55q149 70 346 70q187 0 284 -93.5t97 -275.5v-721h-57l-4 299q-49 -147 -170.5 -233t-274.5 -86q-305 0 -305 294zM152 279q0 -123 65 -185.5t191 -62.5q75 0 150 31.5t137.5 88 t101.5 147t39 198.5v45h-351q-163 0 -248 -67t-85 -195zM248 1597h84l233 -331h-63z" />
<glyph unicode="&#xe1;" horiz-adv-x="1067" d="M86 274q0 155 100 235.5t291 80.5h359v115q0 163 -83.5 246t-246.5 83q-186 0 -336 -69v55q149 70 346 70q187 0 284 -93.5t97 -275.5v-721h-57l-4 299q-49 -147 -170.5 -233t-274.5 -86q-305 0 -305 294zM152 279q0 -123 65 -185.5t191 -62.5q75 0 150 31.5t137.5 88 t101.5 147t39 198.5v45h-351q-163 0 -248 -67t-85 -195zM487 1266l234 331h84l-254 -331h-64z" />
<glyph unicode="&#xe2;" horiz-adv-x="1067" d="M86 274q0 155 100 235.5t291 80.5h359v115q0 163 -83.5 246t-246.5 83q-186 0 -336 -69v55q149 70 346 70q187 0 284 -93.5t97 -275.5v-721h-57l-4 299q-49 -147 -170.5 -233t-274.5 -86q-305 0 -305 294zM152 279q0 -123 65 -185.5t191 -62.5q75 0 150 31.5t137.5 88 t101.5 147t39 198.5v45h-351q-163 0 -248 -67t-85 -195zM258 1266l236 331h67l234 -331h-64l-205 290l-202 -290h-66z" />
<glyph unicode="&#xe3;" horiz-adv-x="1067" d="M86 274q0 155 100 235.5t291 80.5h359v115q0 163 -83.5 246t-246.5 83q-186 0 -336 -69v55q149 70 346 70q187 0 284 -93.5t97 -275.5v-721h-57l-4 299q-49 -147 -170.5 -233t-274.5 -86q-305 0 -305 294zM152 279q0 -123 65 -185.5t191 -62.5q75 0 150 31.5t137.5 88 t101.5 147t39 198.5v45h-351q-163 0 -248 -67t-85 -195zM211 1337q0 91 47.5 148t118.5 57q36 0 69.5 -17t60 -41.5t52.5 -49t55.5 -41.5t59.5 -17q47 0 79.5 40t32.5 106h50q0 -92 -47.5 -148.5t-118.5 -56.5q-43 0 -85.5 26.5t-71.5 57.5t-66.5 57.5t-71.5 26.5 q-47 0 -81 -41t-34 -107h-49z" />
<glyph unicode="&#xe4;" horiz-adv-x="1067" d="M86 274q0 155 100 235.5t291 80.5h359v115q0 163 -83.5 246t-246.5 83q-186 0 -336 -69v55q149 70 346 70q187 0 284 -93.5t97 -275.5v-721h-57l-4 299q-49 -147 -170.5 -233t-274.5 -86q-305 0 -305 294zM152 279q0 -123 65 -185.5t191 -62.5q75 0 150 31.5t137.5 88 t101.5 147t39 198.5v45h-351q-163 0 -248 -67t-85 -195zM332 1337v260h65v-260h-65zM653 1337v260h66v-260h-66z" />
<glyph unicode="&#xe5;" horiz-adv-x="1067" d="M86 274q0 155 100 235.5t291 80.5h359v115q0 163 -83.5 246t-246.5 83q-186 0 -336 -69v55q149 70 346 70q187 0 284 -93.5t97 -275.5v-721h-57l-4 299q-49 -147 -170.5 -233t-274.5 -86q-305 0 -305 294zM152 279q0 -123 65 -185.5t191 -62.5q75 0 150 31.5t137.5 88 t101.5 147t39 198.5v45h-351q-163 0 -248 -67t-85 -195zM330 1432q0 84 54 135t142 51q87 0 141 -51t54 -135q0 -83 -54 -134t-141 -51q-88 0 -142 51t-54 134zM385 1432q0 -63 39 -101.5t102 -38.5t101.5 38.5t38.5 101.5t-38.5 102t-101.5 39t-102 -39t-39 -102z" />
<glyph unicode="&#xe6;" horiz-adv-x="1800" d="M86 274q0 155 100 235.5t291 80.5h359v115q0 163 -83.5 246t-246.5 83q-186 0 -336 -69v55q149 70 346 70q166 0 260 -75.5t111 -223.5q50 140 155 219.5t248 79.5q184 0 296 -146t112 -383v-22h-797q5 -249 114 -377.5t318 -128.5q178 0 324 78l-4 -58 q-140 -73 -328 -73q-190 0 -306 96.5t-153 285.5q-42 -172 -175.5 -277t-289.5 -105q-315 0 -315 294zM152 279q0 -123 65 -185.5t191 -62.5q75 0 150 31.5t137.5 88t101.5 147t39 198.5v45h-351q-163 0 -248 -67t-85 -195zM901 590h733q-3 201 -98.5 322.5t-249.5 121.5 q-167 0 -271.5 -121t-113.5 -323z" />
<glyph unicode="&#xe7;" horiz-adv-x="970" d="M115 537q0 248 126.5 400.5t333.5 152.5q77 0 160 -19.5t139 -50.5v-59q-59 32 -141.5 52.5t-157.5 20.5q-177 0 -285 -137.5t-108 -361.5q0 -225 114 -362.5t300 -137.5q79 0 161 23.5t138 62.5v-58q-51 -34 -127.5 -56t-155.5 -27l-92 -105h8q99 0 159.5 -46.5 t60.5 -121.5q0 -80 -64.5 -129t-169.5 -49q-96 0 -172 31v43q79 -31 166 -31q82 0 131 37t49 98q0 58 -48 93.5t-126 35.5h-45l-14 33l96 113q-197 12 -316.5 163t-119.5 392z" />
<glyph unicode="&#xe8;" horiz-adv-x="1081" d="M117 555q0 240 125 387.5t329 147.5q184 0 297 -146t113 -383v-24h-799q5 -248 115 -376t319 -128q178 0 324 78l-10 -60q-139 -71 -322 -71q-241 0 -366 146t-125 429zM182 586h733q-1 202 -97 325t-251 123q-167 0 -272 -122.5t-113 -325.5zM272 1597h84l234 -331h-64z " />
<glyph unicode="&#xe9;" horiz-adv-x="1081" d="M117 555q0 240 125 387.5t329 147.5q184 0 297 -146t113 -383v-24h-799q5 -248 115 -376t319 -128q178 0 324 78l-10 -60q-139 -71 -322 -71q-241 0 -366 146t-125 429zM182 586h733q-1 202 -97 325t-251 123q-167 0 -272 -122.5t-113 -325.5zM512 1266l233 331h84 l-254 -331h-63z" />
<glyph unicode="&#xea;" horiz-adv-x="1081" d="M117 555q0 240 125 387.5t329 147.5q184 0 297 -146t113 -383v-24h-799q5 -248 115 -376t319 -128q178 0 324 78l-10 -60q-139 -71 -322 -71q-241 0 -366 146t-125 429zM182 586h733q-1 202 -97 325t-251 123q-167 0 -272 -122.5t-113 -325.5zM283 1266l235 331h68 l233 -331h-63l-205 290l-203 -290h-65z" />
<glyph unicode="&#xeb;" horiz-adv-x="1081" d="M117 555q0 240 125 387.5t329 147.5q184 0 297 -146t113 -383v-24h-799q5 -248 115 -376t319 -128q178 0 324 78l-10 -60q-139 -71 -322 -71q-241 0 -366 146t-125 429zM182 586h733q-1 202 -97 325t-251 123q-167 0 -272 -122.5t-113 -325.5zM356 1337v260h66v-260h-66z M678 1337v260h65v-260h-65z" />
<glyph unicode="&#xec;" horiz-adv-x="425" d="M-66 1597h84l234 -331h-64zM182 0v1069h62v-1069h-62z" />
<glyph unicode="&#xed;" horiz-adv-x="425" d="M174 1266l234 331h84l-254 -331h-64zM182 0v1069h62v-1069h-62z" />
<glyph unicode="&#xee;" horiz-adv-x="425" d="M-55 1266l235 331h68l233 -331h-63l-205 290l-203 -290h-65zM182 0v1069h62v-1069h-62z" />
<glyph unicode="&#xef;" horiz-adv-x="425" d="M18 1337v260h66v-260h-66zM182 0v1069h62v-1069h-62zM340 1337v260h66v-260h-66z" />
<glyph unicode="&#xf0;" horiz-adv-x="1173" d="M115 535q0 249 125 400.5t329 151.5q243 0 367 -200q-103 295 -377 532l-174 -129l-41 31l176 131q-82 68 -184 131l51 35q93 -58 180 -129l172 129l41 -33l-172 -129q216 -185 330.5 -409.5t114.5 -473.5q0 -274 -128 -433.5t-341 -159.5q-212 0 -340.5 152t-128.5 403z M182 535q0 -226 110 -363t292 -137t292.5 137t110.5 363q0 224 -111.5 361.5t-291.5 137.5q-181 0 -291.5 -137.5t-110.5 -361.5z" />
<glyph unicode="&#xf1;" horiz-adv-x="1181" d="M178 0v1069h58l4 -266q43 135 150 211t276 76q171 0 259.5 -105.5t88.5 -308.5v-676h-62v657q0 186 -77 281.5t-228 95.5q-183 0 -295 -115t-112 -305v-614h-62zM283 1337q0 91 47.5 148t118.5 57q43 0 85 -26t70.5 -57t66.5 -57t74 -26q47 0 80 40t33 106h49 q0 -92 -47.5 -148.5t-118.5 -56.5q-43 0 -85.5 26.5t-71.5 57.5t-66.5 57.5t-71.5 26.5q-47 0 -80.5 -41t-33.5 -107h-49z" />
<glyph unicode="&#xf2;" horiz-adv-x="1167" d="M115 535q0 249 129 402t340 153q212 0 340.5 -152.5t128.5 -402.5q0 -251 -128.5 -403t-340.5 -152q-211 0 -340 152.5t-129 402.5zM182 535q0 -225 111 -362.5t291 -137.5q182 0 292.5 137t110.5 363q0 224 -111 361.5t-292 137.5q-180 0 -291 -137.5t-111 -361.5z M305 1597h84l234 -331h-64z" />
<glyph unicode="&#xf3;" horiz-adv-x="1167" d="M115 535q0 249 129 402t340 153q212 0 340.5 -152.5t128.5 -402.5q0 -251 -128.5 -403t-340.5 -152q-211 0 -340 152.5t-129 402.5zM182 535q0 -225 111 -362.5t291 -137.5q182 0 292.5 137t110.5 363q0 224 -111 361.5t-292 137.5q-180 0 -291 -137.5t-111 -361.5z M545 1266l233 331h84l-254 -331h-63z" />
<glyph unicode="&#xf4;" horiz-adv-x="1167" d="M115 535q0 249 129 402t340 153q212 0 340.5 -152.5t128.5 -402.5q0 -251 -128.5 -403t-340.5 -152q-211 0 -340 152.5t-129 402.5zM182 535q0 -225 111 -362.5t291 -137.5q182 0 292.5 137t110.5 363q0 224 -111 361.5t-292 137.5q-180 0 -291 -137.5t-111 -361.5z M315 1266l236 331h67l234 -331h-64l-204 290l-203 -290h-66z" />
<glyph unicode="&#xf5;" horiz-adv-x="1167" d="M115 535q0 249 129 402t340 153q212 0 340.5 -152.5t128.5 -402.5q0 -251 -128.5 -403t-340.5 -152q-211 0 -340 152.5t-129 402.5zM182 535q0 -225 111 -362.5t291 -137.5q182 0 292.5 137t110.5 363q0 224 -111 361.5t-292 137.5q-180 0 -291 -137.5t-111 -361.5z M268 1337q0 91 47 148t119 57q36 0 69.5 -17t60 -41.5t52.5 -49t55.5 -41.5t59.5 -17q47 0 80 40t33 106h49q0 -92 -47.5 -148.5t-118.5 -56.5q-43 0 -85.5 26.5t-71.5 57.5t-66.5 57.5t-71.5 26.5q-47 0 -81 -41t-34 -107h-49z" />
<glyph unicode="&#xf6;" horiz-adv-x="1167" d="M115 535q0 249 129 402t340 153q212 0 340.5 -152.5t128.5 -402.5q0 -251 -128.5 -403t-340.5 -152q-211 0 -340 152.5t-129 402.5zM182 535q0 -225 111 -362.5t291 -137.5q182 0 292.5 137t110.5 363q0 224 -111 361.5t-292 137.5q-180 0 -291 -137.5t-111 -361.5z M389 1337v260h66v-260h-66zM711 1337v260h65v-260h-65z" />
<glyph unicode="&#xf7;" d="M139 678v57h940v-57h-940zM557 258v117h107v-117h-107zM557 1036v117h107v-117h-107z" />
<glyph unicode="&#xf8;" horiz-adv-x="1175" d="M115 16l114 138q-110 151 -110 381q0 249 129 402t340 153q193 0 319 -129l109 129l45 -37l-115 -138q111 -152 111 -380q0 -251 -128.5 -403t-340.5 -152q-191 0 -320 129l-108 -129zM186 535q0 -199 86 -330l594 706q-110 123 -278 123q-180 0 -291 -137.5t-111 -361.5 zM309 158q110 -123 279 -123q182 0 292.5 137t110.5 363q0 199 -88 329z" />
<glyph unicode="&#xf9;" horiz-adv-x="1161" d="M168 393v676h61v-657q0 -377 295 -377q179 0 288.5 115t109.5 305v614h61v-1069h-57l-4 266q-43 -136 -146.5 -211t-269.5 -75q-167 0 -252.5 104.5t-85.5 308.5zM295 1597h84l233 -331h-63z" />
<glyph unicode="&#xfa;" horiz-adv-x="1161" d="M168 393v676h61v-657q0 -377 295 -377q179 0 288.5 115t109.5 305v614h61v-1069h-57l-4 266q-43 -136 -146.5 -211t-269.5 -75q-167 0 -252.5 104.5t-85.5 308.5zM535 1266l233 331h84l-254 -331h-63z" />
<glyph unicode="&#xfb;" horiz-adv-x="1161" d="M168 393v676h61v-657q0 -377 295 -377q179 0 288.5 115t109.5 305v614h61v-1069h-57l-4 266q-43 -136 -146.5 -211t-269.5 -75q-167 0 -252.5 104.5t-85.5 308.5zM305 1266l236 331h67l234 -331h-64l-205 290l-202 -290h-66z" />
<glyph unicode="&#xfc;" horiz-adv-x="1161" d="M168 393v676h61v-657q0 -377 295 -377q179 0 288.5 115t109.5 305v614h61v-1069h-57l-4 266q-43 -136 -146.5 -211t-269.5 -75q-167 0 -252.5 104.5t-85.5 308.5zM379 1337v260h65v-260h-65zM700 1337v260h66v-260h-66z" />
<glyph unicode="&#xfd;" horiz-adv-x="980" d="M57 1069h70l367 -997l370 997h68l-578 -1520h-65l172 451zM455 1266l233 331h84l-254 -331h-63z" />
<glyph unicode="&#xfe;" horiz-adv-x="1226" d="M178 -451v2050h62v-821q45 145 149.5 228.5t269.5 83.5q204 0 328.5 -153.5t124.5 -404.5q0 -249 -124.5 -400.5t-328.5 -151.5q-165 0 -269.5 82.5t-149.5 226.5v-740h-62zM240 535q0 -226 110 -363t293 -137q181 0 291 136t110 361q0 226 -110.5 364t-290.5 138 q-183 0 -293 -137t-110 -362z" />
<glyph unicode="&#xff;" horiz-adv-x="980" d="M57 1069h70l367 -997l370 997h68l-578 -1520h-65l172 451zM299 1337v260h66v-260h-66zM621 1337v260h65v-260h-65z" />
<glyph unicode="&#x131;" horiz-adv-x="425" d="M182 0v1069h62v-1069h-62z" />
<glyph unicode="&#x152;" horiz-adv-x="2070" d="M127 752q0 227 82 400.5t232 268.5t347 95h1166l-8 -58h-803v-653h749v-57h-749v-691h829v-57h-1184q-196 0 -346.5 93.5t-232.5 264.5t-82 394zM199 752q0 -312 166.5 -503.5t439.5 -191.5h270v1401h-270q-274 0 -440 -194t-166 -512z" />
<glyph unicode="&#x153;" horiz-adv-x="1951" d="M115 535q0 250 128.5 402.5t340.5 152.5q164 0 279 -101t157 -276q36 173 148.5 275t273.5 102q184 0 295.5 -146t111.5 -383v-24h-796q5 -248 115 -376t319 -128q178 0 321 78l-8 -58q-143 -73 -327 -73q-379 0 -453 382q-38 -178 -154.5 -280t-281.5 -102 q-212 0 -340.5 152t-128.5 403zM182 535q0 -225 111 -362.5t291 -137.5q182 0 292.5 137t110.5 363q0 224 -111 361.5t-292 137.5q-180 0 -291 -137.5t-111 -361.5zM1053 586h733q-1 202 -97 325t-251 123q-167 0 -272 -122.5t-113 -325.5z" />
<glyph unicode="&#x178;" horiz-adv-x="1185" d="M41 1516h78l475 -797l471 797h80l-518 -863v-653h-66v653zM401 1649v260h66v-260h-66zM723 1649v260h65v-260h-65z" />
<glyph unicode="&#x237;" horiz-adv-x="434" d="M-139 -387q60 -31 137 -31q88 0 142.5 58t54.5 153v1276h61v-1286q0 -115 -67 -184.5t-177 -69.5q-83 0 -143 31z" />
<glyph unicode="&#x2c6;" horiz-adv-x="724" d="M94 1266l236 331h67l234 -331h-64l-205 290l-202 -290h-66z" />
<glyph unicode="&#x2dc;" horiz-adv-x="860" d="M117 1337q0 91 47.5 148t118.5 57q36 0 69.5 -17t60 -41.5t52.5 -49t55.5 -41.5t59.5 -17q47 0 79.5 40t32.5 106h49q0 -92 -47.5 -148.5t-118.5 -56.5q-43 0 -85.5 26.5t-71 57.5t-66 57.5t-71.5 26.5q-47 0 -81 -41t-34 -107h-49z" />
<glyph unicode="&#x2000;" horiz-adv-x="1003" />
<glyph unicode="&#x2001;" horiz-adv-x="2007" />
<glyph unicode="&#x2002;" horiz-adv-x="1003" />
<glyph unicode="&#x2003;" horiz-adv-x="2007" />
<glyph unicode="&#x2004;" horiz-adv-x="669" />
<glyph unicode="&#x2005;" horiz-adv-x="501" />
<glyph unicode="&#x2006;" horiz-adv-x="334" />
<glyph unicode="&#x2007;" horiz-adv-x="334" />
<glyph unicode="&#x2008;" horiz-adv-x="250" />
<glyph unicode="&#x2009;" horiz-adv-x="401" />
<glyph unicode="&#x200a;" horiz-adv-x="111" />
<glyph unicode="&#x2010;" horiz-adv-x="866" d="M158 557v53h551v-53h-551z" />
<glyph unicode="&#x2011;" horiz-adv-x="866" d="M158 557v53h551v-53h-551z" />
<glyph unicode="&#x2012;" horiz-adv-x="866" d="M158 557v53h551v-53h-551z" />
<glyph unicode="&#x2013;" horiz-adv-x="1267" d="M158 557v53h952v-53h-952z" />
<glyph unicode="&#x2014;" horiz-adv-x="1957" d="M158 557v53h1642v-53h-1642z" />
<glyph unicode="&#x2018;" horiz-adv-x="430" d="M141 1104v125q0 138 48 222.5t126 84.5l7 -39q-56 0 -90.5 -72.5t-34.5 -191.5h67v-129h-123z" />
<glyph unicode="&#x2019;" horiz-adv-x="425" d="M123 1124q56 0 90.5 73t34.5 192h-68v129h123v-125q0 -138 -48 -223t-126 -85z" />
<glyph unicode="&#x201a;" horiz-adv-x="421" d="M104 -264q56 0 90.5 72.5t34.5 191.5h-67v129h123v-125q0 -138 -48 -222.5t-126 -84.5z" />
<glyph unicode="&#x201c;" horiz-adv-x="655" d="M143 1104v125q0 138 48 222.5t126 84.5l7 -39q-56 0 -90.5 -72.5t-34.5 -191.5h67v-129h-123zM367 1104v125q0 138 48 222.5t126 84.5l6 -39q-56 0 -90.5 -72.5t-34.5 -191.5h67v-129h-122z" />
<glyph unicode="&#x201d;" horiz-adv-x="649" d="M123 1124q56 0 90.5 73t34.5 192h-68v129h123v-125q0 -138 -48 -223t-126 -85zM346 1124q56 0 90.5 73t34.5 192h-68v129h123v-125q0 -138 -48 -223t-126 -85z" />
<glyph unicode="&#x201e;" horiz-adv-x="645" d="M104 -264q56 0 90.5 72.5t34.5 191.5h-67v129h123v-125q0 -138 -48 -222.5t-126 -84.5zM328 -264q56 0 90.5 72.5t34.5 191.5h-68v129h123v-125q0 -138 -48 -222.5t-126 -84.5z" />
<glyph unicode="&#x2022;" horiz-adv-x="638" d="M205 541v247h229v-247h-229z" />
<glyph unicode="&#x2026;" horiz-adv-x="1024" d="M150 0v129h120v-129h-120zM453 0v129h120v-129h-120zM756 0v129h121v-129h-121z" />
<glyph unicode="&#x202f;" horiz-adv-x="401" />
<glyph unicode="&#x2039;" horiz-adv-x="593" d="M100 553l314 453h73l-315 -453l315 -453h-73z" />
<glyph unicode="&#x203a;" horiz-adv-x="593" d="M106 100l316 453l-316 453h74l316 -453l-316 -453h-74z" />
<glyph unicode="&#x2044;" horiz-adv-x="331" d="M-264 6l811 1530l53 -27l-811 -1529z" />
<glyph unicode="&#x205f;" horiz-adv-x="501" />
<glyph unicode="&#x2070;" horiz-adv-x="731" d="M51 1274q0 211 86.5 339t229.5 128q141 0 227 -128t86 -339t-86 -339t-227 -128q-143 0 -229.5 128t-86.5 339zM113 1274q0 -188 70 -302t184 -114q111 0 180 114t69 302t-69 302t-180 114q-114 0 -184 -114t-70 -302z" />
<glyph unicode="&#x2074;" horiz-adv-x="731" d="M29 1057v53l432 619h82v-623h159v-49h-159v-238h-60v238h-454zM86 1106h397v567z" />
<glyph unicode="&#x2075;" horiz-adv-x="731" d="M72 854v49q102 -45 258 -45q126 0 202 59.5t76 157.5q0 97 -70.5 157t-187.5 60q-96 0 -217 -28l-37 10l33 455h483l-6 -50h-424l-24 -364q117 24 200 24q141 0 226.5 -72.5t85.5 -191.5q0 -121 -92 -194.5t-240 -73.5q-170 0 -266 47z" />
<glyph unicode="&#x2076;" horiz-adv-x="731" d="M68 1137q0 272 121 438t319 166q48 0 115 -19l6 -47q-56 17 -113 17q-150 0 -249.5 -113t-127.5 -309q37 56 102.5 87.5t149.5 31.5q131 0 210 -79.5t79 -209.5q0 -132 -85 -212.5t-222 -80.5q-139 0 -222 89t-83 241zM129 1122q0 -119 67 -191.5t177 -72.5 q109 0 176 66.5t67 175.5t-67 176t-176 67q-110 0 -177 -60.5t-67 -160.5z" />
<glyph unicode="&#x2077;" horiz-adv-x="731" d="M63 1677v52h601v-41l-355 -869h-63l350 858h-533z" />
<glyph unicode="&#x2078;" horiz-adv-x="731" d="M47 1061q0 89 54.5 153t148.5 89q-78 23 -122 78t-44 130q0 104 77 167t204 63t203.5 -62.5t76.5 -165.5q0 -76 -44 -131.5t-122 -78.5q95 -25 149 -88.5t54 -151.5q0 -115 -88 -185.5t-229 -70.5t-229.5 70t-88.5 184zM109 1065q0 -94 71 -151.5t185 -57.5t185 57.5 t71 151.5q0 95 -71 153t-185 58t-185 -58t-71 -153zM145 1509q0 -85 60 -135.5t160 -50.5t159.5 50.5t59.5 135.5q0 82 -60 132.5t-159 50.5t-159.5 -50.5t-60.5 -132.5z" />
<glyph unicode="&#x2079;" horiz-adv-x="731" d="M59 1454q0 129 82.5 208t216.5 79q137 0 219 -88t82 -236q0 -275 -119.5 -442.5t-314.5 -167.5q-55 0 -114 18l-7 49q59 -18 113 -18q147 0 245 115t124 313q-36 -53 -100 -83t-146 -30q-126 0 -203.5 78t-77.5 205zM121 1454q0 -106 65.5 -171.5t171.5 -65.5 q108 0 173 59t65 156q0 117 -64.5 187.5t-173.5 70.5q-106 0 -171.5 -65t-65.5 -171z" />
<glyph unicode="&#x2080;" horiz-adv-x="731" d="M51 250q0 211 86.5 339t229.5 128q141 0 227 -128t86 -339t-86 -339t-227 -128q-143 0 -229.5 128t-86.5 339zM113 250q0 -188 70 -302t184 -114q111 0 180 114t69 302t-69 302t-180 114q-114 0 -184 -114t-70 -302z" />
<glyph unicode="&#x2081;" horiz-adv-x="731" d="M84 -156h313v809h-252l7 52h305v-861h219v-49h-592v49z" />
<glyph unicode="&#x2082;" horiz-adv-x="731" d="M68 -164l294 295q37 37 55.5 56.5t52.5 60t51 71.5t31.5 73.5t14.5 82.5q0 89 -56.5 140t-150.5 51q-64 0 -142 -20.5t-142 -53.5v47q61 35 140.5 56.5t148.5 21.5q119 0 190.5 -63.5t71.5 -170.5q0 -56 -19 -110.5t-57 -106.5t-70.5 -88.5t-83.5 -85.5l-252 -248h521 l-7 -49h-591v41z" />
<glyph unicode="&#x2083;" horiz-adv-x="731" d="M61 -121q110 -45 252 -45q127 0 205 57.5t78 151.5q0 92 -75.5 149.5t-198.5 57.5h-70l-19 37l322 366h-485v52h567v-39l-334 -373h31q146 0 234.5 -68t88.5 -182q0 -117 -92.5 -188.5t-245.5 -71.5q-152 0 -258 45v51z" />
<glyph unicode="&#x2084;" horiz-adv-x="731" d="M20 33v53l433 619h82v-623h159v-49h-159v-238h-60v238h-455zM78 82h397v567z" />
<glyph unicode="&#x2085;" horiz-adv-x="731" d="M76 -121q102 -45 258 -45q126 0 202 59.5t76 157.5q0 97 -70.5 157t-187.5 60q-96 0 -217 -28l-37 10l33 455h483l-6 -50h-424l-24 -364q117 24 200 24q141 0 226.5 -72.5t85.5 -191.5q0 -121 -92 -194.5t-240 -73.5q-170 0 -266 47v49z" />
<glyph unicode="&#x2086;" horiz-adv-x="731" d="M68 113q0 272 121 438t319 166q48 0 115 -19l6 -47q-56 17 -113 17q-150 0 -249.5 -113t-127.5 -309q37 56 102.5 87.5t149.5 31.5q131 0 210 -79.5t79 -209.5q0 -132 -85 -212.5t-222 -80.5q-139 0 -222 89t-83 241zM129 98q0 -119 67 -191.5t177 -72.5q109 0 176 66.5 t67 175.5t-67 176t-176 67q-110 0 -177 -60.5t-67 -160.5z" />
<glyph unicode="&#x2087;" horiz-adv-x="731" d="M61 653v52h601v-41l-355 -869h-63l350 858h-533z" />
<glyph unicode="&#x2088;" horiz-adv-x="731" d="M47 37q0 89 54.5 153t148.5 89q-78 23 -122 78t-44 130q0 104 77 167t204 63t203.5 -62.5t76.5 -165.5q0 -76 -44 -131.5t-122 -78.5q95 -25 149 -88.5t54 -151.5q0 -115 -88 -185.5t-229 -70.5t-229.5 70t-88.5 184zM109 41q0 -94 71 -151.5t185 -57.5t185 57.5 t71 151.5q0 95 -71 153t-185 58t-185 -58t-71 -153zM145 485q0 -85 60 -135.5t160 -50.5t159.5 50.5t59.5 135.5q0 82 -60 132.5t-159 50.5t-159.5 -50.5t-60.5 -132.5z" />
<glyph unicode="&#x2089;" horiz-adv-x="731" d="M59 430q0 129 82.5 208t216.5 79q137 0 219 -88t82 -236q0 -275 -119.5 -442.5t-314.5 -167.5q-55 0 -114 18l-7 49q59 -18 113 -18q147 0 245 115t124 313q-36 -53 -100 -83t-146 -30q-126 0 -203.5 78t-77.5 205zM121 430q0 -106 65.5 -171.5t171.5 -65.5q108 0 173 59 t65 156q0 117 -64.5 187.5t-173.5 70.5q-106 0 -171.5 -65t-65.5 -171z" />
<glyph unicode="&#x20ac;" d="M53 563v58h121q-6 67 -6 139q0 68 6 133h-121v57h129q40 270 188 428t367 158q104 0 211.5 -27t181.5 -71v-64q-70 47 -175 76t-205 29q-193 0 -325.5 -142.5t-170.5 -386.5h625l-9 -57h-624q-6 -65 -6 -131q0 -81 8 -141h561l-8 -58h-547q40 -244 167.5 -385t313.5 -141 q111 0 225 34t189 89v-62q-73 -54 -187 -86t-229 -32q-217 0 -363 156.5t-188 426.5h-129z" />
<glyph unicode="&#x2122;" horiz-adv-x="1325" d="M68 1561v36h430v-36h-193v-570h-45v570h-192zM582 991v606h57l229 -454l228 454h57v-606h-45l2 541l-229 -455h-27l-229 455l4 -541h-47z" />
<glyph unicode="&#x25fc;" horiz-adv-x="1064" d="M0 0v1065h1065v-1065h-1065z" />
<glyph horiz-adv-x="870" d="M72 102q97 -65 235 -65q131 0 212 84.5t81 220.5v1116h-500v58h568v-1182q0 -160 -97 -257t-256 -97q-142 0 -239 63zM334 1649l233 272h84l-254 -272h-63z" />
<glyph horiz-adv-x="1228" d="M115 532q0 251 124 404.5t328 153.5q165 0 270 -83.5t150 -228.5v47l6 244h58v-1069h-58l-6 244v45q-45 -144 -150 -226.5t-270 -82.5q-204 0 -328 151.5t-124 400.5zM182 532q0 -225 110.5 -361t291.5 -136q183 0 293 137t110 363q0 225 -110 362t-293 137 q-180 0 -291 -138t-111 -364z" />
<glyph horiz-adv-x="1228" d="M115 532q0 251 124 404.5t328 153.5q165 0 270 -83.5t150 -228.5v47l6 244h58v-1069h-58l-6 244v45q-45 -144 -150 -226.5t-270 -82.5q-204 0 -328 151.5t-124 400.5zM182 532q0 -225 110.5 -361t291.5 -136q183 0 293 137t110 363q0 225 -110 362t-293 137 q-180 0 -291 -138t-111 -364zM571 1266l234 331h84l-254 -331h-64z" />
<glyph horiz-adv-x="1228" d="M115 532q0 251 124 404.5t328 153.5q165 0 270 -83.5t150 -228.5v47l6 244h58v-1069h-58l-6 244v45q-45 -144 -150 -226.5t-270 -82.5q-204 0 -328 151.5t-124 400.5zM182 532q0 -225 110.5 -361t291.5 -136q183 0 293 137t110 363q0 225 -110 362t-293 137 q-180 0 -291 -138t-111 -364zM342 1266l236 331h67l234 -331h-64l-205 290l-202 -290h-66z" />
<glyph horiz-adv-x="1228" d="M115 532q0 251 124 404.5t328 153.5q165 0 270 -83.5t150 -228.5v47l6 244h58v-1069h-58l-6 244v45q-45 -144 -150 -226.5t-270 -82.5q-204 0 -328 151.5t-124 400.5zM182 532q0 -225 110.5 -361t291.5 -136q183 0 293 137t110 363q0 225 -110 362t-293 137 q-180 0 -291 -138t-111 -364zM416 1337v260h65v-260h-65zM737 1337v260h66v-260h-66z" />
<glyph horiz-adv-x="1228" d="M115 532q0 251 124 404.5t328 153.5q165 0 270 -83.5t150 -228.5v47l6 244h58v-1069h-58l-6 244v45q-45 -144 -150 -226.5t-270 -82.5q-204 0 -328 151.5t-124 400.5zM182 532q0 -225 110.5 -361t291.5 -136q183 0 293 137t110 363q0 225 -110 362t-293 137 q-180 0 -291 -138t-111 -364zM332 1597h84l233 -331h-63z" />
<glyph horiz-adv-x="1228" d="M115 532q0 251 124 404.5t328 153.5q165 0 270 -83.5t150 -228.5v47l6 244h58v-1069h-58l-6 244v45q-45 -144 -150 -226.5t-270 -82.5q-204 0 -328 151.5t-124 400.5zM182 532q0 -225 110.5 -361t291.5 -136q183 0 293 137t110 363q0 225 -110 362t-293 137 q-180 0 -291 -138t-111 -364zM414 1432q0 84 54 135t142 51q87 0 141 -51t54 -135q0 -83 -54 -134t-141 -51q-88 0 -142 51t-54 134zM469 1432q0 -63 39 -101.5t102 -38.5t101.5 38.5t38.5 101.5t-38.5 102t-101.5 39t-102 -39t-39 -102z" />
<glyph horiz-adv-x="1228" d="M115 532q0 251 124 404.5t328 153.5q165 0 270 -83.5t150 -228.5v47l6 244h58v-1069h-58l-6 244v45q-45 -144 -150 -226.5t-270 -82.5q-204 0 -328 151.5t-124 400.5zM182 532q0 -225 110.5 -361t291.5 -136q183 0 293 137t110 363q0 225 -110 362t-293 137 q-180 0 -291 -138t-111 -364zM295 1337q0 91 47.5 148t118.5 57q36 0 69.5 -17t60 -41.5t52.5 -49t55.5 -41.5t59.5 -17q47 0 79.5 40t32.5 106h50q0 -92 -47.5 -148.5t-118.5 -56.5q-43 0 -85.5 26.5t-71.5 57.5t-66.5 57.5t-71.5 26.5q-47 0 -81 -41t-34 -107h-49z" />
<glyph horiz-adv-x="1226" d="M115 532q0 251 124 404.5t328 153.5q165 0 270 -83.5t150 -228.5v47l4 244h58v-1028q0 -231 -136 -371.5t-360 -140.5q-99 0 -199.5 22.5t-163.5 57.5l-10 61q71 -39 171.5 -63.5t191.5 -24.5q200 0 322 129t122 340v238q-45 -144 -150 -226.5t-270 -82.5 q-204 0 -328 151.5t-124 400.5zM182 532q0 -225 110.5 -361t291.5 -136q183 0 293 137t110 363q0 225 -110 362t-293 137q-180 0 -291 -138t-111 -364z" />
<glyph horiz-adv-x="425" d="M180 1337v260h66v-260h-66zM182 0v1069h62v-1069h-62z" />
<glyph horiz-adv-x="434" d="M-139 -387q60 -31 137 -31q88 0 142.5 58t54.5 153v1276h61v-1286q0 -115 -67 -184.5t-177 -69.5q-83 0 -143 31zM186 1266l234 331h84l-254 -331h-64z" />
<glyph horiz-adv-x="1161" d="M168 393v676h61v-657q0 -377 295 -377q179 0 288.5 115t109.5 305v614h61v-1067q0 -214 -120.5 -343.5t-319.5 -129.5q-94 0 -188 14t-154 37l-8 58q64 -25 156.5 -40.5t182.5 -15.5q175 0 282.5 118.5t107.5 311.5v250q-43 -134 -147 -208t-269 -74q-167 0 -252.5 104.5 t-85.5 308.5z" />
<glyph horiz-adv-x="1161" d="M168 393v676h61v-657q0 -377 295 -377q179 0 288.5 115t109.5 305v614h61v-1067q0 -214 -120.5 -343.5t-319.5 -129.5q-94 0 -188 14t-154 37l-8 58q64 -25 156.5 -40.5t182.5 -15.5q175 0 282.5 118.5t107.5 311.5v250q-43 -134 -147 -208t-269 -74q-167 0 -252.5 104.5 t-85.5 308.5zM535 1266l233 331h84l-254 -331h-63z" />
<glyph horiz-adv-x="1161" d="M168 393v676h61v-657q0 -377 295 -377q179 0 288.5 115t109.5 305v614h61v-1067q0 -214 -120.5 -343.5t-319.5 -129.5q-94 0 -188 14t-154 37l-8 58q64 -25 156.5 -40.5t182.5 -15.5q175 0 282.5 118.5t107.5 311.5v250q-43 -134 -147 -208t-269 -74q-167 0 -252.5 104.5 t-85.5 308.5zM379 1337v260h65v-260h-65zM700 1337v260h66v-260h-66z" />
<glyph d="M94 637q0 295 142 476t374 181q230 0 372 -181t142 -476q0 -296 -141.5 -476.5t-372.5 -180.5q-232 0 -374 180.5t-142 476.5zM162 637q0 -272 123 -437t325 -165q201 0 324 165.5t123 436.5q0 270 -123 436t-324 166q-202 0 -325 -165.5t-123 -436.5z" />
<glyph d="M106 0v53h578v1168h-453l9 53h505v-1221h418v-53h-1057z" />
<glyph d="M100 0v47l535 416q49 38 79 63t79 69t79.5 81.5t62 84.5t47 97t15.5 100q0 126 -108 203.5t-283 77.5q-108 0 -231 -34.5t-215 -88.5v55q92 55 215 89t231 34q204 0 329.5 -90t125.5 -237q0 -68 -26.5 -137t-62.5 -121t-96 -111.5t-103.5 -95t-108.5 -84.5l-469 -365h931 l-10 -53h-1016z" />
<glyph d="M127 -74q70 -44 190 -71t244 -27q212 0 340.5 104t128.5 273q0 170 -130 275.5t-335 105.5h-131l-18 37l538 598h-786v53h866v-47l-534 -592h80q232 0 374 -118t142 -310q0 -195 -144.5 -313.5t-380.5 -118.5q-127 0 -246 26.5t-188 69.5z" />
<glyph d="M43 78v59l758 1137h86v-1143h280v-53h-280v-283h-62v283h-782zM102 131h723v1090z" />
<glyph d="M125 -94q78 -35 194.5 -56.5t233.5 -21.5q219 0 353 105t134 276q0 168 -125.5 272.5t-328.5 104.5q-173 0 -375 -54l-43 9l53 733h787l-9 -53h-723l-43 -629q188 45 363 45q230 0 371 -118t141 -310q0 -195 -152 -314.5t-397 -119.5q-121 0 -240 21.5t-194 56.5v53z" />
<glyph d="M117 518q0 303 90.5 534.5t255.5 357.5t381 126q93 0 188 -31l8 -57q-93 35 -186 35q-265 0 -442 -211.5t-219 -569.5q56 114 172.5 178t273.5 64q220 0 353.5 -132t133.5 -349t-138 -350t-365 -133q-228 0 -367 146.5t-139 391.5zM182 504q0 -212 121.5 -341.5 t319.5 -129.5q197 0 317.5 118.5t120.5 311.5q0 194 -120 313t-318 119t-319.5 -108t-121.5 -283z" />
<glyph d="M121 1221v53h991v-47l-584 -1432h-65l581 1426h-923z" />
<glyph d="M86 399q0 155 97.5 263t267.5 143q-142 36 -224 128.5t-82 223.5q0 170 128 274.5t337 104.5t337 -104t128 -273q0 -131 -81 -224.5t-222 -129.5q168 -35 265.5 -142.5t97.5 -261.5q0 -189 -144.5 -305t-380.5 -116t-380 115t-144 304zM152 406q0 -168 125.5 -270.5 t332.5 -102.5t333 103t126 270q0 169 -126 270.5t-333 101.5t-332.5 -101.5t-125.5 -270.5zM211 1153q0 -146 109.5 -235t289.5 -89t290 89t110 235q0 148 -110 239t-290 91t-289.5 -91t-109.5 -239z" />
<glyph d="M102 829q0 209 135.5 337t358.5 128q224 0 360 -141.5t136 -376.5q0 -298 -89 -525.5t-252 -351.5t-376 -124q-97 0 -189 30l-8 54q91 -31 187 -31q263 0 438 208.5t213 563.5q-55 -107 -168.5 -167t-267.5 -60q-215 0 -346.5 125.5t-131.5 330.5zM168 829 q0 -183 117.5 -295t310.5 -112t311.5 101.5t118.5 267.5q0 201 -118.5 324.5t-311.5 123.5t-310.5 -112.5t-117.5 -297.5z" />
<glyph d="M90 758q0 350 143.5 564t376.5 214t375.5 -214t142.5 -564t-142.5 -564t-375.5 -214t-376.5 214t-143.5 564zM164 758q0 -324 122.5 -522.5t323.5 -198.5q132 0 233 89.5t156.5 253.5t55.5 378t-55.5 378t-156.5 253.5t-233 89.5q-201 0 -323.5 -198.5t-122.5 -522.5z " />
<glyph d="M135 0v57h535v1401h-434l8 58h495v-1459h375v-57h-979z" />
<glyph d="M115 0v47l493 492l12 12q51 51 79 80.5t76.5 84t76 97.5t57.5 99t44 114t14 117q0 155 -105 245.5t-280 90.5q-104 0 -223.5 -37.5t-208.5 -98.5v58q84 61 203.5 98t230.5 37q205 0 329.5 -105t124.5 -282q0 -56 -13.5 -113t-32.5 -104t-53.5 -101.5t-62.5 -92.5 t-74.5 -90t-75 -81t-77.5 -78l-438 -432h891l-8 -57h-979z" />
<glyph d="M115 55v58q81 -32 197 -54t227 -22q221 0 356 103t135 270q0 163 -133 262.5t-350 99.5h-115l-24 47l567 639h-846v58h940v-48l-580 -643h70q245 0 395 -114t150 -301q0 -194 -153.5 -312t-405.5 -118q-116 0 -234 21.5t-196 53.5z" />
<glyph d="M41 408v63l766 1045h98v-1051h260v-57h-260v-408h-69v408h-795zM109 465h729v995z" />
<glyph d="M127 57v58q76 -35 194.5 -56.5t237.5 -21.5q218 0 350.5 106.5t132.5 280.5q0 171 -124 276t-328 105q-178 0 -375 -49l-47 10l53 750h805l-8 -58h-733l-43 -641q190 43 360 43q231 0 372.5 -120.5t141.5 -315.5q0 -199 -152.5 -321.5t-398.5 -122.5q-124 0 -243.5 21 t-194.5 56z" />
<glyph d="M117 518q0 303 90.5 534.5t255.5 357.5t381 126q93 0 188 -31l8 -57q-91 31 -186 31q-263 0 -438.5 -209t-216.5 -565q56 113 171 176t269 63q220 0 353.5 -132t133.5 -349t-138 -350t-365 -133q-228 0 -367 146.5t-139 391.5zM188 504q0 -210 120 -338.5t315 -128.5 q193 0 312.5 117.5t119.5 308.5q0 192 -119 310t-313 118q-195 0 -315 -107t-120 -280z" />
<glyph d="M111 1458v58h993v-48l-598 -1468h-76l596 1458h-915z" />
<glyph d="M86 399q0 153 95.5 261t260.5 145q-139 37 -218 129.5t-79 222.5q0 170 128 274.5t337 104.5t337 -104t128 -273q0 -131 -78.5 -224t-216.5 -130q164 -37 259.5 -144.5t95.5 -259.5q0 -189 -144.5 -305t-380.5 -116t-380 115t-144 304zM158 406q0 -166 124 -267.5 t328 -101.5q203 0 328 101.5t125 267.5t-125 268t-328 102q-204 0 -328 -102t-124 -268zM219 1153q0 -145 107 -233.5t284 -88.5t284 88.5t107 233.5q0 147 -107 236.5t-284 89.5t-284 -89.5t-107 -236.5z" />
<glyph d="M104 1063q0 212 136 342.5t358 130.5q223 0 359.5 -144.5t136.5 -383.5q0 -306 -89 -539.5t-252 -361t-376 -127.5q-97 0 -189 30l-8 58q91 -31 187 -31q260 0 433.5 213t211.5 575q-55 -110 -167 -171.5t-263 -61.5q-215 0 -346.5 129.5t-131.5 341.5zM176 1063 q0 -187 116.5 -302.5t305.5 -115.5q190 0 307 104t117 273q0 205 -116.5 331t-307.5 126q-189 0 -305.5 -115t-116.5 -301z" />
<glyph horiz-adv-x="731" d="M51 455q0 211 86.5 339t229.5 128q141 0 227 -128t86 -339t-86 -339t-227 -128q-143 0 -229.5 128t-86.5 339zM113 455q0 -188 70 -302t184 -114q111 0 180 114t69 302t-69 301.5t-180 113.5q-114 0 -184 -113.5t-70 -301.5z" />
<glyph horiz-adv-x="731" d="M84 0v49h313v809h-252l7 51h305v-860h219v-49h-592z" />
<glyph horiz-adv-x="731" d="M68 0v41l294 295q37 37 55.5 56.5t52.5 60t51 71.5t31.5 73.5t14.5 82.5q0 89 -56.5 139.5t-150.5 50.5q-64 0 -142.5 -20t-141.5 -53v47q61 35 140.5 56.5t148.5 21.5q119 0 190.5 -63.5t71.5 -170.5q0 -56 -19 -110.5t-57 -106.5t-70.5 -88.5t-83.5 -85.5l-252 -248 h521l-7 -49h-591z" />
<glyph horiz-adv-x="731" d="M61 33v51q110 -45 252 -45q127 0 205 57.5t78 151.5q0 92 -75.5 149.5t-198.5 57.5h-70l-19 37l322 366h-485v51h567v-39l-334 -372h31q146 0 234.5 -68t88.5 -182q0 -117 -92.5 -188.5t-245.5 -71.5q-152 0 -258 45z" />
<glyph horiz-adv-x="731" d="M23 238v53l432 618h82v-622h159v-49h-159v-238h-60v238h-454zM80 287h397v567z" />
<glyph horiz-adv-x="731" d="M76 35v49q102 -45 258 -45q126 0 202 59.5t76 157.5q0 97 -70.5 157t-187.5 60q-91 0 -217 -29l-37 11l33 454h483l-6 -49h-424l-24 -364q117 24 200 24q141 0 226.5 -72.5t85.5 -191.5q0 -121 -92 -194.5t-240 -73.5q-170 0 -266 47z" />
<glyph horiz-adv-x="731" d="M66 317q0 272 121 438.5t319 166.5q48 0 115 -19l6 -47q-53 16 -113 16q-150 0 -249.5 -112.5t-127.5 -308.5q37 56 102.5 87t149.5 31q131 0 210 -79t79 -209q0 -132 -85 -212.5t-222 -80.5q-139 0 -222 89t-83 240zM127 303q0 -119 67 -191.5t177 -72.5q109 0 176 66.5 t67 175.5t-67 176t-176 67q-110 0 -177 -60.5t-67 -160.5z" />
<glyph horiz-adv-x="731" d="M59 858v51h600v-41l-354 -868h-63l350 858h-533z" />
<glyph horiz-adv-x="731" d="M47 242q0 89 54.5 152.5t148.5 88.5q-78 23 -122 78.5t-44 130.5q0 104 77 167t204 63t203.5 -62.5t76.5 -165.5q0 -76 -44 -132t-122 -79q95 -25 149 -88t54 -151q0 -115 -88 -185.5t-229 -70.5t-229.5 70t-88.5 184zM109 246q0 -94 71 -151.5t185 -57.5t185 57.5 t71 151.5q0 95 -71 153t-185 58t-185 -58t-71 -153zM145 690q0 -85 60 -135.5t160 -50.5t159.5 50.5t59.5 135.5q0 82 -60 132t-159 50q-100 0 -160 -50t-60 -132z" />
<glyph horiz-adv-x="731" d="M59 635q0 129 82.5 208t216.5 79q137 0 219 -88t82 -236q0 -275 -119.5 -442.5t-314.5 -167.5q-55 0 -114 18l-7 49q59 -18 113 -18q147 0 245 115t124 313q-36 -53 -100 -83t-146 -30q-126 0 -203.5 78t-77.5 205zM121 635q0 -106 65.5 -172t171.5 -66q108 0 173 59 t65 156q0 117 -64.5 187.5t-173.5 70.5q-106 0 -171.5 -64.5t-65.5 -170.5z" />
<glyph horiz-adv-x="731" d="M51 1061q0 211 86.5 339t229.5 128q141 0 227 -128t86 -339t-86 -339t-227 -128q-143 0 -229.5 128t-86.5 339zM113 1061q0 -188 70 -302t184 -114q111 0 180 114t69 302t-69 302t-180 114q-114 0 -184 -114t-70 -302z" />
<glyph horiz-adv-x="731" d="M84 606v49h313v809h-252l7 52h305v-861h219v-49h-592z" />
<glyph horiz-adv-x="731" d="M68 606v41l294 295q37 37 55.5 56.5t52.5 60t51 71.5t31.5 73.5t14.5 82.5q0 89 -56.5 140t-150.5 51q-64 0 -142 -20.5t-142 -53.5v47q61 35 140.5 56.5t148.5 21.5q119 0 190.5 -63.5t71.5 -170.5q0 -56 -19 -110.5t-57 -106.5t-70.5 -88.5t-83.5 -85.5l-252 -248h521 l-7 -49h-591z" />
<glyph horiz-adv-x="731" d="M61 639v51q110 -45 252 -45q127 0 205 57.5t78 151.5q0 92 -75.5 149.5t-198.5 57.5h-70l-19 37l322 366h-485v52h567v-39l-334 -373h31q146 0 234.5 -68t88.5 -182q0 -117 -92.5 -188.5t-245.5 -71.5q-152 0 -258 45z" />
<glyph horiz-adv-x="731" d="M23 844v53l432 619h82v-623h159v-49h-159v-238h-60v238h-454zM80 893h397v567z" />
<glyph horiz-adv-x="731" d="M76 641v49q102 -45 258 -45q126 0 202 59.5t76 157.5q0 97 -70.5 157t-187.5 60q-96 0 -217 -28l-37 10l33 455h483l-6 -50h-424l-24 -364q117 24 200 24q141 0 226.5 -72.5t85.5 -191.5q0 -121 -92 -194.5t-240 -73.5q-170 0 -266 47z" />
<glyph horiz-adv-x="731" d="M66 924q0 272 121 438t319 166q48 0 115 -19l6 -47q-56 17 -113 17q-150 0 -249.5 -113t-127.5 -309q37 56 102.5 87.5t149.5 31.5q131 0 210 -79t79 -210q0 -132 -85 -212.5t-222 -80.5q-139 0 -222 89t-83 241zM127 909q0 -119 67 -191.5t177 -72.5q109 0 176 66.5 t67 175.5t-67 176t-176 67q-110 0 -177 -60.5t-67 -160.5z" />
<glyph horiz-adv-x="731" d="M59 1464v52h600v-41l-354 -869h-63l350 858h-533z" />
<glyph horiz-adv-x="731" d="M47 848q0 89 54.5 153t148.5 89q-78 23 -122 78t-44 130q0 104 77 167t204 63t203.5 -62.5t76.5 -165.5q0 -76 -44 -131.5t-122 -78.5q95 -25 149 -88.5t54 -151.5q0 -115 -88 -185.5t-229 -70.5t-229.5 70t-88.5 184zM109 852q0 -94 71 -151.5t185 -57.5t185 57.5 t71 151.5q0 95 -71 153t-185 58t-185 -58t-71 -153zM145 1296q0 -85 60 -135.5t160 -50.5t159.5 50.5t59.5 135.5q0 82 -60 132.5t-159 50.5t-159.5 -50.5t-60.5 -132.5z" />
<glyph horiz-adv-x="731" d="M59 1241q0 129 82.5 208t216.5 79q137 0 219 -88t82 -236q0 -275 -119.5 -442.5t-314.5 -167.5q-55 0 -114 18l-7 50q63 -19 113 -19q147 0 245 115t124 313q-36 -53 -100 -83t-146 -30q-126 0 -203.5 78t-77.5 205zM121 1241q0 -106 65.5 -171.5t171.5 -65.5 q108 0 173 59t65 156q0 117 -64.5 187.5t-173.5 70.5q-106 0 -171.5 -65t-65.5 -171z" />
<glyph horiz-adv-x="655" d="M90 1597h64l411 -1679h-63z" />
<glyph horiz-adv-x="497" d="M195 1399v117h108v-117h-108zM213 0l6 1206h60l4 -1206h-70z" />
<glyph horiz-adv-x="1021" d="M92 367q0 70 15 130t38 105t64 92t78.5 80.5t95.5 79.5q81 64 130.5 161t49.5 191h55q0 -106 -52 -211t-138 -176q-68 -56 -106 -92.5t-80 -91.5t-61 -119t-19 -143q0 -155 100 -245.5t266 -90.5q100 0 219 31.5t214 83.5v-58q-88 -52 -209 -83t-228 -31 q-195 0 -313.5 105t-118.5 282zM537 1399v117h106v-117h-106z" />
<glyph horiz-adv-x="655" d="M90 -82l412 1679h63l-411 -1679h-64z" />
<glyph horiz-adv-x="731" d="M84 729v57h18q72 0 117 57.5t45 149.5v389q0 107 66 171.5t174 64.5q70 0 147 -25l11 -57q-80 25 -146 25q-85 0 -135.5 -51t-50.5 -136v-387q0 -89 -37 -151.5t-98 -77.5q61 -15 98 -78t37 -152v-387q0 -85 50.5 -135.5t135.5 -50.5q66 0 146 25l-11 -58 q-74 -24 -147 -24q-108 0 -174 64t-66 171v389q0 92 -45 149.5t-117 57.5h-18z" />
<glyph horiz-adv-x="731" d="M70 -20q80 -25 145 -25q84 0 135 51t51 135v387q0 89 37 152t99 78q-62 15 -99 77.5t-37 151.5v387q0 84 -51.5 135.5t-134.5 51.5q-65 0 -145 -25l8 57q80 25 147 25q109 0 175.5 -64.5t66.5 -171.5v-389q0 -93 44.5 -150t117.5 -57h16v-57h-16q-73 0 -117.5 -57 t-44.5 -150v-389q0 -107 -66.5 -171t-175.5 -64q-70 0 -147 24z" />
<glyph horiz-adv-x="661" d="M217 -82v1679h377v-57h-309v-1565h309v-57h-377z" />
<glyph horiz-adv-x="661" d="M68 -25h311v1565h-311v57h378v-1679h-378v57z" />
<glyph horiz-adv-x="542" d="M129 758q0 138 24 267t68 235t85.5 182.5t94.5 154.5h58q-40 -62 -80.5 -144.5t-83 -193.5t-69.5 -243.5t-27 -257.5t27 -258t69.5 -244t83 -193.5t80.5 -144.5h-58q-53 78 -94.5 154.5t-85.5 183t-68 235.5t-24 267z" />
<glyph horiz-adv-x="540" d="M86 -82q40 62 80.5 144.5t83 193.5t69.5 244t27 258t-27 257.5t-69.5 243.5t-83 193.5t-80.5 144.5h55q54 -79 95.5 -155t85 -182.5t68 -235t24.5 -266.5t-24.5 -267t-68 -235.5t-85.5 -182.5t-95 -155h-55z" />
<glyph horiz-adv-x="1974" d="M166 741v58h1642v-58h-1642z" />
<glyph horiz-adv-x="1284" d="M166 741v58h952v-58h-952z" />
<glyph horiz-adv-x="882" d="M166 741v58h551v-58h-551z" />
<glyph horiz-adv-x="882" d="M166 741v58h551v-58h-551z" />
<glyph horiz-adv-x="1034" d="M115 758l315 452h72l-316 -452l316 -453h-72zM496 758l315 452h72l-316 -452l316 -453h-72z" />
<glyph horiz-adv-x="1034" d="M150 305l315 453l-315 452h73l316 -452l-316 -453h-73zM530 305l316 453l-316 452h74l316 -452l-316 -453h-74z" />
<glyph horiz-adv-x="653" d="M115 758l315 452h72l-316 -452l316 -453h-72z" />
<glyph horiz-adv-x="653" d="M150 305l315 453l-315 452h73l316 -452l-316 -453h-73z" />
<glyph d="M111 111q89 -34 212.5 -56.5t239.5 -23.5v604l-125 33q-145 38 -229 108t-84 191q0 139 120 228.5t318 98.5v138h60v-138q226 -3 421 -61v-55q-82 27 -197 44t-224 19v-565l129 -35q64 -17 113.5 -34.5t98.5 -45.5t80.5 -61t51.5 -80.5t20 -104.5q0 -147 -134 -238 t-359 -97v-136h-60v136q-272 7 -442 77zM186 971q0 -182 267 -250l110 -29v549q-171 -8 -274 -81.5t-103 -188.5zM623 31q197 9 314.5 84.5t117.5 195.5q0 58 -24.5 104t-70.5 78.5t-98.5 54.5t-122.5 40l-116 30v-587z" />
<glyph d="M45 465v53h123q-8 52 -8 123q0 60 6 115h-121v53h129q43 223 191 354t366 131q101 0 208.5 -22.5t182.5 -59.5v-59q-72 40 -177.5 64t-205.5 24q-191 0 -323 -116.5t-174 -315.5h624l-10 -53h-623q-8 -49 -8 -115q0 -71 8 -123h570l-8 -53h-553q42 -200 170 -316 t313 -116q110 0 225 29.5t193 76.5v-57q-75 -46 -190.5 -74t-229.5 -28q-213 0 -358.5 130t-188.5 355h-131z" />
<glyph d="M127 569v52h201q-7 39 -31 84t-47.5 80t-42.5 84t-19 98q0 147 119.5 237t313.5 90q105 0 219.5 -22.5t193.5 -59.5v-51q-87 36 -199.5 58t-211.5 22q-166 0 -267.5 -77t-101.5 -203q0 -52 30 -110t66 -118.5t45 -111.5h543v-52h-541q-3 -128 -56 -268t-138 -248h901 l-8 -53h-967v43q89 113 144.5 256t58.5 270h-205z" />
<glyph d="M152 1274h71l385 -668l383 668h74l-410 -701h320v-51h-336v-211h336v-51h-336v-260h-61v260h-336v51h336v211h-336v51h319z" />
<glyph horiz-adv-x="1794" d="M135 887q0 183 87 295t229 112q141 0 227 -112t86 -295t-86 -294.5t-227 -111.5q-142 0 -229 111.5t-87 294.5zM197 887q0 -161 70 -259t184 -98q111 0 180 98.5t69 258.5t-69 258t-180 98q-114 0 -184 -97.5t-70 -258.5zM473 10l805 1284l47 -32l-805 -1282zM1034 395 q0 183 87.5 294.5t228.5 111.5t227 -111.5t86 -294.5q0 -184 -86 -295.5t-227 -111.5q-142 0 -229 111.5t-87 295.5zM1096 395q0 -161 70 -258.5t184 -97.5q113 0 181 97.5t68 258.5q0 160 -68.5 257.5t-180.5 97.5q-114 0 -184 -97.5t-70 -257.5z" />
</font>
</defs>
</svg>
