<?xml version="1.0" standalone="no"?>
<!DOCTYPE svg PUBLIC "-//W3C//DTD SVG 1.1//EN" "http://www.w3.org/Graphics/SVG/1.1/DTD/svg11.dtd" >
<svg xmlns="http://www.w3.org/2000/svg" xmlns:xlink="http://www.w3.org/1999/xlink" version="1.1">
<metadata></metadata>
<defs>
<font id="bw_glenn_sans_demoRgIt" horiz-adv-x="1218" >
<font-face units-per-em="2048" ascent="1597" descent="-451" />
<missing-glyph horiz-adv-x="509" />
<glyph unicode="&#xfb01;" horiz-adv-x="1206" d="M94 961l15 122h182l31 246q15 130 102 209.5t213 79.5q123 0 197 -39l6 -125q-62 37 -166 37q-85 0 -141.5 -50.5t-67.5 -133.5l-27 -224h340l-14 -122h-342l-174 -1412h-146l174 1412h-182zM831 0l134 1083h147l-133 -1083h-148zM991 1311l35 286h152l-35 -286h-152z " />
<glyph unicode="&#xfb02;" horiz-adv-x="1206" d="M94 961l15 122h182l31 246q15 130 102 209.5t213 79.5q123 0 197 -39l6 -125q-62 37 -166 37q-85 0 -141.5 -50.5t-67.5 -133.5l-27 -224h340l-14 -122h-342l-174 -1412h-146l174 1412h-182zM831 0l197 1597h148l-197 -1597h-148z" />
<glyph horiz-adv-x="0" />
<glyph horiz-adv-x="682" />
<glyph unicode="&#xd;" horiz-adv-x="509" />
<glyph unicode=" "  horiz-adv-x="509" />
<glyph unicode="&#x09;" horiz-adv-x="509" />
<glyph unicode="&#xa0;" horiz-adv-x="509" />
<glyph unicode="!" horiz-adv-x="509" d="M98 0l23 180h178l-23 -180h-178zM166 348l129 1168h158l-158 -1168h-129z" />
<glyph unicode="&#x22;" horiz-adv-x="702" d="M203 1137l57 460h146l-58 -460h-145zM496 1137l57 460h145l-57 -460h-145z" />
<glyph unicode="#" d="M49 360l35 125h190l95 318h-191l37 125h191l106 364h137l-106 -364h323l109 364h135l-106 -364h186l-35 -125h-188l-95 -318h189l-35 -125h-190l-107 -360h-137l106 360h-323l-107 -360h-137l107 360h-189zM412 485h323l94 318h-323z" />
<glyph unicode="$" d="M57 188q177 -76 410 -86l78 625l-96 33q-265 87 -265 319q0 184 126.5 307t332.5 146l21 168h143l-21 -166q216 -10 371 -76l-14 -129q-67 33 -167.5 55.5t-203.5 26.5l-72 -584l97 -32q67 -23 118.5 -50.5t97.5 -68.5t70.5 -100t24.5 -132q0 -192 -141.5 -317.5 t-370.5 -144.5l-21 -166h-143l21 166q-256 13 -390 79zM336 1110q0 -161 194 -225l31 -11l66 531q-131 -22 -211 -102t-80 -193zM612 109q157 22 251.5 104.5t94.5 204.5q0 95 -62 153t-169 93l-45 16z" />
<glyph unicode="%" horiz-adv-x="1830" d="M197 1051q0 210 106.5 343.5t271.5 133.5q127 0 202 -94.5t75 -251.5q0 -209 -107.5 -343t-271.5 -134q-127 0 -201.5 94.5t-74.5 251.5zM317 1051q0 -111 45.5 -178.5t122.5 -67.5q103 0 173.5 107.5t70.5 269.5q0 111 -45 178t-121 67q-105 0 -175.5 -107t-70.5 -269z M393 31l996 1505l100 -51l-995 -1505zM1032 334q0 209 107.5 343t271.5 134q127 0 201 -94t74 -252q0 -210 -106.5 -343.5t-270.5 -133.5q-128 0 -202.5 94t-74.5 252zM1151 334q0 -111 46.5 -178.5t125.5 -67.5q101 0 171.5 108t70.5 269q0 111 -45 178.5t-121 67.5 q-105 0 -176.5 -107.5t-71.5 -269.5z" />
<glyph unicode="&#x26;" horiz-adv-x="1474" d="M72 356q0 93 31 168t90.5 130.5t123.5 94t152 76.5q-75 83 -118.5 177.5t-43.5 171.5q0 158 131.5 260t335.5 102q173 0 277 -83t104 -220q0 -60 -16.5 -110.5t-55 -92t-72 -70t-100.5 -61t-104.5 -48t-117.5 -46.5q-3 -1 -5 -2l385 -375q94 175 115 350h135 q-32 -254 -158 -440l260 -252l-104 -106l-252 251q-103 -114 -252.5 -182.5t-296.5 -68.5q-204 0 -324 102.5t-120 273.5zM229 381q0 -127 86.5 -203t233.5 -76q114 0 232 57t204 150l-440 439q-57 -26 -99.5 -50t-85.5 -57.5t-70 -69.5t-44 -85t-17 -105zM465 1180 q0 -63 37.5 -143.5t101.5 -153.5q57 22 89 35t80.5 36t75.5 40t60.5 43.5t50.5 52t29 59t12 70.5q0 88 -65.5 141t-177.5 53q-127 0 -210 -66t-83 -167z" />
<glyph unicode="'" horiz-adv-x="407" d="M203 1137l57 460h146l-58 -460h-145z" />
<glyph unicode="(" horiz-adv-x="571" d="M100 401q0 171 31 342.5t73.5 300t105.5 262t108.5 210.5t101.5 163h137q-121 -197 -184 -332q-219 -466 -219 -972q0 -434 141 -826h-137q-62 155 -110 377.5t-48 474.5z" />
<glyph unicode=")" horiz-adv-x="571" d="M-68 -451q111 183 160 283q244 489 244 1020q0 435 -141 827h137q61 -154 109 -376.5t48 -475.5q0 -171 -31 -342.5t-73 -300t-105 -262t-108.5 -210.5t-101.5 -163h-138z" />
<glyph unicode="*" horiz-adv-x="763" d="M182 1274l39 86l209 -76l23 232h90l-35 -232l229 76l17 -86l-232 -66l119 -184l-78 -51l-108 188l-156 -188l-68 51l164 184z" />
<glyph unicode="+" d="M141 647l17 127h401l51 408h154l-49 -408h401l-14 -127h-404l-49 -407h-155l51 407h-404z" />
<glyph unicode="," horiz-adv-x="466" d="M-6 -330l8 60q66 0 116.5 74.5t65.5 195.5h-102l24 193h195l-22 -175q-19 -156 -97.5 -252t-187.5 -96z" />
<glyph unicode="-" horiz-adv-x="897" d="M139 526l15 123h612l-14 -123h-613z" />
<glyph unicode="." horiz-adv-x="460" d="M80 0l22 193h195l-23 -193h-194z" />
<glyph unicode="/" horiz-adv-x="815" d="M-49 -451l782 2132h150l-783 -2132h-149z" />
<glyph unicode="0" d="M92 618q0 197 49 368.5t133.5 292t203 189t253.5 68.5q209 0 329 -174.5t120 -464.5q0 -262 -83 -472t-229.5 -327.5t-326.5 -117.5q-208 0 -328.5 174t-120.5 464zM254 618q0 -232 81.5 -370.5t221.5 -138.5q95 0 180.5 60t147 164.5t97.5 251.5t36 314 q0 231 -80.5 369.5t-220.5 138.5q-128 0 -234.5 -102.5t-167.5 -283.5t-61 -403z" />
<glyph unicode="1" d="M59 0l15 125h499l154 1261h-397l39 130h532l-170 -1391h344l-14 -125h-1002z" />
<glyph unicode="2" d="M35 0l14 111l549 493q137 124 182 171q197 206 197 382q0 115 -80 182.5t-215 67.5q-102 0 -228 -36.5t-227 -96.5l17 127q97 61 224 98t241 37q197 0 313.5 -95.5t116.5 -256.5q0 -55 -15 -111t-34.5 -101t-61 -101.5t-70 -91.5t-88.5 -94t-89 -86t-97 -89l-430 -385 h817l-37 -125h-999z" />
<glyph unicode="3" d="M43 55l14 127q76 -32 189 -52.5t223 -20.5q209 0 340 97.5t131 252.5q0 125 -103.5 200.5t-277.5 75.5h-104l-33 96l547 555h-750l17 130h956l-12 -105l-574 -565h17q220 0 350.5 -102.5t130.5 -272.5q0 -144 -81 -256t-225.5 -173.5t-328.5 -61.5q-121 0 -237.5 21 t-188.5 54z" />
<glyph unicode="4" d="M12 371l17 135l807 1010h219l-125 -1020h233l-14 -125h-236l-45 -371h-155l47 371h-748zM168 496h608l113 905z" />
<glyph unicode="5" d="M55 57l15 127q74 -34 187 -54.5t228 -20.5q206 0 337.5 101t131.5 263q0 132 -94.5 211.5t-255.5 79.5q-155 0 -332 -47l-92 22l146 777h841l-39 -130h-677l-105 -540q152 35 293 35q221 0 351 -108t130 -288q0 -224 -178 -364.5t-455 -140.5q-124 0 -243 21t-189 56z " />
<glyph unicode="6" d="M94 467q0 221 66 418t180 340.5t276 227t347 83.5q101 0 196 -31l8 -125q-91 31 -192 31q-155 0 -295 -76.5t-246 -226.5t-151 -350q72 93 193.5 146.5t258.5 53.5q185 0 294.5 -113.5t109.5 -303.5q0 -164 -76 -292.5t-209.5 -198.5t-302.5 -70q-212 0 -334.5 129.5 t-122.5 357.5zM254 453q0 -156 84.5 -250t228.5 -94q178 0 293 116t115 299q0 146 -85.5 233t-232.5 87q-177 0 -290 -106.5t-113 -284.5z" />
<glyph unicode="7" d="M197 1386l14 130h1020l-14 -109l-742 -1407h-166l731 1386h-843z" />
<glyph unicode="8" d="M53 365q0 156 97 272t264 166q-102 41 -157.5 119t-55.5 182q0 192 148 312t382 120q199 0 317.5 -95.5t118.5 -254.5q0 -133 -80 -235t-217 -150q125 -43 194 -133t69 -213q0 -210 -166.5 -342.5t-425.5 -132.5q-223 0 -355.5 105.5t-132.5 279.5zM219 389 q0 -128 90.5 -204t245.5 -76q184 0 300 96.5t116 251.5q0 128 -91 205t-247 77q-182 0 -298 -97.5t-116 -252.5zM360 1100q0 -109 78 -175.5t209 -66.5q156 0 255 84t99 219q0 111 -77 178.5t-209 67.5q-155 0 -255 -86t-100 -221z" />
<glyph unicode="9" d="M104 135q91 -31 195 -31q152 0 290.5 79t243 232.5t148.5 356.5q-70 -90 -188 -142t-252 -52q-182 0 -289 111.5t-107 297.5q0 244 161 396.5t413 152.5q207 0 327.5 -128.5t120.5 -350.5q0 -221 -65 -419.5t-177.5 -343t-273 -229.5t-342.5 -85q-108 0 -196 30z M309 1004q0 -142 83.5 -227t223.5 -85q171 0 281.5 104t110.5 275q0 153 -81.5 244.5t-221.5 91.5q-173 0 -284.5 -112.5t-111.5 -290.5z" />
<glyph unicode=":" horiz-adv-x="477" d="M74 0l24 193h195l-23 -193h-196zM184 891l23 192h196l-24 -192h-195z" />
<glyph unicode=";" horiz-adv-x="548" d="M35 -330l6 60q66 0 116.5 74.5t65.5 195.5h-102l24 193h195l-23 -175q-19 -157 -96 -252.5t-186 -95.5zM231 891l23 192h195l-23 -192h-195z" />
<glyph unicode="&#x3c;" d="M125 672l10 90l979 430l-16 -143l-772 -332l692 -332l-19 -143z" />
<glyph unicode="=" d="M111 408l14 127h960l-14 -127h-960zM168 887l16 127h961l-17 -127h-960z" />
<glyph unicode="&#x3e;" d="M145 242l19 143l772 332l-692 332l18 143l873 -430l-11 -90z" />
<glyph unicode="?" horiz-adv-x="1048" d="M154 1294l14 127q99 52 226.5 83.5t238.5 31.5q186 0 296.5 -94.5t110.5 -255.5q0 -88 -23.5 -160.5t-73.5 -135t-103.5 -109.5t-137.5 -107q-86 -61 -144 -151t-69 -175h-127q12 103 73.5 205t150.5 170q56 43 88.5 70t77 72.5t68.5 85t41.5 94.5t17.5 114 q0 115 -76 181.5t-207 66.5q-96 0 -218 -31t-224 -82zM293 0l22 180h179l-21 -180h-180z" />
<glyph unicode="@" horiz-adv-x="2009" d="M96 393q0 249 79.5 463t218.5 364t334.5 235t420.5 85q354 0 562 -209t208 -557q0 -299 -127.5 -494.5t-318.5 -195.5q-101 0 -163 60t-71 165q-56 -106 -148.5 -167.5t-199.5 -61.5q-151 0 -239.5 105t-88.5 280q0 228 123 374t311 146q98 0 170.5 -54t108.5 -151 l37 189l125 -6l-68 -560q-4 -36 -4 -43q0 -69 33 -109t90 -40q116 0 197 156t81 385q0 299 -170.5 480t-461.5 181q-189 0 -353 -75t-281 -207.5t-184 -320.5t-67 -407q0 -339 180 -543t488 -204q127 0 273.5 21.5t262.5 56.5l-14 -127q-115 -35 -263 -56.5t-276 -21.5 q-246 0 -429 107.5t-279.5 302.5t-96.5 454zM719 481q0 -125 60.5 -199.5t164.5 -74.5q131 0 217 106t86 271q0 124 -60.5 199t-162.5 75q-131 0 -218 -106.5t-87 -270.5z" />
<glyph unicode="A" horiz-adv-x="1359" d="M-49 0l749 1516h201l377 -1516h-168l-96 406h-703l-194 -406h-166zM373 535h610l-201 851z" />
<glyph unicode="B" horiz-adv-x="1357" d="M127 0l186 1516h586q167 0 266 -92.5t99 -245.5q0 -135 -69 -237.5t-189 -154.5q111 -35 173 -119.5t62 -201.5q0 -204 -140.5 -334.5t-359.5 -130.5h-614zM299 129h438q151 0 247.5 91.5t96.5 236.5q0 117 -73 186.5t-197 69.5h-440zM387 844h391q141 0 232.5 84.5 t91.5 218.5q0 108 -72 173.5t-194 65.5h-383z" />
<glyph unicode="C" horiz-adv-x="1265" d="M131 641q0 259 96 464t263.5 318t375.5 113q118 0 231.5 -30.5t186.5 -80.5l-14 -127q-69 49 -176 79t-213 30q-166 0 -300 -95.5t-210 -267.5t-76 -389q0 -248 115 -397t313 -149q109 0 229.5 33t204.5 87l-16 -129q-85 -55 -213.5 -87.5t-251.5 -32.5 q-252 0 -398.5 180t-146.5 481z" />
<glyph unicode="D" horiz-adv-x="1404" d="M127 0l186 1516h402q282 0 447 -179.5t165 -476.5q0 -188 -60 -348.5t-165.5 -272.5t-253.5 -175.5t-320 -63.5h-401zM299 129h229q182 0 327 90.5t227.5 254.5t82.5 372q0 245 -130 392.5t-351 147.5h-231z" />
<glyph unicode="E" horiz-adv-x="1232" d="M127 0l186 1516h934l-39 -130h-755l-68 -548h709l-17 -129h-706l-72 -580h795l-17 -129h-950z" />
<glyph unicode="F" horiz-adv-x="1150" d="M127 0l186 1516h904l-39 -130h-725l-70 -575h666l-17 -129h-665l-84 -682h-156z" />
<glyph unicode="G" horiz-adv-x="1396" d="M131 643q0 195 59.5 362t163 283t248 182t311.5 66q120 0 238.5 -30t191.5 -79l-16 -127q-74 47 -188 77t-224 30q-177 0 -319 -94.5t-222.5 -266t-80.5 -389.5q0 -249 117 -398.5t315 -149.5q165 0 342 47l74 604h155l-86 -686q-93 -43 -232.5 -68.5t-275.5 -25.5 q-264 0 -417.5 181t-153.5 482z" />
<glyph unicode="H" horiz-adv-x="1462" d="M127 0l186 1516h156l-84 -680h764l84 680h156l-187 -1516h-155l86 705h-764l-86 -705h-156z" />
<glyph unicode="I" horiz-adv-x="540" d="M127 0l186 1516h156l-186 -1516h-156z" />
<glyph unicode="J" horiz-adv-x="892" d="M12 39v127q86 -57 224 -57q120 0 203 75t98 197l125 1010h-457l14 125h612l-143 -1162q-22 -169 -141.5 -271.5t-296.5 -102.5q-146 0 -238 59z" />
<glyph unicode="K" horiz-adv-x="1284" d="M127 0l186 1516h156l-186 -1516h-156zM428 776l770 740h172l-772 -734l604 -782h-180z" />
<glyph unicode="L" horiz-adv-x="1058" d="M127 0l186 1516h156l-170 -1387h692l-39 -129h-825z" />
<glyph unicode="M" horiz-adv-x="1843" d="M127 0l186 1516h201l393 -1084l660 1084h202l-186 -1516h-156l168 1315l-673 -1102h-80l-404 1102l-155 -1315h-156z" />
<glyph unicode="N" horiz-adv-x="1472" d="M127 0l186 1516h111l674 -1225l147 1225h154l-187 -1516h-108l-678 1225l-145 -1225h-154z" />
<glyph unicode="O" horiz-adv-x="1525" d="M131 641q0 193 57 360t157 284.5t239.5 184t300.5 66.5q260 0 411.5 -181t151.5 -481q0 -194 -57 -360.5t-156.5 -283.5t-239.5 -183.5t-301 -66.5q-259 0 -411 180.5t-152 480.5zM293 651q0 -246 112 -394t304 -148q163 0 295 96t207 269t75 390q0 246 -112 394.5 t-304 148.5q-163 0 -295 -96t-207 -269.5t-75 -390.5z" />
<glyph unicode="P" horiz-adv-x="1308" d="M127 0l186 1516h568q195 0 309.5 -109.5t114.5 -292.5q0 -232 -152.5 -379t-388.5 -147h-410l-71 -588h-156zM371 717h391q166 0 272.5 105t106.5 272q0 133 -80.5 212.5t-216.5 79.5h-391z" />
<glyph unicode="Q" horiz-adv-x="1495" d="M131 649q0 193 56 358.5t153.5 281.5t234.5 181.5t295 65.5q253 0 401 -176t148 -467q0 -266 -111.5 -469t-303.5 -301l360 6l-37 -129h-661q-247 0 -391 177.5t-144 471.5zM293 662q0 -241 108.5 -387t294.5 -146q119 0 223 55.5t177.5 153t116 236.5t42.5 300 q0 242 -107.5 387.5t-293.5 145.5q-158 0 -286 -94.5t-201.5 -265.5t-73.5 -385z" />
<glyph unicode="R" horiz-adv-x="1394" d="M127 0l186 1516h564q196 0 309.5 -107.5t113.5 -286.5q0 -158 -79 -276t-217 -176l260 -670h-174l-238 631q-44 -6 -90 -6h-402l-77 -625h-156zM375 748h401q159 0 262 100t103 258q0 127 -79.5 203.5t-215.5 76.5h-393z" />
<glyph unicode="S" horiz-adv-x="1216" d="M47 219q89 -50 217.5 -80t251.5 -30q193 0 314.5 84t121.5 221q0 173 -207 241l-276 97q-135 47 -210 124.5t-75 204.5q0 202 150.5 328.5t384.5 126.5q115 0 237 -29t209 -77l-18 -136q-73 51 -192.5 82t-241.5 31q-159 0 -261 -82t-102 -213q0 -88 55.5 -141.5 t157.5 -87.5l266 -95q137 -47 213 -127.5t76 -214.5q0 -208 -168 -337t-434 -129q-136 0 -263.5 28t-199.5 74z" />
<glyph unicode="T" horiz-adv-x="1140" d="M131 1386l14 130h1086l-14 -130h-467l-168 -1386h-156l168 1386h-463z" />
<glyph unicode="U" horiz-adv-x="1435" d="M170 432q0 53 4 84l123 1000h156l-123 -992q-4 -54 -4 -69q0 -158 92.5 -252t247.5 -94q172 0 291.5 114t142.5 301l123 992h155l-123 -1000q-29 -241 -196 -388.5t-410 -147.5q-220 0 -349.5 123t-129.5 329z" />
<glyph unicode="V" horiz-adv-x="1318" d="M135 1516h168l313 -1330l639 1330h166l-755 -1516h-146z" />
<glyph unicode="W" horiz-adv-x="2013" d="M137 1516h168l230 -1307l516 1307h147l197 -1307l549 1307h167l-663 -1516h-156l-198 1274l-512 -1274h-154z" />
<glyph unicode="X" horiz-adv-x="1208" d="M-45 0l584 782l-357 734h178l287 -625l443 625h176l-537 -734l393 -782h-178l-321 676l-490 -676h-178z" />
<glyph unicode="Y" horiz-adv-x="1224" d="M145 1516h168l328 -738l510 738h168l-619 -887l-77 -629h-154l78 633z" />
<glyph unicode="Z" horiz-adv-x="1181" d="M2 0l12 100l981 1286h-813l17 130h1009l-12 -99l-979 -1288h860l-37 -129h-1038z" />
<glyph unicode="[" horiz-adv-x="669" d="M61 -451l263 2130h442l-16 -125h-287l-232 -1880h287l-14 -125h-443z" />
<glyph unicode="\" horiz-adv-x="794" d="M203 1681h149l258 -2132h-149z" />
<glyph unicode="]" horiz-adv-x="671" d="M-78 -451l17 125h286l232 1880h-287l14 125h443l-262 -2130h-443z" />
<glyph unicode="^" horiz-adv-x="909" d="M115 664l360 624h150l206 -624h-149l-152 460l-268 -460h-147z" />
<glyph unicode="_" horiz-adv-x="1181" d="M-10 -123l14 123h1038l-14 -123h-1038z" />
<glyph unicode="`" horiz-adv-x="643" d="M221 1597h180l193 -348h-133z" />
<glyph unicode="a" horiz-adv-x="1241" d="M94 451q0 189 67.5 338.5t186.5 232t268 82.5q142 0 231.5 -69t127.5 -193l49 241h127l-133 -1083h-127l10 219q-66 -113 -172 -176t-250 -63q-178 0 -281.5 128.5t-103.5 342.5zM248 471q0 -165 79.5 -265t213.5 -100q173 0 286 142t113 362q0 166 -79 265.5t-214 99.5 q-171 0 -285 -142t-114 -362z" />
<glyph unicode="b" horiz-adv-x="1241" d="M90 0l197 1597h147l-88 -723q142 230 416 230q178 0 280.5 -130t102.5 -347q0 -285 -147 -466t-375 -181q-143 0 -233.5 72t-125.5 200l-47 -252h-127zM299 473q0 -167 79.5 -267t213.5 -100q173 0 286 141t113 361q0 167 -78.5 267t-212.5 100q-174 0 -287.5 -141 t-113.5 -361z" />
<glyph unicode="c" horiz-adv-x="991" d="M92 463q0 186 73 332.5t202 227.5t290 81q80 0 163.5 -20.5t140.5 -51.5l-17 -129q-56 32 -133 52t-149 20q-179 0 -296.5 -140.5t-117.5 -357.5q0 -167 88 -269t237 -102q75 0 158 21.5t146 58.5l-15 -125q-64 -37 -156 -59t-180 -22q-200 0 -317 131.5t-117 351.5z" />
<glyph unicode="d" horiz-adv-x="1239" d="M94 451q0 189 67.5 338.5t186.5 232t268 82.5q140 0 229.5 -68t127.5 -190l92 751h147l-196 -1597h-123l12 225q-66 -115 -173.5 -180t-252.5 -65q-178 0 -281.5 128.5t-103.5 342.5zM248 471q0 -165 79.5 -265t213.5 -100q173 0 286 142t113 362q0 166 -79 265.5 t-214 99.5q-171 0 -285 -142t-114 -362z" />
<glyph unicode="e" horiz-adv-x="1095" d="M94 455q0 289 157.5 469t401.5 180q170 0 267.5 -118.5t97.5 -319.5q0 -50 -6 -99l-6 -53h-756q-2 -14 -2 -43q0 -179 87.5 -273t258.5 -94q180 0 330 70l-39 -125q-151 -69 -342 -69q-217 0 -333 123.5t-116 351.5zM262 621h610q2 20 2 55q0 141 -64 222t-179 81 q-139 0 -238 -96.5t-131 -261.5z" />
<glyph unicode="f" horiz-adv-x="737" d="M94 961l15 122h182l31 246q15 130 102 209.5t213 79.5q123 0 197 -39l6 -125q-62 37 -166 37q-85 0 -141.5 -50.5t-67.5 -133.5l-27 -224h340l-14 -122h-342l-174 -1412h-146l174 1412h-182z" />
<glyph unicode="g" horiz-adv-x="1241" d="M76 -266q64 -34 160 -56t188 -22q182 0 306.5 113t146.5 297l18 141q-142 -227 -416 -227q-178 0 -281.5 128.5t-103.5 342.5q0 286 148 469.5t376 183.5q140 0 229 -69t126 -191l47 239h131l-127 -1026q-29 -238 -190 -383t-394 -145q-102 0 -200.5 21t-157.5 55z M248 471q0 -165 79.5 -265t215.5 -100q172 0 284.5 142t112.5 362q0 166 -79 265.5t-214 99.5q-171 0 -285 -142t-114 -362z" />
<glyph unicode="h" horiz-adv-x="1200" d="M90 0l197 1597h147l-88 -725q67 111 176.5 171.5t249.5 60.5q150 0 226.5 -82t76.5 -242q0 -46 -6 -98l-84 -682h-147l80 653q6 44 6 78q0 244 -224 244q-154 0 -259.5 -101t-127.5 -268l-75 -606h-148z" />
<glyph unicode="i" horiz-adv-x="468" d="M94 0l133 1083h148l-133 -1083h-148zM254 1311l35 286h151l-34 -286h-152z" />
<glyph unicode="j" horiz-adv-x="479" d="M-225 -319q55 -25 121 -25q75 0 128.5 50.5t63.5 133.5l154 1243h145l-156 -1276q-15 -126 -98 -202t-203 -76q-89 0 -149 31zM266 1311l35 286h152l-35 -286h-152z" />
<glyph unicode="k" horiz-adv-x="1036" d="M90 0l197 1597h147l-196 -1597h-148zM358 573l531 510h172l-537 -510l432 -573h-178z" />
<glyph unicode="l" horiz-adv-x="468" d="M94 0l197 1597h147l-196 -1597h-148z" />
<glyph unicode="m" horiz-adv-x="1865" d="M90 0l135 1083h125l-14 -223q65 117 171.5 180.5t244.5 63.5q124 0 195.5 -60.5t86.5 -179.5q67 114 175 177t247 63q142 0 214.5 -78t72.5 -229q0 -45 -6 -95l-86 -702h-148l84 674q4 29 4 74q0 227 -205 227q-143 0 -242.5 -98t-121.5 -261l-2 -10l-76 -606h-147 l84 674q4 29 4 74q0 227 -205 227q-145 0 -245 -101t-122 -268l-75 -606h-148z" />
<glyph unicode="n" horiz-adv-x="1200" d="M90 0l135 1083h125l-14 -227q67 119 178.5 183.5t257.5 64.5q150 0 226.5 -82t76.5 -242q0 -46 -6 -98l-84 -682h-147l80 653q6 44 6 78q0 244 -224 244q-154 0 -259.5 -101t-127.5 -268l-75 -606h-148z" />
<glyph unicode="o" horiz-adv-x="1185" d="M92 461q0 283 161.5 463t408.5 180q199 0 314.5 -131.5t115.5 -351.5q0 -282 -160 -461.5t-408 -179.5q-199 0 -315.5 131.5t-116.5 349.5zM248 473q0 -167 78.5 -267t212.5 -100q173 0 286 142t113 362q0 166 -79 265.5t-214 99.5q-171 0 -284 -141t-113 -361z" />
<glyph unicode="p" horiz-adv-x="1241" d="M35 -451l190 1534h129l-16 -219q139 240 422 240q180 0 282.5 -129.5t102.5 -347.5q0 -284 -147.5 -465.5t-374.5 -181.5q-138 0 -226.5 66t-128.5 185l-86 -682h-147zM299 473q0 -167 78.5 -267t214.5 -100q172 0 285.5 141t113.5 361q0 167 -78.5 267t-212.5 100 q-174 0 -287.5 -141t-113.5 -361z" />
<glyph unicode="q" horiz-adv-x="1239" d="M94 451q0 189 67.5 338.5t186.5 232t268 82.5q144 0 234 -71.5t127 -198.5l43 249h129l-188 -1534h-148l82 658q-142 -227 -416 -227q-178 0 -281.5 128.5t-103.5 342.5zM248 471q0 -165 79.5 -265t213.5 -100q173 0 286 142t113 362q0 166 -79 265.5t-214 99.5 q-171 0 -285 -142t-114 -362z" />
<glyph unicode="r" horiz-adv-x="829" d="M90 0l135 1083h125l-18 -274q72 141 192 218t277 77h71l-18 -150h-92q-183 0 -308.5 -116t-150.5 -308l-65 -530h-148z" />
<glyph unicode="s" horiz-adv-x="972" d="M35 166q70 -32 170 -51t196 -19q141 0 228.5 56t87.5 149q0 117 -168 166l-187 55q-105 31 -165 89.5t-60 158.5q0 150 116 242t300 92q75 0 165.5 -18.5t162.5 -49.5l-17 -118q-66 31 -150.5 50t-154.5 19q-119 0 -193.5 -52t-74.5 -138q0 -61 38 -97.5t109 -58.5 l189 -55q113 -34 177 -93t64 -165q0 -156 -129 -252t-333 -96q-105 0 -205 16.5t-158 44.5z" />
<glyph unicode="t" horiz-adv-x="761" d="M86 961l14 122h193l55 287h125l-35 -287h355l-17 -122h-354l-86 -701q-2 -16 -2 -24q0 -59 38 -94.5t103 -35.5q117 0 217 39l-39 -122q-98 -43 -237 -43q-107 0 -170.5 58t-63.5 155q0 13 2 36l90 732h-188z" />
<glyph unicode="u" horiz-adv-x="1179" d="M125 301q0 45 6 98l84 684h147l-79 -655q-7 -51 -7 -80q0 -242 213 -242q149 0 253 101.5t124 267.5l74 608h147l-133 -1083h-125l15 225q-67 -119 -175 -182t-251 -63q-293 0 -293 321z" />
<glyph unicode="v" horiz-adv-x="1067" d="M113 1083h157l131 -954q224 161 359 421.5t135 532.5h147q0 -307 -171 -605t-451 -478h-133z" />
<glyph unicode="w" horiz-adv-x="1687" d="M135 1083h150l90 -964q204 165 327 427t123 537h140l108 -958q200 165 320 425t120 533h148q0 -307 -158 -605t-416 -478h-120l-88 727q-64 -219 -192 -410t-300 -317h-133z" />
<glyph unicode="x" horiz-adv-x="1017" d="M-41 0l469 555l-315 528h161l248 -432l357 432h159l-444 -526l332 -557h-160l-264 459l-383 -459h-160z" />
<glyph unicode="y" horiz-adv-x="1179" d="M72 -293q125 -51 323 -51q167 0 282.5 104.5t137.5 274.5l25 184q-67 -115 -174.5 -177t-247.5 -62q-293 0 -293 321q0 45 6 98l84 684h147l-79 -655q-7 -51 -7 -80q0 -242 213 -242q149 0 253 101.5t124 267.5l76 608h145l-129 -1054q-28 -226 -177 -363t-369 -137 q-209 0 -334 51z" />
<glyph unicode="z" horiz-adv-x="1005" d="M4 0l14 104l762 857h-647l17 122h831l-14 -104l-758 -856h688l-37 -123h-856z" />
<glyph unicode="{" horiz-adv-x="718" d="M66 551l14 127h14q68 0 116 51t58 135l72 570q13 120 94.5 193t200.5 73q73 0 160 -25l6 -125q-68 21 -123 21q-75 0 -127.5 -48.5t-61.5 -127.5l-67 -555q-10 -85 -58 -147t-116 -79q57 -15 89 -65t32 -121q0 -21 -2 -39l-70 -555q-2 -16 -2 -29q0 -66 41 -106.5 t108 -40.5q55 0 127 20l-36 -124q-95 -25 -166 -25q-107 0 -170.5 61.5t-63.5 165.5q0 21 2 39l70 565q2 20 2 41q0 68 -34.5 109t-94.5 41h-14z" />
<glyph unicode="|" horiz-adv-x="522" d="M61 -451l252 2048h156l-252 -2048h-156z" />
<glyph unicode="}" horiz-adv-x="720" d="M-66 -322q68 -20 125 -20q74 0 127 48.5t62 127.5l67 555q10 84 58 146t114 79q-55 15 -86.5 65.5t-31.5 121.5q0 21 2 39l67 555q2 16 2 28q0 66 -40 107t-107 41q-54 0 -129 -21l37 125q98 25 166 25q108 0 170.5 -61t62.5 -166q0 -21 -2 -39l-70 -566q-2 -20 -2 -41 q0 -68 35.5 -108.5t95.5 -40.5h15l-15 -127h-14q-69 0 -117 -51t-57 -135l-72 -570q-13 -120 -95 -193t-202 -73q-68 0 -159 25z" />
<glyph unicode="~" d="M121 567q17 143 97 229.5t194 86.5q57 0 110.5 -20.5t95 -50.5t81.5 -59.5t84.5 -50t88.5 -20.5q74 0 125 49.5t60 130.5h88q-17 -143 -96 -229t-193 -86q-55 0 -108.5 21t-96 50.5t-83 59.5t-85.5 51t-88 21q-74 0 -125.5 -50.5t-60.5 -132.5h-88z" />
<glyph unicode="&#xa1;" horiz-adv-x="481" d="M41 -451l160 1184h129l-131 -1184h-158zM197 903l22 180h178l-22 -180h-178z" />
<glyph unicode="&#xa2;" d="M111 575q0 256 157 427.5t412 199.5l20 168h138l-21 -166q206 -10 348 -74l-16 -124q-152 64 -346 71l-107 -868q98 1 201.5 23t183.5 57l-16 -123q-73 -34 -177 -56.5t-206 -25.5l-20 -166h-140l21 170q-201 25 -316.5 155.5t-115.5 331.5zM266 592q0 -142 78 -240.5 t215 -130.5l105 846q-179 -31 -288.5 -160t-109.5 -315z" />
<glyph unicode="&#xa3;" d="M47 0l12 104q108 124 186 280.5t95 283.5h-207l17 125h186q-5 24 -47.5 134.5t-42.5 182.5q0 187 150.5 306.5t385.5 119.5q113 0 232 -27.5t200 -72.5l-14 -127q-87 44 -197 71t-208 27q-172 0 -283 -85.5t-111 -217.5q0 -57 41.5 -160t49.5 -151h497l-16 -125h-484 q-20 -132 -95 -279.5t-181 -263.5h850l-37 -125h-979z" />
<glyph unicode="&#xa4;" d="M141 326l121 114q-51 88 -51 209q0 192 111 322l-89 110l107 93l88 -113q112 67 254 67q139 0 231 -73l123 116l80 -92l-123 -116q49 -82 49 -203q0 -191 -106 -322l86 -110l-102 -92l-91 112q-107 -69 -251 -69q-142 0 -234 71l-121 -117zM334 662q0 -122 70 -196.5 t186 -74.5q143 0 236.5 100t93.5 257q0 122 -68 195t-184 73q-145 0 -239.5 -99t-94.5 -255z" />
<glyph unicode="&#xa5;" d="M188 309l15 119h313l21 176h-314l17 119h262l-271 793h166l236 -764l424 764h166l-467 -793h266l-16 -119h-316l-20 -176h313l-12 -119h-316l-37 -309h-155l39 309h-314z" />
<glyph unicode="&#xa6;" horiz-adv-x="532" d="M68 -451l100 820h154l-101 -820h-153zM219 778l100 819h154l-100 -819h-154z" />
<glyph unicode="&#xa7;" horiz-adv-x="1296" d="M84 -393l18 135q77 -37 196 -59.5t237 -22.5q174 0 285.5 80.5t111.5 208.5q0 57 -28.5 101t-77 73.5t-111 53t-131.5 44.5t-138 43t-131.5 53t-111 70.5t-77 99.5t-28.5 136q0 106 49.5 193t139.5 149q-80 83 -80 202q0 201 164 326t424 125q109 0 225 -21.5t199 -56.5 l-17 -135q-76 38 -195.5 61t-238.5 23q-174 0 -284.5 -80.5t-110.5 -210.5q0 -57 28.5 -101t76.5 -73.5t110.5 -53t131 -44.5t137.5 -43t131.5 -53t110.5 -70.5t76.5 -99.5t28.5 -136q0 -105 -49 -193t-137 -149q78 -85 78 -202q0 -199 -164 -325t-422 -126 q-109 0 -226 21.5t-200 56.5zM264 651q0 -60 30.5 -107.5t78.5 -76.5t117 -56t134 -45.5t143 -45.5t132 -54q66 38 102.5 98t36.5 132q0 60 -30 107t-77 76t-115 56t-132 45.5t-141 45t-131 53.5q-148 -85 -148 -228z" />
<glyph unicode="&#xa8;" horiz-adv-x="819" d="M268 1311l35 286h148l-35 -286h-148zM629 1311l35 286h147l-35 -286h-147z" />
<glyph unicode="&#xa9;" horiz-adv-x="1765" d="M127 657q0 192 65.5 356t181 279t279 179.5t353.5 64.5q314 0 499 -185.5t185 -492.5q0 -192 -65.5 -356t-181 -278.5t-278.5 -179t-352 -64.5q-316 0 -501 185t-185 492zM246 670q0 -265 156.5 -424.5t424.5 -159.5q160 0 298 56t236 154.5t154 240.5t56 309 q0 265 -157 425.5t-423 160.5q-215 0 -384.5 -96t-265 -270t-95.5 -396zM500 694q0 219 139.5 356.5t357.5 137.5q72 0 146 -20t121 -52l-15 -119q-46 32 -112 52t-127 20q-159 0 -261 -100.5t-102 -259.5q0 -127 81.5 -204t219.5 -77q65 0 136 22t126 60l-14 -117 q-58 -38 -141 -61t-160 -23q-182 0 -288.5 105.5t-106.5 279.5z" />
<glyph unicode="&#xaa;" horiz-adv-x="823" d="M170 616l10 93h504l-10 -93h-504zM199 1014q0 109 68.5 170t189.5 61l194 -2l4 43q2 14 2 31q0 135 -168 135q-100 0 -190 -41l10 82q90 43 213 43q238 0 238 -193q0 -20 -2 -40l-51 -431h-86l6 140q-40 -70 -110 -111t-150 -41q-83 0 -125.5 39.5t-42.5 114.5zM305 1034 q0 -100 111 -100q75 0 142 60t83 161v6l2 13h-180q-75 0 -116.5 -37t-41.5 -103z" />
<glyph unicode="&#xab;" horiz-adv-x="1093" d="M88 553l377 459h162l-379 -459l266 -459h-162zM520 553l377 459h162l-379 -459l266 -459h-162z" />
<glyph unicode="&#xac;" d="M156 752l14 125h960l-51 -420h-155l37 295h-805z" />
<glyph unicode="&#xad;" horiz-adv-x="897" d="M139 526l15 123h612l-14 -123h-613z" />
<glyph unicode="&#xae;" horiz-adv-x="1009" d="M188 1245q0 206 130 336.5t329 130.5q163 0 258.5 -98t95.5 -262q0 -206 -128.5 -336.5t-327.5 -130.5q-164 0 -260.5 98.5t-96.5 261.5zM252 1251q0 -142 81 -227.5t218 -85.5q168 0 277.5 114.5t109.5 293.5q0 142 -81 227.5t-218 85.5q-167 0 -277 -114.5t-110 -293.5 zM426 1073l55 455h156q60 0 94.5 -33.5t34.5 -89.5q0 -50 -28.5 -88t-75.5 -53l69 -191h-69l-62 180h-90l-23 -180h-61zM516 1303h90q40 0 68 27.5t28 68.5q0 34 -20 55t-55 21h-88z" />
<glyph unicode="&#xaf;" horiz-adv-x="802" d="M215 1329l14 121h582l-14 -121h-582z" />
<glyph unicode="&#xb0;" horiz-adv-x="696" d="M188 1335q0 125 82 204t209 79q105 0 166.5 -60t61.5 -159q0 -126 -81.5 -204.5t-209.5 -78.5q-104 0 -166 60t-62 159zM313 1346q0 -60 31.5 -97t83.5 -37q66 0 110 50.5t44 126.5q0 60 -31.5 96.5t-83.5 36.5q-67 0 -110.5 -49.5t-43.5 -126.5z" />
<glyph unicode="&#xb1;" d="M100 174l17 125h925l-14 -125h-928zM160 782l16 127h399l39 320h156l-39 -320h404l-17 -127h-401l-39 -321h-156l39 321h-401z" />
<glyph unicode="&#xb2;" horiz-adv-x="731" d="M94 819l10 84l326 293q43 37 70.5 63.5t63.5 69t54.5 86.5t18.5 88q0 63 -41.5 100t-112.5 37q-134 0 -286 -71l14 96q65 34 148 55t153 21q114 0 180 -57t66 -154q0 -56 -20 -109.5t-59.5 -105t-80.5 -93t-102 -94.5l-242 -213h471l-27 -96h-604z" />
<glyph unicode="&#xb3;" horiz-adv-x="731" d="M96 852l10 98q101 -43 248 -43q116 0 188 52t72 135q0 68 -56.5 108.5t-151.5 40.5h-64l-27 70l306 315h-422l12 101h577l-8 -70l-323 -330q127 -1 202.5 -63t75.5 -162q0 -132 -107 -214.5t-276 -82.5q-157 0 -256 45z" />
<glyph unicode="&#xb4;" horiz-adv-x="643" d="M221 1249l281 348h178l-326 -348h-133z" />
<glyph unicode="&#xb6;" horiz-adv-x="1220" d="M135 1133q0 170 98 276.5t250 106.5h781l-17 -125h-186l-227 -1842h-132l228 1842h-262l-228 -1842h-131l160 1297h-90q-113 0 -178.5 78.5t-65.5 208.5z" />
<glyph unicode="&#xb7;" horiz-adv-x="481" d="M145 559l23 193h194l-22 -193h-195z" />
<glyph unicode="&#xb8;" horiz-adv-x="516" d="M-72 -440l11 82q72 -31 155 -31q73 0 119.5 32.5t46.5 84.5q0 43 -36.5 68.5t-96.5 25.5h-45l-23 51l148 158l96 -31l-110 -109q90 -4 143 -46.5t53 -108.5q0 -92 -80.5 -149.5t-208.5 -57.5q-100 0 -172 31z" />
<glyph unicode="&#xb9;" horiz-adv-x="731" d="M106 819l11 96h291l88 713h-234l29 101h334l-101 -814h197l-10 -96h-605z" />
<glyph unicode="&#xba;" horiz-adv-x="892" d="M176 616l10 93h559l-10 -93h-559zM223 1151q0 169 97.5 277t248.5 108q121 0 191.5 -79t70.5 -210q0 -169 -98 -278t-248 -109q-121 0 -191.5 79t-70.5 212zM328 1159q0 -96 45.5 -153.5t122.5 -57.5q100 0 164.5 82t64.5 211q0 95 -45.5 152t-122.5 57q-99 0 -164 -82 t-65 -209z" />
<glyph unicode="&#xbb;" horiz-adv-x="1091" d="M37 94l379 459l-266 459h161l264 -459l-376 -459h-162zM469 94l379 459l-266 459h161l265 -459l-377 -459h-162z" />
<glyph unicode="&#xbc;" horiz-adv-x="1830" d="M86 606l10 96h291l88 713h-233l28 101h334l-100 -814h196l-10 -96h-604zM395 31l996 1505l100 -51l-995 -1505zM1077 217l15 96l462 596h152l-72 -596h138l-11 -96h-139l-27 -217h-116l26 217h-428zM1198 313h320l61 490z" />
<glyph unicode="&#xbd;" horiz-adv-x="1830" d="M86 606l10 96h291l88 713h-233l28 101h334l-100 -814h196l-10 -96h-604zM395 31l996 1505l100 -51l-995 -1505zM1094 0l10 84l326 293q42 36 70 63.5t63.5 69t54 86t18.5 88.5q0 63 -41.5 100t-111.5 37q-61 0 -139.5 -19.5t-147.5 -51.5l14 96q65 34 148 55t153 21 q114 0 180 -57t66 -154q0 -56 -20 -109.5t-59.5 -105t-80.5 -93t-102 -94.5l-242 -213h471l-26 -96h-604z" />
<glyph unicode="&#xbe;" horiz-adv-x="1830" d="M68 639l10 98q101 -43 248 -43q116 0 188 52t72 135q0 68 -57 108.5t-152 40.5h-64l-26 70l305 315h-422l12 101h578l-8 -70l-324 -330q127 -1 203 -63t76 -162q0 -132 -107 -214.5t-276 -82.5q-157 0 -256 45zM395 31l996 1505l100 -51l-995 -1505zM1077 217l15 96 l462 596h152l-72 -596h138l-11 -96h-139l-27 -217h-116l26 217h-428zM1198 313h320l61 490z" />
<glyph unicode="&#xbf;" horiz-adv-x="1036" d="M-2 -121q0 71 17.5 133.5t44.5 110.5t73.5 97t91.5 86t111 85q86 61 145 156t70 186h127q-14 -109 -75 -215.5t-150 -175.5q-56 -43 -88.5 -70t-77 -72.5t-68.5 -85t-41.5 -94.5t-17.5 -114q0 -115 75.5 -181.5t206.5 -66.5q96 0 218.5 31t224.5 82l-15 -127 q-99 -52 -226 -83.5t-238 -31.5q-188 0 -298 94.5t-110 255.5zM545 903l22 180h178l-20 -180h-180z" />
<glyph unicode="&#xc0;" horiz-adv-x="1359" d="M-49 0l749 1516h201l377 -1516h-168l-96 406h-703l-194 -406h-166zM373 535h610l-201 851zM518 1929h178l201 -295h-133z" />
<glyph unicode="&#xc1;" horiz-adv-x="1359" d="M-49 0l749 1516h201l377 -1516h-168l-96 406h-703l-194 -406h-166zM373 535h610l-201 851zM735 1634l273 295h178l-318 -295h-133z" />
<glyph unicode="&#xc2;" horiz-adv-x="1359" d="M-49 0l749 1516h201l377 -1516h-168l-96 406h-703l-194 -406h-166zM373 535h610l-201 851zM506 1634l272 295h146l200 -295h-133l-149 226l-203 -226h-133z" />
<glyph unicode="&#xc3;" horiz-adv-x="1359" d="M-49 0l749 1516h201l377 -1516h-168l-96 406h-703l-194 -406h-166zM373 535h610l-201 851zM483 1657q13 108 73 174.5t144 66.5q42 0 82.5 -23t67.5 -50.5t61.5 -50.5t65.5 -23q41 0 73.5 34.5t39.5 92.5h90q-15 -112 -74.5 -177t-142.5 -65q-34 0 -67 15t-58.5 37 t-50 44t-51.5 37t-52 15q-41 0 -73 -35t-38 -92h-90z" />
<glyph unicode="&#xc4;" horiz-adv-x="1359" d="M-49 0l749 1516h201l377 -1516h-168l-96 406h-703l-194 -406h-166zM373 535h610l-201 851zM561 1634l35 287h145l-34 -287h-146zM920 1634l36 287h146l-35 -287h-147z" />
<glyph unicode="&#xc5;" horiz-adv-x="1359" d="M-49 0l749 1516h201l377 -1516h-168l-96 406h-703l-194 -406h-166zM373 535h610l-201 851zM631 1792q0 95 64.5 155t166.5 60q83 0 132.5 -46.5t49.5 -123.5q0 -95 -64.5 -155t-166.5 -60q-84 0 -133 46.5t-49 123.5zM727 1800q0 -43 26.5 -68.5t69.5 -25.5q55 0 90 34 t35 89q0 41 -26.5 67.5t-69.5 26.5q-55 0 -90 -34t-35 -89z" />
<glyph unicode="&#xc6;" horiz-adv-x="1894" d="M-74 0l948 1516h1037l-39 -130h-758l-67 -548h710l-16 -129h-709l-71 -580h794l-14 -129h-953l50 406h-490l-254 -406h-168zM428 535h426l104 849z" />
<glyph unicode="&#xc7;" horiz-adv-x="1265" d="M131 641q0 259 96 464t263.5 318t375.5 113q118 0 231.5 -30.5t186.5 -80.5l-14 -127q-69 49 -176 79t-213 30q-166 0 -300 -95.5t-210 -267.5t-76 -389q0 -248 115 -397t313 -149q109 0 229.5 33t204.5 87l-16 -129q-73 -47 -178 -77.5t-213 -38.5l-93 -93 q90 -4 143.5 -46.5t53.5 -108.5q0 -92 -80.5 -149.5t-208.5 -57.5q-100 0 -172 31l10 82q72 -31 156 -31q73 0 119.5 32.5t46.5 84.5q0 43 -36.5 68.5t-96.5 25.5h-45l-23 51l103 109q-231 19 -363.5 196.5t-132.5 462.5z" />
<glyph unicode="&#xc8;" horiz-adv-x="1232" d="M127 0l186 1516h934l-39 -130h-755l-68 -548h709l-17 -129h-706l-72 -580h795l-17 -129h-950zM485 1929h179l200 -295h-133z" />
<glyph unicode="&#xc9;" horiz-adv-x="1232" d="M127 0l186 1516h934l-39 -130h-755l-68 -548h709l-17 -129h-706l-72 -580h795l-17 -129h-950zM702 1634l273 295h178l-317 -295h-134z" />
<glyph unicode="&#xca;" horiz-adv-x="1232" d="M127 0l186 1516h934l-39 -130h-755l-68 -548h709l-17 -129h-706l-72 -580h795l-17 -129h-950zM473 1634l272 295h146l201 -295h-134l-149 226l-203 -226h-133z" />
<glyph unicode="&#xcb;" horiz-adv-x="1232" d="M127 0l186 1516h934l-39 -130h-755l-68 -548h709l-17 -129h-706l-72 -580h795l-17 -129h-950zM528 1634l35 287h146l-35 -287h-146zM887 1634l37 287h145l-35 -287h-147z" />
<glyph unicode="&#xcc;" horiz-adv-x="540" d="M109 1929h178l200 -295h-133zM127 0l186 1516h156l-186 -1516h-156z" />
<glyph unicode="&#xcd;" horiz-adv-x="540" d="M127 0l186 1516h156l-186 -1516h-156zM326 1634l272 295h178l-317 -295h-133z" />
<glyph unicode="&#xce;" horiz-adv-x="540" d="M96 1634l273 295h145l201 -295h-133l-150 226l-203 -226h-133zM127 0l186 1516h156l-186 -1516h-156z" />
<glyph unicode="&#xcf;" horiz-adv-x="540" d="M127 0l186 1516h156l-186 -1516h-156zM152 1634l34 287h146l-35 -287h-145zM510 1634l37 287h145l-35 -287h-147z" />
<glyph unicode="&#xd0;" horiz-adv-x="1404" d="M59 707l13 110h155l86 699h402q282 0 447 -179.5t165 -476.5q0 -188 -60 -348.5t-165.5 -272.5t-253.5 -175.5t-320 -63.5h-401l86 707h-154zM299 129h229q182 0 327 90.5t227.5 254.5t82.5 372q0 245 -130 392.5t-351 147.5h-231l-70 -569h360l-12 -110h-362z" />
<glyph unicode="&#xd1;" horiz-adv-x="1472" d="M127 0l186 1516h111l674 -1225l147 1225h154l-187 -1516h-108l-678 1225l-145 -1225h-154zM526 1657q13 108 73 174.5t144 66.5q42 0 82.5 -23t67.5 -50.5t61.5 -50.5t65.5 -23q41 0 73.5 34.5t39.5 92.5h90q-15 -112 -74.5 -177t-142.5 -65q-34 0 -67 15t-58.5 37 t-50 44t-51.5 37t-52 15q-41 0 -73 -35t-38 -92h-90z" />
<glyph unicode="&#xd2;" horiz-adv-x="1525" d="M131 641q0 193 57 360t157 284.5t239.5 184t300.5 66.5q260 0 411.5 -181t151.5 -481q0 -194 -57 -360.5t-156.5 -283.5t-239.5 -183.5t-301 -66.5q-259 0 -411 180.5t-152 480.5zM293 651q0 -246 112 -394t304 -148q163 0 295 96t207 269t75 390q0 246 -112 394.5 t-304 148.5q-163 0 -295 -96t-207 -269.5t-75 -390.5zM600 1929h178l201 -295h-133z" />
<glyph unicode="&#xd3;" horiz-adv-x="1525" d="M131 641q0 193 57 360t157 284.5t239.5 184t300.5 66.5q260 0 411.5 -181t151.5 -481q0 -194 -57 -360.5t-156.5 -283.5t-239.5 -183.5t-301 -66.5q-259 0 -411 180.5t-152 480.5zM293 651q0 -246 112 -394t304 -148q163 0 295 96t207 269t75 390q0 246 -112 394.5 t-304 148.5q-163 0 -295 -96t-207 -269.5t-75 -390.5zM817 1634l273 295h178l-318 -295h-133z" />
<glyph unicode="&#xd4;" horiz-adv-x="1525" d="M131 641q0 193 57 360t157 284.5t239.5 184t300.5 66.5q260 0 411.5 -181t151.5 -481q0 -194 -57 -360.5t-156.5 -283.5t-239.5 -183.5t-301 -66.5q-259 0 -411 180.5t-152 480.5zM293 651q0 -246 112 -394t304 -148q163 0 295 96t207 269t75 390q0 246 -112 394.5 t-304 148.5q-163 0 -295 -96t-207 -269.5t-75 -390.5zM588 1634l272 295h146l200 -295h-133l-149 226l-203 -226h-133z" />
<glyph unicode="&#xd5;" horiz-adv-x="1525" d="M131 641q0 193 57 360t157 284.5t239.5 184t300.5 66.5q260 0 411.5 -181t151.5 -481q0 -194 -57 -360.5t-156.5 -283.5t-239.5 -183.5t-301 -66.5q-259 0 -411 180.5t-152 480.5zM293 651q0 -246 112 -394t304 -148q163 0 295 96t207 269t75 390q0 246 -112 394.5 t-304 148.5q-163 0 -295 -96t-207 -269.5t-75 -390.5zM565 1657q13 108 73 174.5t144 66.5q42 0 82.5 -23t67.5 -50.5t61.5 -50.5t65.5 -23q41 0 73 34.5t39 92.5h91q-15 -112 -75 -177t-143 -65q-34 0 -66.5 15t-58.5 37t-50.5 44t-51 37t-51.5 15q-41 0 -73 -35t-38 -92 h-90z" />
<glyph unicode="&#xd6;" horiz-adv-x="1525" d="M131 641q0 193 57 360t157 284.5t239.5 184t300.5 66.5q260 0 411.5 -181t151.5 -481q0 -194 -57 -360.5t-156.5 -283.5t-239.5 -183.5t-301 -66.5q-259 0 -411 180.5t-152 480.5zM293 651q0 -246 112 -394t304 -148q163 0 295 96t207 269t75 390q0 246 -112 394.5 t-304 148.5q-163 0 -295 -96t-207 -269.5t-75 -390.5zM643 1634l35 287h145l-35 -287h-145zM1001 1634l37 287h146l-35 -287h-148z" />
<glyph unicode="&#xd7;" d="M137 352l404 361l-316 358l99 90l317 -360l401 358l80 -90l-403 -358l313 -357l-98 -90l-313 359l-406 -361z" />
<glyph unicode="&#xd8;" horiz-adv-x="1531" d="M31 70l186 190q-84 159 -84 381q0 193 57 360t157 284.5t239.5 184t300.5 66.5q260 0 409 -178l174 178l86 -90l-190 -193q84 -159 84 -379q0 -194 -57 -360.5t-156.5 -283.5t-239.5 -183.5t-301 -66.5q-257 0 -407 176l-174 -176zM295 651q0 -152 43 -268l848 862 q-114 162 -314 162q-163 0 -295 -96t-207 -269.5t-75 -390.5zM399 268q112 -159 312 -159q163 0 295 96t207 269t75 390q0 150 -43 266z" />
<glyph unicode="&#xd9;" horiz-adv-x="1435" d="M170 432q0 53 4 84l123 1000h156l-123 -992q-4 -54 -4 -69q0 -158 92.5 -252t247.5 -94q172 0 291.5 114t142.5 301l123 992h155l-123 -1000q-29 -241 -196 -388.5t-410 -147.5q-220 0 -349.5 123t-129.5 329zM555 1929h178l201 -295h-133z" />
<glyph unicode="&#xda;" horiz-adv-x="1435" d="M170 432q0 53 4 84l123 1000h156l-123 -992q-4 -54 -4 -69q0 -158 92.5 -252t247.5 -94q172 0 291.5 114t142.5 301l123 992h155l-123 -1000q-29 -241 -196 -388.5t-410 -147.5q-220 0 -349.5 123t-129.5 329zM772 1634l272 295h179l-318 -295h-133z" />
<glyph unicode="&#xdb;" horiz-adv-x="1435" d="M170 432q0 53 4 84l123 1000h156l-123 -992q-4 -54 -4 -69q0 -158 92.5 -252t247.5 -94q172 0 291.5 114t142.5 301l123 992h155l-123 -1000q-29 -241 -196 -388.5t-410 -147.5q-220 0 -349.5 123t-129.5 329zM543 1634l272 295h146l200 -295h-133l-149 226l-203 -226 h-133z" />
<glyph unicode="&#xdc;" horiz-adv-x="1435" d="M170 432q0 53 4 84l123 1000h156l-123 -992q-4 -54 -4 -69q0 -158 92.5 -252t247.5 -94q172 0 291.5 114t142.5 301l123 992h155l-123 -1000q-29 -241 -196 -388.5t-410 -147.5q-220 0 -349.5 123t-129.5 329zM598 1634l35 287h145l-35 -287h-145zM956 1634l37 287h146 l-35 -287h-148z" />
<glyph unicode="&#xdd;" horiz-adv-x="1224" d="M145 1516h168l328 -738l510 738h168l-619 -887l-77 -629h-154l78 633zM668 1634l272 295h178l-317 -295h-133z" />
<glyph unicode="&#xde;" horiz-adv-x="1333" d="M127 0l186 1516h156l-33 -273h412q194 0 308 -110t114 -293q0 -231 -152.5 -378t-386.5 -147h-409l-39 -315h-156zM338 444h389q166 0 273.5 105t107.5 270q0 133 -80.5 213t-216.5 80h-391z" />
<glyph unicode="&#xdf;" horiz-adv-x="1214" d="M90 0l154 1249q20 166 143.5 267.5t304.5 101.5q166 0 265.5 -88.5t99.5 -233.5q0 -123 -62 -215t-170 -137q137 -43 213 -150t76 -257q0 -244 -151 -400.5t-383 -156.5q-78 0 -134 22l-6 123q55 -19 111 -19q180 0 296 123.5t116 315.5q0 155 -88 246.5t-240 91.5 l14 112q109 0 179.5 79t70.5 200q0 99 -60 158t-163 59q-114 0 -193 -68t-92 -180l-153 -1243h-148z" />
<glyph unicode="&#xe0;" horiz-adv-x="1241" d="M94 451q0 189 67.5 338.5t186.5 232t268 82.5q142 0 231.5 -69t127.5 -193l49 241h127l-133 -1083h-127l10 219q-66 -113 -172 -176t-250 -63q-178 0 -281.5 128.5t-103.5 342.5zM248 471q0 -165 79.5 -265t213.5 -100q173 0 286 142t113 362q0 166 -79 265.5t-214 99.5 q-171 0 -285 -142t-114 -362zM410 1597h180l192 -348h-133z" />
<glyph unicode="&#xe1;" horiz-adv-x="1241" d="M94 451q0 189 67.5 338.5t186.5 232t268 82.5q142 0 231.5 -69t127.5 -193l49 241h127l-133 -1083h-127l10 219q-66 -113 -172 -176t-250 -63q-178 0 -281.5 128.5t-103.5 342.5zM248 471q0 -165 79.5 -265t213.5 -100q173 0 286 142t113 362q0 166 -79 265.5t-214 99.5 q-171 0 -285 -142t-114 -362zM621 1249l280 348h178l-325 -348h-133z" />
<glyph unicode="&#xe2;" horiz-adv-x="1241" d="M94 451q0 189 67.5 338.5t186.5 232t268 82.5q142 0 231.5 -69t127.5 -193l49 241h127l-133 -1083h-127l10 219q-66 -113 -172 -176t-250 -63q-178 0 -281.5 128.5t-103.5 342.5zM248 471q0 -165 79.5 -265t213.5 -100q173 0 286 142t113 362q0 166 -79 265.5t-214 99.5 q-171 0 -285 -142t-114 -362zM391 1249l281 348h145l195 -348h-133l-144 267l-211 -267h-133z" />
<glyph unicode="&#xe3;" horiz-adv-x="1241" d="M94 451q0 189 67.5 338.5t186.5 232t268 82.5q142 0 231.5 -69t127.5 -193l49 241h127l-133 -1083h-127l10 219q-66 -113 -172 -176t-250 -63q-178 0 -281.5 128.5t-103.5 342.5zM248 471q0 -165 79.5 -265t213.5 -100q173 0 286 142t113 362q0 166 -79 265.5t-214 99.5 q-171 0 -285 -142t-114 -362zM375 1311q13 108 73 173.5t142 65.5q43 0 83.5 -22.5t67 -50t60.5 -50t65 -22.5q42 0 75 34t40 91h88q-15 -111 -74.5 -175.5t-140.5 -64.5q-34 0 -67 15t-58.5 37t-50 44t-51.5 37t-52 15q-41 0 -73 -35t-39 -92h-88z" />
<glyph unicode="&#xe4;" horiz-adv-x="1241" d="M94 451q0 189 67.5 338.5t186.5 232t268 82.5q142 0 231.5 -69t127.5 -193l49 241h127l-133 -1083h-127l10 219q-66 -113 -172 -176t-250 -63q-178 0 -281.5 128.5t-103.5 342.5zM248 471q0 -165 79.5 -265t213.5 -100q173 0 286 142t113 362q0 166 -79 265.5t-214 99.5 q-171 0 -285 -142t-114 -362zM455 1311l34 286h148l-35 -286h-147zM815 1311l35 286h147l-34 -286h-148z" />
<glyph unicode="&#xe5;" horiz-adv-x="1241" d="M94 451q0 189 67.5 338.5t186.5 232t268 82.5q142 0 231.5 -69t127.5 -193l49 241h127l-133 -1083h-127l10 219q-66 -113 -172 -176t-250 -63q-178 0 -281.5 128.5t-103.5 342.5zM248 471q0 -165 79.5 -265t213.5 -100q173 0 286 142t113 362q0 166 -79 265.5t-214 99.5 q-171 0 -285 -142t-114 -362zM516 1403q0 95 65 155t167 60q83 0 132.5 -46.5t49.5 -121.5q0 -96 -65 -156.5t-165 -60.5q-85 0 -134.5 47t-49.5 123zM612 1413q0 -43 27 -69.5t70 -26.5q55 0 90 34t35 89q0 42 -27 68t-70 26q-54 0 -89.5 -33.5t-35.5 -87.5z" />
<glyph unicode="&#xe6;" horiz-adv-x="1792" d="M39 238q0 181 118 279.5t330 98.5l318 -2l8 76q4 46 4 55q0 234 -268 234q-176 0 -342 -72l14 125q162 72 367 72q305 0 346 -238q73 113 181.5 175.5t238.5 62.5q166 0 263 -116t97 -312q0 -50 -6 -109l-6 -49h-758q-2 -16 -2 -47q0 -179 87 -273t257 -94q182 0 332 70 l-33 -125q-154 -69 -354 -69q-165 0 -266.5 86.5t-130.5 248.5q-68 -153 -206.5 -244t-291.5 -91q-297 0 -297 258zM195 262q0 -172 188 -172q65 0 130.5 26.5t123 74.5t98.5 124t53 168l5 27h-293q-148 0 -226.5 -64t-78.5 -184zM956 623h611q4 40 4 55q0 139 -65.5 220 t-180.5 81q-138 0 -237.5 -96.5t-131.5 -259.5z" />
<glyph unicode="&#xe7;" horiz-adv-x="991" d="M92 463q0 186 73 332.5t202 227.5t290 81q80 0 163.5 -20.5t140.5 -51.5l-17 -129q-56 32 -133 52t-149 20q-179 0 -296.5 -140.5t-117.5 -357.5q0 -167 88 -269t237 -102q75 0 158 21.5t146 58.5l-15 -125q-123 -69 -289 -79l-92 -91q90 -4 143.5 -46.5t53.5 -108.5 q0 -92 -80.5 -149.5t-208.5 -57.5q-100 0 -172 31l10 82q72 -31 156 -31q73 0 119.5 32.5t46.5 84.5q0 43 -36.5 68.5t-96.5 25.5h-45l-23 51l105 113q-168 23 -264.5 151.5t-96.5 325.5z" />
<glyph unicode="&#xe8;" horiz-adv-x="1095" d="M94 455q0 289 157.5 469t401.5 180q170 0 267.5 -118.5t97.5 -319.5q0 -50 -6 -99l-6 -53h-756q-2 -14 -2 -43q0 -179 87.5 -273t258.5 -94q180 0 330 70l-39 -125q-151 -69 -342 -69q-217 0 -333 123.5t-116 351.5zM262 621h610q2 20 2 55q0 141 -64 222t-179 81 q-139 0 -238 -96.5t-131 -261.5zM358 1597h181l192 -348h-133z" />
<glyph unicode="&#xe9;" horiz-adv-x="1095" d="M94 455q0 289 157.5 469t401.5 180q170 0 267.5 -118.5t97.5 -319.5q0 -50 -6 -99l-6 -53h-756q-2 -14 -2 -43q0 -179 87.5 -273t258.5 -94q180 0 330 70l-39 -125q-151 -69 -342 -69q-217 0 -333 123.5t-116 351.5zM262 621h610q2 20 2 55q0 141 -64 222t-179 81 q-139 0 -238 -96.5t-131 -261.5zM569 1249l281 348h178l-326 -348h-133z" />
<glyph unicode="&#xea;" horiz-adv-x="1095" d="M94 455q0 289 157.5 469t401.5 180q170 0 267.5 -118.5t97.5 -319.5q0 -50 -6 -99l-6 -53h-756q-2 -14 -2 -43q0 -179 87.5 -273t258.5 -94q180 0 330 70l-39 -125q-151 -69 -342 -69q-217 0 -333 123.5t-116 351.5zM262 621h610q2 20 2 55q0 141 -64 222t-179 81 q-139 0 -238 -96.5t-131 -261.5zM340 1249l281 348h145l195 -348h-134l-143 267l-211 -267h-133z" />
<glyph unicode="&#xeb;" horiz-adv-x="1095" d="M94 455q0 289 157.5 469t401.5 180q170 0 267.5 -118.5t97.5 -319.5q0 -50 -6 -99l-6 -53h-756q-2 -14 -2 -43q0 -179 87.5 -273t258.5 -94q180 0 330 70l-39 -125q-151 -69 -342 -69q-217 0 -333 123.5t-116 351.5zM262 621h610q2 20 2 55q0 141 -64 222t-179 81 q-139 0 -238 -96.5t-131 -261.5zM403 1311l35 286h148l-35 -286h-148zM764 1311l35 286h147l-35 -286h-147z" />
<glyph unicode="&#xec;" horiz-adv-x="468" d="M29 1597h180l192 -348h-133zM94 0l133 1083h148l-133 -1083h-148z" />
<glyph unicode="&#xed;" horiz-adv-x="468" d="M94 0l133 1083h148l-133 -1083h-148zM240 1249l280 348h178l-325 -348h-133z" />
<glyph unicode="&#xee;" horiz-adv-x="468" d="M10 1249l281 348h145l195 -348h-133l-144 267l-211 -267h-133zM94 0l133 1083h148l-133 -1083h-148z" />
<glyph unicode="&#xef;" horiz-adv-x="468" d="M74 1311l35 286h147l-35 -286h-147zM94 0l133 1083h148l-133 -1083h-148zM434 1311l35 286h147l-34 -286h-148z" />
<glyph unicode="&#xf0;" horiz-adv-x="1191" d="M92 461q0 137 42 256t113.5 201t169.5 129t208 47q160 0 258 -95q-72 195 -238 361l-160 -107l-69 64l159 108q-82 68 -147 111l133 82q67 -43 141 -107l158 107l78 -64l-164 -108q160 -157 244 -347.5t84 -400.5q0 -320 -164 -519t-416 -199q-198 0 -314 131.5 t-116 349.5zM248 471q0 -166 79 -265.5t214 -99.5q171 0 284 142t113 362q0 165 -78.5 265t-212.5 100q-174 0 -286.5 -141t-112.5 -363z" />
<glyph unicode="&#xf1;" horiz-adv-x="1200" d="M90 0l135 1083h125l-14 -227q67 119 178.5 183.5t257.5 64.5q150 0 226.5 -82t76.5 -242q0 -46 -6 -98l-84 -682h-147l80 653q6 44 6 78q0 244 -224 244q-154 0 -259.5 -101t-127.5 -268l-75 -606h-148zM367 1311q13 108 73 173.5t142 65.5q43 0 83.5 -22.5t67 -50 t60.5 -50t65 -22.5q42 0 75 34t40 91h88q-15 -111 -74.5 -175.5t-140.5 -64.5q-34 0 -67 15t-58.5 37t-50 44t-51.5 37t-52 15q-41 0 -73 -35t-39 -92h-88z" />
<glyph unicode="&#xf2;" horiz-adv-x="1185" d="M92 461q0 283 161.5 463t408.5 180q199 0 314.5 -131.5t115.5 -351.5q0 -282 -160 -461.5t-408 -179.5q-199 0 -315.5 131.5t-116.5 349.5zM248 473q0 -167 78.5 -267t212.5 -100q173 0 286 142t113 362q0 166 -79 265.5t-214 99.5q-171 0 -284 -141t-113 -361zM387 1597 h180l193 -348h-133z" />
<glyph unicode="&#xf3;" horiz-adv-x="1185" d="M92 461q0 283 161.5 463t408.5 180q199 0 314.5 -131.5t115.5 -351.5q0 -282 -160 -461.5t-408 -179.5q-199 0 -315.5 131.5t-116.5 349.5zM248 473q0 -167 78.5 -267t212.5 -100q173 0 286 142t113 362q0 166 -79 265.5t-214 99.5q-171 0 -284 -141t-113 -361zM598 1249 l281 348h178l-326 -348h-133z" />
<glyph unicode="&#xf4;" horiz-adv-x="1185" d="M92 461q0 283 161.5 463t408.5 180q199 0 314.5 -131.5t115.5 -351.5q0 -282 -160 -461.5t-408 -179.5q-199 0 -315.5 131.5t-116.5 349.5zM248 473q0 -167 78.5 -267t212.5 -100q173 0 286 142t113 362q0 166 -79 265.5t-214 99.5q-171 0 -284 -141t-113 -361zM369 1249 l280 348h146l194 -348h-133l-143 267l-211 -267h-133z" />
<glyph unicode="&#xf5;" horiz-adv-x="1185" d="M92 461q0 283 161.5 463t408.5 180q199 0 314.5 -131.5t115.5 -351.5q0 -282 -160 -461.5t-408 -179.5q-199 0 -315.5 131.5t-116.5 349.5zM248 473q0 -167 78.5 -267t212.5 -100q173 0 286 142t113 362q0 166 -79 265.5t-214 99.5q-171 0 -284 -141t-113 -361zM352 1311 q13 108 73 173.5t142 65.5q43 0 83.5 -22.5t67.5 -50t61 -50t65 -22.5q42 0 74.5 34t39.5 91h89q-15 -110 -75 -175t-141 -65q-34 0 -66.5 15t-58.5 37t-50.5 44t-51 37t-51.5 15q-41 0 -73.5 -35t-39.5 -92h-88z" />
<glyph unicode="&#xf6;" horiz-adv-x="1185" d="M92 461q0 283 161.5 463t408.5 180q199 0 314.5 -131.5t115.5 -351.5q0 -282 -160 -461.5t-408 -179.5q-199 0 -315.5 131.5t-116.5 349.5zM248 473q0 -167 78.5 -267t212.5 -100q173 0 286 142t113 362q0 166 -79 265.5t-214 99.5q-171 0 -284 -141t-113 -361zM432 1311 l35 286h147l-34 -286h-148zM793 1311l34 286h148l-35 -286h-147z" />
<glyph unicode="&#xf7;" d="M141 647l15 127h960l-16 -127h-959zM479 221l23 178h178l-23 -178h-178zM578 1022l22 178h180l-24 -178h-178z" />
<glyph unicode="&#xf8;" horiz-adv-x="1187" d="M37 68l121 120q-64 116 -64 273q0 283 161.5 463t408.5 180q183 0 294 -111l111 111l82 -88l-119 -121q62 -121 62 -274q0 -282 -160 -461.5t-408 -179.5q-185 0 -295 110l-110 -110zM250 473q0 -95 24 -166l578 580q-78 88 -205 88q-171 0 -284 -141t-113 -361zM336 197 q81 -91 205 -91q173 0 286 142t113 362q0 94 -27 168z" />
<glyph unicode="&#xf9;" horiz-adv-x="1179" d="M125 301q0 45 6 98l84 684h147l-79 -655q-7 -51 -7 -80q0 -242 213 -242q149 0 253 101.5t124 267.5l74 608h147l-133 -1083h-125l15 225q-67 -119 -175 -182t-251 -63q-293 0 -293 321zM379 1597h180l193 -348h-134z" />
<glyph unicode="&#xfa;" horiz-adv-x="1179" d="M125 301q0 45 6 98l84 684h147l-79 -655q-7 -51 -7 -80q0 -242 213 -242q149 0 253 101.5t124 267.5l74 608h147l-133 -1083h-125l15 225q-67 -119 -175 -182t-251 -63q-293 0 -293 321zM590 1249l280 348h179l-326 -348h-133z" />
<glyph unicode="&#xfb;" horiz-adv-x="1179" d="M125 301q0 45 6 98l84 684h147l-79 -655q-7 -51 -7 -80q0 -242 213 -242q149 0 253 101.5t124 267.5l74 608h147l-133 -1083h-125l15 225q-67 -119 -175 -182t-251 -63q-293 0 -293 321zM360 1249l281 348h145l195 -348h-133l-143 267l-211 -267h-134z" />
<glyph unicode="&#xfc;" horiz-adv-x="1179" d="M125 301q0 45 6 98l84 684h147l-79 -655q-7 -51 -7 -80q0 -242 213 -242q149 0 253 101.5t124 267.5l74 608h147l-133 -1083h-125l15 225q-67 -119 -175 -182t-251 -63q-293 0 -293 321zM424 1311l35 286h147l-35 -286h-147zM784 1311l35 286h148l-35 -286h-148z" />
<glyph unicode="&#xfd;" horiz-adv-x="1179" d="M72 -293q125 -51 323 -51q167 0 282.5 104.5t137.5 274.5l25 184q-67 -115 -174.5 -177t-247.5 -62q-293 0 -293 321q0 45 6 98l84 684h147l-79 -655q-7 -51 -7 -80q0 -242 213 -242q149 0 253 101.5t124 267.5l76 608h145l-129 -1054q-28 -226 -177 -363t-369 -137 q-209 0 -334 51zM592 1249l280 348h179l-326 -348h-133z" />
<glyph unicode="&#xfe;" horiz-adv-x="1241" d="M35 -451l252 2048h147l-88 -718q141 225 414 225q180 0 282.5 -129.5t102.5 -347.5q0 -284 -147.5 -465.5t-374.5 -181.5q-138 0 -227.5 67.5t-129.5 188.5l-84 -687h-147zM299 473q0 -167 78.5 -267t214.5 -100q172 0 285.5 141t113.5 361q0 167 -78.5 267t-212.5 100 q-174 0 -287.5 -141t-113.5 -361z" />
<glyph unicode="&#xff;" horiz-adv-x="1179" d="M72 -293q125 -51 323 -51q167 0 282.5 104.5t137.5 274.5l25 184q-67 -115 -174.5 -177t-247.5 -62q-293 0 -293 321q0 45 6 98l84 684h147l-79 -655q-7 -51 -7 -80q0 -242 213 -242q149 0 253 101.5t124 267.5l76 608h145l-129 -1054q-28 -226 -177 -363t-369 -137 q-209 0 -334 51zM426 1311l35 286h147l-35 -286h-147zM786 1311l35 286h148l-35 -286h-148z" />
<glyph unicode="&#x131;" horiz-adv-x="468" d="M94 0l133 1083h148l-133 -1083h-148z" />
<glyph unicode="&#x152;" horiz-adv-x="2086" d="M129 649q0 188 59 350t162 275.5t248.5 177.5t314.5 64h1188l-39 -130h-755l-68 -548h709l-17 -129h-706l-72 -580h795l-17 -129h-1204q-276 0 -437 177.5t-161 471.5zM291 664q0 -241 126 -388t341 -147h239l154 1257h-240q-268 0 -444 -203t-176 -519z" />
<glyph unicode="&#x153;" horiz-adv-x="1931" d="M92 461q0 283 159.5 463t403.5 180q146 0 245 -81.5t136 -225.5q68 145 187.5 226t269.5 81q168 0 264 -118.5t96 -319.5q0 -46 -6 -99l-6 -53h-756q-2 -14 -2 -43q0 -180 86.5 -273.5t257.5 -93.5q180 0 330 70l-37 -125q-154 -69 -352 -69q-157 0 -255 77.5t-132 223.5 q-68 -141 -189.5 -221t-273.5 -80q-197 0 -311.5 131.5t-114.5 349.5zM248 473q0 -167 78.5 -267t212.5 -100q173 0 286 142t113 362q0 166 -79 265.5t-214 99.5q-171 0 -284 -141t-113 -361zM1098 621h608q2 20 2 59q0 138 -65 218.5t-179 80.5q-139 0 -236.5 -96.5 t-129.5 -261.5z" />
<glyph unicode="&#x178;" horiz-adv-x="1224" d="M145 1516h168l328 -738l510 738h168l-619 -887l-77 -629h-154l78 633zM494 1634l34 287h146l-35 -287h-145zM852 1634l37 287h145l-35 -287h-147z" />
<glyph unicode="&#x237;" horiz-adv-x="479" d="M-225 -319q55 -25 121 -25q75 0 128.5 50.5t63.5 133.5l154 1243h145l-156 -1276q-15 -126 -98 -202t-203 -76q-89 0 -149 31z" />
<glyph unicode="&#x2c6;" horiz-adv-x="782" d="M168 1249l281 348h145l194 -348h-133l-143 267l-211 -267h-133z" />
<glyph unicode="&#x2dc;" horiz-adv-x="854" d="M203 1311q13 108 73 173.5t142 65.5q43 0 83.5 -22.5t67 -50t60.5 -50t65 -22.5q42 0 75 34t40 91h88q-15 -111 -74.5 -175.5t-140.5 -64.5q-34 0 -67 15t-58.5 37t-50 44t-51.5 37t-52 15q-41 0 -73 -35t-39 -92h-88z" />
<glyph unicode="&#x2000;" horiz-adv-x="1003" />
<glyph unicode="&#x2001;" horiz-adv-x="2007" />
<glyph unicode="&#x2002;" horiz-adv-x="1003" />
<glyph unicode="&#x2003;" horiz-adv-x="2007" />
<glyph unicode="&#x2004;" horiz-adv-x="669" />
<glyph unicode="&#x2005;" horiz-adv-x="501" />
<glyph unicode="&#x2006;" horiz-adv-x="334" />
<glyph unicode="&#x2007;" horiz-adv-x="334" />
<glyph unicode="&#x2008;" horiz-adv-x="250" />
<glyph unicode="&#x2009;" horiz-adv-x="401" />
<glyph unicode="&#x200a;" horiz-adv-x="111" />
<glyph unicode="&#x2010;" horiz-adv-x="897" d="M139 526l15 123h612l-14 -123h-613z" />
<glyph unicode="&#x2011;" horiz-adv-x="897" d="M139 526l15 123h612l-14 -123h-613z" />
<glyph unicode="&#x2012;" horiz-adv-x="897" d="M139 526l15 123h612l-14 -123h-613z" />
<glyph unicode="&#x2013;" horiz-adv-x="1282" d="M139 526l15 123h999l-14 -123h-1000z" />
<glyph unicode="&#x2014;" horiz-adv-x="1951" d="M139 526l15 123h1669l-15 -123h-1669z" />
<glyph unicode="&#x2018;" horiz-adv-x="471" d="M182 1014l23 176q17 155 96 250.5t188 95.5l-10 -57q-66 0 -115.5 -75t-64.5 -198h102l-24 -192h-195z" />
<glyph unicode="&#x2019;" horiz-adv-x="466" d="M170 993l8 60q66 0 116.5 74.5t65.5 195.5h-102l25 193h194l-22 -175q-19 -156 -97.5 -252t-187.5 -96z" />
<glyph unicode="&#x201a;" horiz-adv-x="466" d="M-6 -330l8 60q66 0 116.5 74.5t65.5 195.5h-102l24 193h195l-22 -175q-19 -156 -97.5 -252t-187.5 -96z" />
<glyph unicode="&#x201c;" horiz-adv-x="776" d="M182 1014l23 176q17 155 96 250.5t188 95.5l-10 -57q-66 0 -115.5 -75t-64.5 -198h102l-24 -192h-195zM487 1014l23 176q19 155 97.5 250.5t187.5 95.5l-9 -57q-67 0 -117 -75t-65 -198h103l-25 -192h-195z" />
<glyph unicode="&#x201d;" horiz-adv-x="772" d="M170 993l8 60q66 0 116.5 74.5t65.5 195.5h-102l25 193h194l-22 -175q-19 -156 -97.5 -252t-187.5 -96zM477 993l6 60q66 0 117 74.5t66 195.5h-103l25 193h194l-22 -175q-19 -157 -96.5 -252.5t-186.5 -95.5z" />
<glyph unicode="&#x201e;" horiz-adv-x="774" d="M-6 -330l8 60q66 0 116.5 74.5t65.5 195.5h-102l24 193h195l-22 -175q-19 -156 -97.5 -252t-187.5 -96zM299 -330l8 60q66 0 116.5 74.5t65.5 195.5h-102l25 193h194l-22 -175q-19 -156 -97.5 -252t-187.5 -96z" />
<glyph unicode="&#x2022;" horiz-adv-x="688" d="M184 504l41 323h307l-38 -323h-310z" />
<glyph unicode="&#x2026;" horiz-adv-x="1200" d="M80 0l22 193h195l-23 -193h-194zM449 0l22 193h195l-23 -193h-194zM819 0l23 193h194l-22 -193h-195z" />
<glyph unicode="&#x202f;" horiz-adv-x="401" />
<glyph unicode="&#x2039;" horiz-adv-x="661" d="M88 553l377 459h162l-379 -459l266 -459h-162z" />
<glyph unicode="&#x203a;" horiz-adv-x="659" d="M37 94l379 459l-266 459h161l264 -459l-376 -459h-162z" />
<glyph unicode="&#x2044;" horiz-adv-x="368" d="M-336 31l995 1505l101 -51l-996 -1505z" />
<glyph unicode="&#x205f;" horiz-adv-x="501" />
<glyph unicode="&#x2070;" horiz-adv-x="731" d="M127 1190q0 240 110 395.5t275 155.5q125 0 197.5 -105t72.5 -278q0 -240 -110 -395.5t-275 -155.5q-125 0 -197.5 105t-72.5 278zM246 1186q0 -127 44.5 -203t121.5 -76q103 0 176.5 132t73.5 323q0 126 -43.5 202t-116.5 76q-107 0 -181.5 -131t-74.5 -323z" />
<glyph unicode="&#x2074;" horiz-adv-x="731" d="M80 1036l14 97l463 596h152l-72 -596h137l-10 -97h-139l-27 -217h-117l27 217h-428zM201 1133h319l62 489z" />
<glyph unicode="&#x2075;" horiz-adv-x="731" d="M106 854l13 96q91 -43 248 -43q116 0 188 54t72 143q0 70 -52.5 113t-140.5 43q-77 0 -192 -27l-62 27l88 469h500l-25 -97h-378l-60 -299q101 19 154 19q134 0 211.5 -66t77.5 -174q0 -136 -106 -220.5t-273 -84.5q-76 0 -148.5 13t-114.5 34z" />
<glyph unicode="&#x2076;" horiz-adv-x="731" d="M131 1104q0 175 67 321t187 231t268 85q56 0 119 -19l4 -96q-63 19 -117 19q-131 0 -239 -93.5t-148 -253.5q45 45 111 71t139 26q109 0 173.5 -67.5t64.5 -180.5q0 -151 -99.5 -245.5t-254.5 -94.5q-127 0 -201 79t-74 218zM250 1096q0 -85 45.5 -137t122.5 -52 q96 0 157.5 63.5t61.5 162.5q0 79 -46.5 127.5t-123.5 48.5q-96 0 -156.5 -58.5t-60.5 -154.5z" />
<glyph unicode="&#x2077;" horiz-adv-x="731" d="M188 1628l11 101h614l-10 -84l-438 -826h-123l432 809h-486z" />
<glyph unicode="&#x2078;" horiz-adv-x="731" d="M104 1040q0 91 57 160t154 100q-122 52 -122 181q0 117 89 188.5t232 71.5q119 0 189.5 -57.5t70.5 -153.5q0 -81 -46 -141.5t-126 -90.5q72 -26 112 -79t40 -125q0 -126 -100 -206.5t-255 -80.5q-134 0 -214.5 64t-80.5 169zM225 1055q0 -71 50.5 -113.5t134.5 -42.5 q99 0 163 55t64 142q0 72 -49.5 114.5t-134.5 42.5q-99 0 -163.5 -55t-64.5 -143zM309 1475q0 -60 42.5 -97t113.5 -37q83 0 136.5 49t53.5 126q0 60 -42.5 96.5t-112.5 36.5q-83 0 -137 -49t-54 -125z" />
<glyph unicode="&#x2079;" horiz-adv-x="731" d="M137 922q63 -19 117 -19q129 0 234.5 95.5t146.5 256.5q-44 -43 -108.5 -66.5t-135.5 -23.5q-107 0 -169 66.5t-62 177.5q0 147 97.5 239.5t250.5 92.5q125 0 196.5 -78.5t71.5 -214.5q0 -175 -66.5 -322t-185 -233t-264.5 -86q-63 0 -119 18zM283 1421q0 -76 44 -123 t119 -47q93 0 152 57t59 150q0 84 -43 133t-118 49q-93 0 -153 -61t-60 -158z" />
<glyph unicode="&#x2080;" horiz-adv-x="731" d="M2 166q0 240 110 395.5t275 155.5q125 0 197.5 -105t72.5 -278q0 -240 -110 -395.5t-275 -155.5q-125 0 -197.5 105t-72.5 278zM121 162q0 -127 44.5 -203t121.5 -76q103 0 176.5 132t73.5 323q0 126 -43.5 202t-116.5 76q-107 0 -181.5 -131t-74.5 -323z" />
<glyph unicode="&#x2081;" horiz-adv-x="731" d="M-14 -205l10 96h291l88 713h-234l29 101h334l-101 -814h197l-10 -96h-604z" />
<glyph unicode="&#x2082;" horiz-adv-x="731" d="M-31 -205l11 84l325 293q43 37 70.5 63.5t63.5 69t54.5 86.5t18.5 88q0 63 -41.5 100t-112.5 37q-134 0 -286 -71l14 96q65 34 148 55t153 21q114 0 180 -57t66 -154q0 -56 -20 -109.5t-59.5 -105t-80.5 -93t-102 -94.5l-242 -213h471l-27 -96h-604z" />
<glyph unicode="&#x2083;" horiz-adv-x="731" d="M-29 -172l11 98q101 -43 247 -43q116 0 188 52t72 135q0 68 -56.5 108.5t-151.5 40.5h-64l-27 70l306 315h-422l12 101h578l-9 -70l-323 -330q127 -1 202.5 -63t75.5 -162q0 -132 -107 -214.5t-276 -82.5q-157 0 -256 45z" />
<glyph unicode="&#x2084;" horiz-adv-x="731" d="M-49 12l14 97l463 596h152l-72 -596h137l-10 -97h-139l-27 -217h-117l27 217h-428zM72 109h319l62 489z" />
<glyph unicode="&#x2085;" horiz-adv-x="731" d="M-18 -170l12 96q91 -43 248 -43q116 0 188 54t72 143q0 70 -52.5 113t-140.5 43q-77 0 -192 -27l-62 27l88 469h500l-25 -97h-378l-60 -299q101 19 154 19q134 0 211.5 -66t77.5 -174q0 -136 -106 -220.5t-273 -84.5q-170 0 -262 47z" />
<glyph unicode="&#x2086;" horiz-adv-x="731" d="M4 80q0 175 67 321t187 231t268 85q56 0 119 -19l4 -96q-63 19 -117 19q-131 0 -239 -93.5t-148 -253.5q45 45 111 71t139 26q109 0 173.5 -67.5t64.5 -180.5q0 -151 -99.5 -245.5t-254.5 -94.5q-127 0 -201 79t-74 218zM123 72q0 -85 45.5 -137t122.5 -52 q96 0 157.5 63.5t61.5 162.5q0 79 -46.5 127.5t-123.5 48.5q-96 0 -156.5 -58.5t-60.5 -154.5z" />
<glyph unicode="&#x2087;" horiz-adv-x="731" d="M59 604l11 101h614l-10 -84l-438 -826h-123l432 809h-486z" />
<glyph unicode="&#x2088;" horiz-adv-x="731" d="M-20 16q0 91 56.5 160t153.5 100q-122 52 -122 181q0 117 89 188.5t232 71.5q119 0 189.5 -57.5t70.5 -153.5q0 -81 -46 -141.5t-126 -90.5q72 -26 112 -79t40 -125q0 -126 -100 -206.5t-255 -80.5q-134 0 -214 64t-80 169zM100 31q0 -71 50.5 -113.5t134.5 -42.5 q99 0 163 55t64 142q0 72 -49.5 114.5t-134.5 42.5q-99 0 -163.5 -55t-64.5 -143zM184 451q0 -60 42.5 -97t113.5 -37q83 0 136.5 49t53.5 126q0 60 -42.5 96.5t-112.5 36.5q-83 0 -137 -49t-54 -125z" />
<glyph unicode="&#x2089;" horiz-adv-x="731" d="M12 -102q63 -19 117 -19q129 0 234.5 95.5t146.5 256.5q-44 -43 -108.5 -66.5t-135.5 -23.5q-107 0 -169 66.5t-62 177.5q0 147 97.5 239.5t250.5 92.5q125 0 196.5 -78.5t71.5 -214.5q0 -175 -66.5 -322t-185 -233t-264.5 -86q-63 0 -119 18zM158 397q0 -76 44 -123 t120 -47q93 0 151.5 57t58.5 150q0 84 -43 133t-118 49q-93 0 -153 -61t-60 -158z" />
<glyph unicode="&#x20ac;" d="M43 522l16 125h115q0 97 21 219h-109l14 125h125q77 251 249.5 398t397.5 147q105 0 210 -26.5t171 -69.5l-16 -131q-60 44 -156.5 71t-193.5 27q-166 0 -299 -111.5t-199 -304.5h567l-36 -125h-564q-20 -113 -20 -219h506l-37 -125h-461q25 -191 124.5 -302t252.5 -111 q102 0 213 32t190 84l-16 -129q-78 -53 -196 -84.5t-234 -31.5q-210 0 -342.5 146t-155.5 396h-137z" />
<glyph unicode="&#x2122;" horiz-adv-x="1335" d="M184 1538l6 59h439l-6 -59h-187l-65 -547h-70l66 547h-183zM639 991l74 606h94l147 -417l254 417h92l-73 -606h-70l66 516l-260 -426h-37l-154 426l-61 -516h-72z" />
<glyph unicode="&#x25fc;" horiz-adv-x="1085" d="M0 0v1085h1085v-1085h-1085z" />
<glyph horiz-adv-x="892" d="M12 39v127q86 -57 224 -57q120 0 203 75t98 197l125 1010h-457l14 125h612l-143 -1162q-22 -169 -141.5 -271.5t-296.5 -102.5q-146 0 -238 59zM453 1634l272 295h178l-317 -295h-133z" />
<glyph horiz-adv-x="468" d="M94 0l133 1083h148l-133 -1083h-148zM254 1311l35 286h151l-34 -286h-152z" />
<glyph horiz-adv-x="479" d="M-225 -319q55 -25 121 -25q75 0 128.5 50.5t63.5 133.5l154 1243h145l-156 -1276q-15 -126 -98 -202t-203 -76q-89 0 -149 31zM254 1249l281 348h178l-326 -348h-133z" />
<glyph d="M84 541q0 166 47 309.5t129.5 244t197.5 157.5t247 57q209 0 331.5 -153t122.5 -408q0 -222 -80.5 -398t-221.5 -273t-316 -97q-211 0 -334 153t-123 408zM240 549q0 -202 84.5 -322.5t232.5 -120.5q126 0 228 81t160.5 227t58.5 327q0 200 -84.5 319.5t-231.5 119.5 q-127 0 -229 -80.5t-160.5 -225t-58.5 -325.5z" />
<glyph d="M41 0l16 123h523l129 1042h-408l37 123h532l-143 -1165h389l-14 -123h-1061z" />
<glyph d="M25 0l14 111l594 426q57 41 92.5 67.5t89.5 75t85 88.5t55 93t24 104q0 97 -82.5 156t-222.5 59q-107 0 -234 -33.5t-225 -87.5l14 125q100 56 229.5 90.5t239.5 34.5q199 0 317 -86t118 -228q0 -68 -27.5 -135.5t-64.5 -118t-101 -109.5t-110.5 -94.5t-118.5 -86.5 l-461 -328h840l-37 -123h-1028z" />
<glyph d="M43 -8q65 -40 179 -65t235 -25q203 0 330.5 98.5t127.5 257.5q0 130 -100 209.5t-264 79.5h-123l-22 78l530 540h-707l17 123h891l-13 -102l-536 -533h24q209 0 334 -105t125 -276q0 -221 -167 -359t-433 -138q-128 0 -243.5 25.5t-176.5 68.5z" />
<glyph d="M-18 57l18 133l815 1098h199l-135 -1108h256l-17 -123h-254l-33 -262h-147l33 262h-735zM127 180h606l123 991z" />
<glyph d="M33 -147l14 122q70 -33 182.5 -53t227.5 -20q208 0 342.5 99.5t134.5 258.5q0 128 -98 207.5t-261 79.5q-146 0 -331 -49l-88 22l145 768h817l-37 -123h-663l-103 -538q175 35 295 35q219 0 348 -107t129 -283q0 -145 -80.5 -259t-223.5 -176t-322 -62q-123 0 -240 21.5 t-188 56.5z" />
<glyph d="M94 467q0 221 66 418t180 340.5t276 227t347 83.5q105 0 196 -31l8 -125q-97 33 -192 33q-240 0 -435.5 -180.5t-263.5 -478.5q72 95 194.5 149.5t264.5 54.5q185 0 294.5 -113.5t109.5 -303.5q0 -164 -76 -292.5t-209.5 -198.5t-302.5 -70q-212 0 -334.5 129.5 t-122.5 357.5zM246 455q0 -158 86.5 -253.5t234.5 -95.5q182 0 299 116.5t117 301.5q0 146 -88 235t-238 89q-180 0 -295.5 -108t-115.5 -285z" />
<glyph d="M184 1165l9 123h1015l-12 -108l-731 -1385h-154l725 1370h-852z" />
<glyph d="M53 365q0 156 97.5 272t265.5 166q-102 40 -158.5 118.5t-56.5 182.5q0 192 148 312t382 120q199 0 317.5 -95.5t118.5 -254.5q0 -135 -81 -237t-220 -148q127 -43 197 -133.5t70 -212.5q0 -210 -166.5 -342.5t-425.5 -132.5q-223 0 -355.5 105.5t-132.5 279.5zM209 387 q0 -129 94 -207t252 -78q186 0 304 99.5t118 257.5q0 130 -92.5 208t-249.5 78q-187 0 -306.5 -99.5t-119.5 -258.5zM352 1100q0 -113 80 -180.5t215 -67.5q160 0 261.5 86.5t101.5 224.5q0 113 -79.5 181.5t-213.5 68.5q-160 0 -262.5 -87.5t-102.5 -225.5z" />
<glyph d="M80 -72q88 -30 192 -30q116 0 226 46t202 130.5t161.5 210.5t101.5 278q-69 -92 -189.5 -143t-259.5 -51q-182 0 -288.5 108.5t-106.5 290.5q0 240 160.5 390.5t412.5 150.5q208 0 328.5 -125.5t120.5 -345.5q0 -218 -64.5 -414t-177 -338.5t-272.5 -226.5t-342 -84 q-109 0 -197 30zM274 784q0 -139 85.5 -222t230.5 -83q177 0 288 102t111 271q0 149 -84 239.5t-227 90.5q-177 0 -290.5 -111.5t-113.5 -286.5z" />
<glyph d="M92 618q0 197 49 368.5t133.5 292t203 189t253.5 68.5q209 0 329 -174.5t120 -464.5q0 -262 -83 -472t-229.5 -327.5t-326.5 -117.5q-208 0 -328.5 174t-120.5 464zM254 618q0 -232 81.5 -370.5t221.5 -138.5q95 0 180.5 60t147 164.5t97.5 251.5t36 314 q0 231 -80.5 369.5t-220.5 138.5q-128 0 -234.5 -102.5t-167.5 -283.5t-61 -403z" />
<glyph d="M59 0l15 125h499l154 1261h-397l39 130h532l-170 -1391h344l-14 -125h-1002z" />
<glyph d="M35 0l14 111l549 493q137 124 182 171q197 206 197 382q0 115 -80 182.5t-215 67.5q-102 0 -228 -36.5t-227 -96.5l17 127q97 61 224 98t241 37q197 0 313.5 -95.5t116.5 -256.5q0 -55 -15 -111t-34.5 -101t-61 -101.5t-70 -91.5t-88.5 -94t-89 -86t-97 -89l-430 -385 h817l-37 -125h-999z" />
<glyph d="M43 55l14 127q76 -32 189 -52.5t223 -20.5q209 0 340 97.5t131 252.5q0 125 -103.5 200.5t-277.5 75.5h-104l-33 96l547 555h-750l17 130h956l-12 -105l-574 -565h17q220 0 350.5 -102.5t130.5 -272.5q0 -144 -81 -256t-225.5 -173.5t-328.5 -61.5q-121 0 -237.5 21 t-188.5 54z" />
<glyph d="M12 371l17 135l807 1010h219l-125 -1020h233l-14 -125h-236l-45 -371h-155l47 371h-748zM168 496h608l113 905z" />
<glyph d="M55 57l15 127q74 -34 187 -54.5t228 -20.5q206 0 337.5 101t131.5 263q0 132 -94.5 211.5t-255.5 79.5q-155 0 -332 -47l-92 22l146 777h841l-39 -130h-677l-105 -540q152 35 293 35q221 0 351 -108t130 -288q0 -224 -178 -364.5t-455 -140.5q-124 0 -243 21t-189 56z " />
<glyph d="M94 467q0 221 66 418t180 340.5t276 227t347 83.5q101 0 196 -31l8 -125q-91 31 -192 31q-155 0 -295 -76.5t-246 -226.5t-151 -350q72 93 193.5 146.5t258.5 53.5q185 0 294.5 -113.5t109.5 -303.5q0 -164 -76 -292.5t-209.5 -198.5t-302.5 -70q-212 0 -334.5 129.5 t-122.5 357.5zM254 453q0 -156 84.5 -250t228.5 -94q178 0 293 116t115 299q0 146 -85.5 233t-232.5 87q-177 0 -290 -106.5t-113 -284.5z" />
<glyph d="M197 1386l14 130h1020l-14 -109l-742 -1407h-166l731 1386h-843z" />
<glyph d="M53 365q0 156 97 272t264 166q-102 41 -157.5 119t-55.5 182q0 192 148 312t382 120q199 0 317.5 -95.5t118.5 -254.5q0 -133 -80 -235t-217 -150q125 -43 194 -133t69 -213q0 -210 -166.5 -342.5t-425.5 -132.5q-223 0 -355.5 105.5t-132.5 279.5zM219 389 q0 -128 90.5 -204t245.5 -76q184 0 300 96.5t116 251.5q0 128 -91 205t-247 77q-182 0 -298 -97.5t-116 -252.5zM360 1100q0 -109 78 -175.5t209 -66.5q156 0 255 84t99 219q0 111 -77 178.5t-209 67.5q-155 0 -255 -86t-100 -221z" />
<glyph d="M104 135q91 -31 195 -31q152 0 290.5 79t243 232.5t148.5 356.5q-70 -90 -188 -142t-252 -52q-182 0 -289 111.5t-107 297.5q0 244 161 396.5t413 152.5q207 0 327.5 -128.5t120.5 -350.5q0 -221 -65 -419.5t-177.5 -343t-273 -229.5t-342.5 -85q-108 0 -196 30z M309 1004q0 -142 83.5 -227t223.5 -85q171 0 281.5 104t110.5 275q0 153 -81.5 244.5t-221.5 91.5q-173 0 -284.5 -112.5t-111.5 -290.5z" />
<glyph horiz-adv-x="731" d="M27 371q0 240 110 395.5t275 155.5q125 0 197.5 -105t72.5 -278q0 -240 -110 -395.5t-275 -155.5q-125 0 -197.5 105t-72.5 278zM145 367q0 -127 44.5 -203t121.5 -76q103 0 176.5 132t73.5 323q0 126 -43.5 202t-116.5 76q-107 0 -181.5 -131t-74.5 -323z" />
<glyph horiz-adv-x="731" d="M12 0l11 96h290l88 713h-233l29 100h333l-100 -813h197l-11 -96h-604z" />
<glyph horiz-adv-x="731" d="M-6 0l10 84l326 293q43 37 70.5 63.5t63.5 69t54.5 86.5t18.5 88q0 63 -41.5 100t-112.5 37q-61 0 -139.5 -19.5t-147.5 -51.5l15 96q65 34 148 55t153 21q114 0 179.5 -57t65.5 -154q0 -56 -20 -109.5t-59.5 -105t-80.5 -93t-102 -94.5l-241 -213h471l-27 -96h-604z" />
<glyph horiz-adv-x="731" d="M-6 33l10 98q101 -43 248 -43q116 0 188 51.5t72 134.5q0 68 -57 109t-152 41h-63l-27 70l305 315h-422l13 100h577l-8 -69l-324 -330q127 -1 203 -63t76 -162q0 -132 -107 -214.5t-276 -82.5q-157 0 -256 45z" />
<glyph horiz-adv-x="731" d="M-23 217l15 96l463 596h151l-71 -596h137l-10 -96h-140l-26 -217h-117l27 217h-429zM98 313h320l61 490z" />
<glyph horiz-adv-x="731" d="M6 35l12 96q91 -43 248 -43q116 0 188 54t72 143q0 70 -52 112.5t-140 42.5q-82 0 -193 -26l-61 26l88 469h500l-25 -96h-379l-59 -299q95 18 153 18q134 0 211.5 -65.5t77.5 -173.5q0 -136 -106 -220.5t-273 -84.5q-170 0 -262 47z" />
<glyph horiz-adv-x="731" d="M29 285q0 175 67 321t187 231t268 85q56 0 119 -19l4 -96q-59 18 -117 18q-131 0 -239 -93t-148 -253q45 45 111 70.5t139 25.5q109 0 173 -67t64 -180q0 -151 -99.5 -245.5t-254.5 -94.5q-127 0 -200.5 79t-73.5 218zM147 276q0 -85 45.5 -136.5t122.5 -51.5 q96 0 158 63t62 162q0 79 -46.5 127.5t-123.5 48.5q-96 0 -157 -58.5t-61 -154.5z" />
<glyph horiz-adv-x="731" d="M84 809l10 100h615l-11 -84l-438 -825h-123l432 809h-485z" />
<glyph horiz-adv-x="731" d="M4 221q0 91 57 160t154 100q-59 25 -91 71.5t-32 109.5q0 117 89.5 188.5t232.5 71.5q119 0 189.5 -57.5t70.5 -153.5q0 -81 -46 -141.5t-126 -90.5q72 -26 111.5 -79.5t39.5 -125.5q0 -126 -99.5 -206t-254.5 -80q-134 0 -214.5 64t-80.5 169zM125 236q0 -71 50 -113.5 t134 -42.5q99 0 163.5 54.5t64.5 141.5q0 72 -50 115t-135 43q-99 0 -163 -55t-64 -143zM209 655q0 -60 42 -96.5t114 -36.5q83 0 136.5 49t53.5 125q0 60 -43 96.5t-113 36.5q-83 0 -136.5 -49t-53.5 -125z" />
<glyph horiz-adv-x="731" d="M37 102q59 -18 117 -18q129 0 234.5 95.5t146.5 256.5q-44 -43 -108.5 -66.5t-135.5 -23.5q-107 0 -169.5 66.5t-62.5 177.5q0 147 98 239.5t251 92.5q125 0 196.5 -78.5t71.5 -214.5q0 -175 -66.5 -322t-185 -233t-264.5 -86q-63 0 -119 18zM182 602q0 -76 44 -123 t120 -47q93 0 152 57t59 150q0 83 -43.5 132.5t-118.5 49.5q-93 0 -153 -61t-60 -158z" />
<glyph horiz-adv-x="731" d="M100 977q0 240 110 395.5t275 155.5q125 0 198 -105t73 -278q0 -240 -110 -395.5t-275 -155.5q-125 0 -198 105t-73 278zM219 973q0 -127 44.5 -203t121.5 -76q103 0 176.5 132t73.5 323q0 126 -43.5 202t-116.5 76q-107 0 -181.5 -131t-74.5 -323z" />
<glyph horiz-adv-x="731" d="M86 606l10 96h291l88 713h-233l28 101h334l-100 -814h196l-10 -96h-604z" />
<glyph horiz-adv-x="731" d="M68 606l10 84l325 293q43 37 70.5 63.5t63.5 69t54.5 86.5t18.5 88q0 63 -41.5 100t-111.5 37q-61 0 -139.5 -19.5t-147.5 -51.5l14 96q65 34 148 55t153 21q114 0 180 -57t66 -154q0 -56 -20 -109.5t-59.5 -105t-80.5 -93t-102 -94.5l-242 -213h471l-26 -96h-604z" />
<glyph horiz-adv-x="731" d="M68 639l10 98q101 -43 248 -43q116 0 188 52t72 135q0 68 -57 108.5t-152 40.5h-64l-26 70l305 315h-422l12 101h578l-8 -70l-324 -330q127 -1 203 -63t76 -162q0 -132 -107 -214.5t-276 -82.5q-157 0 -256 45z" />
<glyph horiz-adv-x="731" d="M51 823l15 97l462 596h152l-72 -596h137l-10 -97h-139l-27 -217h-116l26 217h-428zM172 920h320l61 489z" />
<glyph horiz-adv-x="731" d="M80 641l12 96q91 -43 248 -43q116 0 188 54t72 143q0 70 -52 113t-140 43q-78 0 -193 -27l-61 27l88 469h499l-24 -97h-379l-59 -299q101 19 153 19q134 0 211.5 -66t77.5 -174q0 -136 -106 -220.5t-273 -84.5q-170 0 -262 47z" />
<glyph horiz-adv-x="731" d="M102 891q0 175 67.5 321t187.5 231t268 85q55 0 118 -19l5 -96q-63 19 -117 19q-131 0 -239 -93.5t-148 -253.5q45 45 111 71t139 26q108 0 172.5 -67.5t64.5 -180.5q0 -151 -99.5 -245.5t-254.5 -94.5q-127 0 -201 79t-74 218zM221 883q0 -85 45.5 -137t122.5 -52 q96 0 157.5 63.5t61.5 162.5q0 79 -46.5 127.5t-123.5 48.5q-96 0 -156.5 -58.5t-60.5 -154.5z" />
<glyph horiz-adv-x="731" d="M158 1415l10 101h614l-10 -84l-438 -826h-123l432 809h-485z" />
<glyph horiz-adv-x="731" d="M78 827q0 91 57 160t154 100q-59 25 -91 71.5t-32 109.5q0 117 89 188.5t232 71.5q119 0 190 -57.5t71 -153.5q0 -81 -46 -141.5t-127 -90.5q72 -26 112 -79t40 -125q0 -126 -99.5 -206.5t-254.5 -80.5q-134 0 -214.5 64t-80.5 169zM199 842q0 -71 50 -113.5t134 -42.5 q99 0 163 55t64 142q0 72 -49.5 114.5t-134.5 42.5q-99 0 -163 -55t-64 -143zM283 1262q0 -61 42 -97.5t113 -36.5q83 0 137 49.5t54 125.5q0 60 -43 96.5t-113 36.5q-83 0 -136.5 -49t-53.5 -125z" />
<glyph horiz-adv-x="731" d="M111 709q63 -19 116 -19q129 0 234.5 95.5t146.5 256.5q-44 -43 -108 -66.5t-135 -23.5q-107 0 -169.5 66.5t-62.5 177.5q0 147 97.5 239.5t250.5 92.5q125 0 197 -78.5t72 -214.5q0 -175 -66.5 -322t-185.5 -233t-265 -86q-62 0 -118 18zM256 1208q0 -76 44 -123 t120 -47q93 0 152 57t59 150q0 83 -43.5 132.5t-118.5 49.5q-93 0 -153 -61t-60 -158z" />
<glyph horiz-adv-x="720" d="M211 1597h149l205 -1679h-149z" />
<glyph horiz-adv-x="532" d="M121 0l158 1167h129l-129 -1167h-158zM274 1335l23 181h178l-20 -181h-181z" />
<glyph horiz-adv-x="1048" d="M61 330q0 88 23.5 160.5t73.5 135t103.5 109.5t137.5 107q86 61 144 150.5t69 174.5h127q-12 -103 -73 -204.5t-150 -169.5q-54 -41 -89 -70t-78 -73t-67.5 -84.5t-41.5 -95.5t-17 -114q0 -115 76 -181t207 -66q96 0 218 30.5t224 81.5l-14 -127q-99 -52 -226.5 -83 t-238.5 -31q-188 0 -298 94.5t-110 255.5zM608 1335l21 181h180l-23 -181h-178z" />
<glyph horiz-adv-x="720" d="M2 -82l619 1679h149l-618 -1679h-150z" />
<glyph horiz-adv-x="751" d="M92 694l17 127h14q68 0 116 51.5t58 135.5l43 344q13 120 95 193t202 73q78 0 158 -25l8 -125q-61 21 -125 21q-76 0 -128 -45t-61 -119l-40 -342q-10 -84 -58.5 -146t-116.5 -79q55 -15 87 -64.5t32 -120.5q0 -21 -2 -41l-41 -337q-2 -16 -2 -29q0 -63 41 -101t111 -38 q64 0 129 20l-39 -125q-84 -24 -164 -24q-109 0 -172.5 61.5t-63.5 165.5q0 12 3 39l43 342q2 18 2 39q0 68 -34.5 108.5t-94.5 40.5h-17z" />
<glyph horiz-adv-x="751" d="M2 47q58 -20 123 -20q76 0 127.5 44.5t60.5 118.5l43 342q10 84 58 146.5t114 79.5q-55 15 -86.5 64t-31.5 120q0 21 2 41l41 338q2 16 2 29q0 63 -40.5 101t-109.5 38q-61 0 -129 -21l37 125q91 25 166 25q107 0 171 -61.5t64 -165.5q0 -3 -4 -39l-41 -342 q-2 -18 -2 -39q0 -68 34.5 -109t94.5 -41h15l-15 -127h-14q-68 0 -116 -51t-58 -135l-43 -344q-13 -120 -95.5 -193t-201.5 -73q-79 0 -160 24z" />
<glyph horiz-adv-x="702" d="M117 -82l207 1679h442l-16 -124h-287l-176 -1430h286l-14 -125h-442z" />
<glyph horiz-adv-x="704" d="M-8 -82l14 125h287l176 1430h-287l17 124h442l-207 -1679h-442z" />
<glyph horiz-adv-x="593" d="M129 614q0 134 25.5 262t62 224.5t93 196t101.5 162.5t105 138h137q-55 -72 -111 -164.5t-116.5 -220.5t-98.5 -282t-38 -301q0 -203 50 -402t107 -309h-137q-180 321 -180 696z" />
<glyph horiz-adv-x="593" d="M-6 -82q55 73 110.5 165t117 220.5t100 282t38.5 299.5q0 204 -50.5 402t-108.5 310h137q180 -329 180 -696q0 -134 -25.5 -262t-62 -224.5t-93 -196t-101.5 -162.5t-105 -138h-137z" />
<glyph horiz-adv-x="1970" d="M168 705l16 126h1667l-14 -126h-1669z" />
<glyph horiz-adv-x="1302" d="M168 705l16 126h1000l-17 -126h-999z" />
<glyph horiz-adv-x="915" d="M168 705l16 126h613l-15 -126h-614z" />
<glyph horiz-adv-x="915" d="M168 705l16 126h613l-15 -126h-614z" />
<glyph horiz-adv-x="1140" d="M125 758l379 459h162l-381 -459l268 -459h-162zM557 758l379 459h162l-381 -459l268 -459h-162z" />
<glyph horiz-adv-x="1140" d="M96 299l379 459l-266 459h162l264 -459l-377 -459h-162zM528 299l379 459l-266 459h162l264 -459l-377 -459h-162z" />
<glyph horiz-adv-x="708" d="M125 758l379 459h162l-381 -459l268 -459h-162z" />
<glyph horiz-adv-x="708" d="M96 299l379 459l-266 459h162l264 -459l-377 -459h-162z" />
<glyph d="M59 174q78 -32 191 -52.5t223 -25.5l64 518l-97 27q-274 79 -274 279q0 158 125.5 262t329.5 123l18 143h137l-16 -141q222 -7 379 -66l-15 -121q-157 61 -379 68l-59 -479l105 -31q68 -19 120.5 -43t97.5 -59.5t69 -85.5t24 -113q0 -164 -139.5 -272t-366.5 -123 l-16 -140h-138l17 140q-237 10 -393 73zM311 946q0 -133 193 -186l49 -15l53 441q-134 -17 -214.5 -81.5t-80.5 -158.5zM610 102q160 17 254 84.5t94 167.5q0 80 -60.5 127.5t-168.5 77.5l-59 16z" />
<glyph d="M27 430l14 121h115v2q0 99 18 184h-111l15 121h129q76 208 244 329.5t387 121.5q104 0 209.5 -22.5t173.5 -59.5l-15 -125q-63 37 -160.5 59.5t-193.5 22.5q-162 0 -290 -87t-193 -239h559l-37 -121h-561q-19 -84 -19 -170v-16h514l-37 -121h-462q31 -153 132 -240.5 t253 -87.5q100 0 210 28t193 73l-14 -123q-80 -45 -198.5 -72.5t-231.5 -27.5q-207 0 -340 120.5t-166 329.5h-137z" />
<glyph d="M53 0l15 98q101 98 173 222t89 229h-203l14 119h185q-9 32 -34.5 83t-43 99.5t-17.5 95.5q0 159 137.5 261t352.5 102q108 0 224.5 -24.5t195.5 -63.5l-17 -119q-84 38 -192 60t-205 22q-152 0 -248 -68.5t-96 -177.5q0 -49 43 -138t51 -132h502l-16 -119h-490 q-20 -108 -88.5 -224t-165.5 -206h850l-37 -119h-979z" />
<glyph d="M184 258l13 113h315l18 139h-315l12 113h258l-278 665h160l254 -643l411 643h162l-444 -665h258l-15 -113h-315l-19 -139h316l-12 -113h-316l-33 -258h-147l33 258h-316z" />
<glyph horiz-adv-x="1830" d="M166 831q0 210 107 344t272 134q127 0 201.5 -94.5t74.5 -251.5q0 -210 -106.5 -344t-270.5 -134q-128 0 -203 94t-75 252zM287 831q0 -111 46 -178t122 -67q103 0 173 107.5t70 269.5q0 111 -45 178t-121 67q-105 0 -175 -107.5t-70 -269.5zM410 39l954 1270l86 -60 l-954 -1269zM1040 334q0 210 107 343.5t272 133.5q127 0 201 -94t74 -252q0 -209 -106.5 -343t-268.5 -134q-130 0 -204.5 94t-74.5 252zM1161 334q0 -111 45.5 -178.5t124.5 -67.5q102 0 172 107.5t70 269.5q0 111 -45 178.5t-121 67.5q-105 0 -175.5 -107.5t-70.5 -269.5z " />
</font>
</defs>
</svg>
